<?xml version="1.0" encoding="UTF-8" standalone="no"?>
<!DOCTYPE svg PUBLIC "-//W3C//DTD SVG 1.1//EN"
 "http://www.w3.org/Graphics/SVG/1.1/DTD/svg11.dtd">
<!-- Generated by graphviz version 12.1.0 (20240811.2233)
 -->
<!-- Pages: 1 -->
<svg width="144pt" height="221pt"
 viewBox="0.00 0.00 143.66 221.00" xmlns="http://www.w3.org/2000/svg" xmlns:xlink="http://www.w3.org/1999/xlink">
<g id="graph0" class="graph" transform="scale(1 1) rotate(0) translate(4 217)">
<polygon fill="white" stroke="none" points="-4,4 -4,-217 139.66,-217 139.66,4 -4,4"/>
<!-- 1 -->
<g id="node1" class="node">
<title>1</title>
<ellipse fill="none" stroke="red" cx="58" cy="-195" rx="27" ry="18"/>
<text text-anchor="middle" x="58" y="-189.95" font-family="Times,serif" font-size="14.00">1</text>
</g>
<!-- 2 -->
<g id="node2" class="node">
<title>2</title>
<ellipse fill="none" stroke="blue" cx="27" cy="-106.5" rx="27" ry="18"/>
<text text-anchor="middle" x="27" y="-101.45" font-family="Times,serif" font-size="14.00">2</text>
</g>
<!-- 1&#45;&gt;2 -->
<g id="edge1" class="edge">
<title>1&#45;&gt;2</title>
<path fill="none" stroke="black" d="M39.99,-181.03C33.34,-175.14 26.55,-167.57 23,-159 19.99,-151.74 19.51,-143.41 20.18,-135.6"/>
<polygon fill="black" stroke="black" points="23.62,-136.26 21.68,-125.84 16.7,-135.2 23.62,-136.26"/>
<text text-anchor="middle" x="51.5" y="-145.7" font-family="Times,serif" font-size="14.00">is super of</text>
</g>
<!-- 3 -->
<g id="node3" class="node">
<title>3</title>
<ellipse fill="none" stroke="green" cx="61" cy="-18" rx="27" ry="18"/>
<text text-anchor="middle" x="61" y="-12.95" font-family="Times,serif" font-size="14.00">3</text>
</g>
<!-- 1&#45;&gt;3 -->
<g id="edge3" class="edge">
<title>1&#45;&gt;3</title>
<path fill="none" stroke="black" d="M70.34,-178.53C74.22,-172.75 78.01,-165.9 80,-159 92.92,-114.16 91.49,-99.23 80,-54 79.23,-50.96 78.14,-47.91 76.86,-44.93"/>
<polygon fill="black" stroke="black" points="80,-43.38 72.36,-36.04 73.75,-46.54 80,-43.38"/>
<text text-anchor="middle" x="112.41" y="-101.45" font-family="Times,serif" font-size="14.00">is sub of</text>
</g>
<!-- 2&#45;&gt;3 -->
<g id="edge2" class="edge">
<title>2&#45;&gt;3</title>
<path fill="none" stroke="black" d="M26.89,-88.21C27.38,-77.92 28.98,-64.81 33.5,-54 35.15,-50.06 37.36,-46.19 39.83,-42.55"/>
<polygon fill="black" stroke="black" points="42.51,-44.8 45.79,-34.73 36.94,-40.56 42.51,-44.8"/>
<text text-anchor="middle" x="56.75" y="-57.2" font-family="Times,serif" font-size="14.00">is sub of</text>
</g>
</g>
</svg>
