<?xml version="1.0" encoding="UTF-8" standalone="no"?>
<!DOCTYPE svg PUBLIC "-//W3C//DTD SVG 1.1//EN"
 "http://www.w3.org/Graphics/SVG/1.1/DTD/svg11.dtd">
<!-- Generated by graphviz version 12.1.0 (20240811.2233)
 -->
<!-- Pages: 1 -->
<svg width="1583pt" height="383pt"
 viewBox="0.00 0.00 1583.00 382.50" xmlns="http://www.w3.org/2000/svg" xmlns:xlink="http://www.w3.org/1999/xlink">
<g id="graph0" class="graph" transform="scale(1 1) rotate(0) translate(4 378.5)">
<polygon fill="white" stroke="none" points="-4,4 -4,-378.5 1579,-378.5 1579,4 -4,4"/>
<!-- 5 -->
<g id="node1" class="node">
<title>5</title>
<ellipse fill="none" stroke="red" cx="27" cy="-356.5" rx="27" ry="18"/>
<text text-anchor="middle" x="27" y="-351.45" font-family="Times,serif" font-size="14.00">5</text>
</g>
<!-- 18 -->
<g id="node2" class="node">
<title>18</title>
<ellipse fill="none" stroke="green" cx="27" cy="-268" rx="27" ry="18"/>
<text text-anchor="middle" x="27" y="-262.95" font-family="Times,serif" font-size="14.00">18</text>
</g>
<!-- 5&#45;&gt;18 -->
<g id="edge1" class="edge">
<title>5&#45;&gt;18</title>
<path fill="none" stroke="black" d="M27,-338.41C27,-326.76 27,-311.05 27,-297.52"/>
<polygon fill="black" stroke="black" points="30.5,-297.86 27,-287.86 23.5,-297.86 30.5,-297.86"/>
<text text-anchor="middle" x="55.5" y="-307.2" font-family="Times,serif" font-size="14.00">is super of</text>
</g>
<!-- 11 -->
<g id="node3" class="node">
<title>11</title>
<ellipse fill="none" stroke="red" cx="107" cy="-356.5" rx="27" ry="18"/>
<text text-anchor="middle" x="107" y="-351.45" font-family="Times,serif" font-size="14.00">11</text>
</g>
<!-- 13 -->
<g id="node4" class="node">
<title>13</title>
<ellipse fill="none" stroke="green" cx="107" cy="-268" rx="27" ry="18"/>
<text text-anchor="middle" x="107" y="-262.95" font-family="Times,serif" font-size="14.00">13</text>
</g>
<!-- 11&#45;&gt;13 -->
<g id="edge2" class="edge">
<title>11&#45;&gt;13</title>
<path fill="none" stroke="black" d="M107,-338.41C107,-326.76 107,-311.05 107,-297.52"/>
<polygon fill="black" stroke="black" points="110.5,-297.86 107,-287.86 103.5,-297.86 110.5,-297.86"/>
<text text-anchor="middle" x="135.5" y="-307.2" font-family="Times,serif" font-size="14.00">is super of</text>
</g>
<!-- 24 -->
<g id="node5" class="node">
<title>24</title>
<ellipse fill="none" stroke="red" cx="192" cy="-356.5" rx="27" ry="18"/>
<text text-anchor="middle" x="192" y="-351.45" font-family="Times,serif" font-size="14.00">24</text>
</g>
<!-- 33 -->
<g id="node6" class="node">
<title>33</title>
<ellipse fill="none" stroke="blue" cx="236" cy="-268" rx="27" ry="18"/>
<text text-anchor="middle" x="236" y="-262.95" font-family="Times,serif" font-size="14.00">33</text>
</g>
<!-- 24&#45;&gt;33 -->
<g id="edge3" class="edge">
<title>24&#45;&gt;33</title>
<path fill="none" stroke="black" d="M200.17,-339.25C205.27,-329.1 212,-315.78 218,-304 219.41,-301.24 220.88,-298.36 222.35,-295.49"/>
<polygon fill="black" stroke="black" points="225.4,-297.21 226.86,-286.71 219.18,-294.01 225.4,-297.21"/>
</g>
<!-- 47 -->
<g id="node7" class="node">
<title>47</title>
<ellipse fill="none" stroke="green" cx="236" cy="-179.5" rx="27" ry="18"/>
<text text-anchor="middle" x="236" y="-174.45" font-family="Times,serif" font-size="14.00">47</text>
</g>
<!-- 24&#45;&gt;47 -->
<g id="edge5" class="edge">
<title>24&#45;&gt;47</title>
<path fill="none" stroke="black" d="M191.22,-338.32C190.73,-317.14 191.42,-280.21 200,-250 204.35,-234.68 212.26,-218.82 219.56,-206.13"/>
<polygon fill="black" stroke="black" points="222.54,-207.97 224.68,-197.59 216.54,-204.37 222.54,-207.97"/>
</g>
<!-- 33&#45;&gt;47 -->
<g id="edge4" class="edge">
<title>33&#45;&gt;47</title>
<path fill="none" stroke="black" d="M236,-249.91C236,-238.26 236,-222.55 236,-209.02"/>
<polygon fill="black" stroke="black" points="239.5,-209.36 236,-199.36 232.5,-209.36 239.5,-209.36"/>
</g>
<!-- 25 -->
<g id="node8" class="node">
<title>25</title>
<ellipse fill="none" stroke="red" cx="491" cy="-356.5" rx="27" ry="18"/>
<text text-anchor="middle" x="491" y="-351.45" font-family="Times,serif" font-size="14.00">25</text>
</g>
<!-- 84 -->
<g id="node9" class="node">
<title>84</title>
<ellipse fill="none" stroke="green" cx="491" cy="-268" rx="27" ry="18"/>
<text text-anchor="middle" x="491" y="-262.95" font-family="Times,serif" font-size="14.00">84</text>
</g>
<!-- 25&#45;&gt;84 -->
<g id="edge6" class="edge">
<title>25&#45;&gt;84</title>
<path fill="none" stroke="black" d="M491,-338.41C491,-326.76 491,-311.05 491,-297.52"/>
<polygon fill="black" stroke="black" points="494.5,-297.86 491,-287.86 487.5,-297.86 494.5,-297.86"/>
<text text-anchor="middle" x="519.5" y="-307.2" font-family="Times,serif" font-size="14.00">is super of</text>
</g>
<!-- 43 -->
<g id="node10" class="node">
<title>43</title>
<ellipse fill="none" stroke="red" cx="563" cy="-356.5" rx="27" ry="18"/>
<text text-anchor="middle" x="563" y="-351.45" font-family="Times,serif" font-size="14.00">43</text>
</g>
<!-- 91 -->
<g id="node11" class="node">
<title>91</title>
<ellipse fill="none" stroke="red" cx="807" cy="-268" rx="27" ry="18"/>
<text text-anchor="middle" x="807" y="-262.95" font-family="Times,serif" font-size="14.00">91</text>
</g>
<!-- 124 -->
<g id="node12" class="node">
<title>124</title>
<ellipse fill="none" stroke="blue" cx="756" cy="-179.5" rx="27" ry="18"/>
<text text-anchor="middle" x="756" y="-174.45" font-family="Times,serif" font-size="14.00">124</text>
</g>
<!-- 91&#45;&gt;124 -->
<g id="edge7" class="edge">
<title>91&#45;&gt;124</title>
<path fill="none" stroke="black" d="M797.41,-250.73C790.07,-238.29 779.81,-220.88 771.34,-206.51"/>
<polygon fill="black" stroke="black" points="774.41,-204.84 766.32,-198 768.38,-208.39 774.41,-204.84"/>
</g>
<!-- 130 -->
<g id="node13" class="node">
<title>130</title>
<ellipse fill="none" stroke="blue" cx="698" cy="-91" rx="27" ry="18"/>
<text text-anchor="middle" x="698" y="-85.95" font-family="Times,serif" font-size="14.00">130</text>
</g>
<!-- 124&#45;&gt;130 -->
<g id="edge8" class="edge">
<title>124&#45;&gt;130</title>
<path fill="none" stroke="black" d="M745.36,-162.63C736.86,-149.95 724.78,-131.94 714.95,-117.27"/>
<polygon fill="black" stroke="black" points="717.89,-115.38 709.41,-109.02 712.08,-119.28 717.89,-115.38"/>
</g>
<!-- 136 -->
<g id="node14" class="node">
<title>136</title>
<ellipse fill="none" stroke="green" cx="698" cy="-18" rx="27" ry="18"/>
<text text-anchor="middle" x="698" y="-12.95" font-family="Times,serif" font-size="14.00">136</text>
</g>
<!-- 124&#45;&gt;136 -->
<g id="edge10" class="edge">
<title>124&#45;&gt;136</title>
<path fill="none" stroke="black" d="M780.04,-170.57C792.55,-165.08 806.72,-156.4 814,-143.5 822.63,-128.21 822.82,-96.21 806,-73 788.9,-49.41 758.54,-35.52 734.35,-27.75"/>
<polygon fill="black" stroke="black" points="735.43,-24.42 724.85,-24.93 733.44,-31.13 735.43,-24.42"/>
</g>
<!-- 171 -->
<g id="node15" class="node">
<title>171</title>
<ellipse fill="none" stroke="green" cx="770" cy="-91" rx="27" ry="18"/>
<text text-anchor="middle" x="770" y="-85.95" font-family="Times,serif" font-size="14.00">171</text>
</g>
<!-- 124&#45;&gt;171 -->
<g id="edge11" class="edge">
<title>124&#45;&gt;171</title>
<path fill="none" stroke="black" d="M754.9,-161.18C754.62,-151.12 754.87,-138.25 757,-127 757.47,-124.52 758.1,-121.98 758.83,-119.46"/>
<polygon fill="black" stroke="black" points="762.07,-120.79 761.98,-110.19 755.45,-118.53 762.07,-120.79"/>
<text text-anchor="middle" x="785.5" y="-130.2" font-family="Times,serif" font-size="14.00">is super of</text>
</g>
<!-- 130&#45;&gt;136 -->
<g id="edge9" class="edge">
<title>130&#45;&gt;136</title>
<path fill="none" stroke="black" d="M698,-72.81C698,-65.23 698,-56.1 698,-47.54"/>
<polygon fill="black" stroke="black" points="701.5,-47.54 698,-37.54 694.5,-47.54 701.5,-47.54"/>
</g>
<!-- 92 -->
<g id="node16" class="node">
<title>92</title>
<ellipse fill="none" stroke="red" cx="843" cy="-356.5" rx="27" ry="18"/>
<text text-anchor="middle" x="843" y="-351.45" font-family="Times,serif" font-size="14.00">92</text>
</g>
<!-- 93 -->
<g id="node17" class="node">
<title>93</title>
<ellipse fill="none" stroke="red" cx="945" cy="-356.5" rx="27" ry="18"/>
<text text-anchor="middle" x="945" y="-351.45" font-family="Times,serif" font-size="14.00">93</text>
</g>
<!-- 96 -->
<g id="node18" class="node">
<title>96</title>
<ellipse fill="none" stroke="red" cx="1032" cy="-356.5" rx="27" ry="18"/>
<text text-anchor="middle" x="1032" y="-351.45" font-family="Times,serif" font-size="14.00">96</text>
</g>
<!-- 102 -->
<g id="node19" class="node">
<title>102</title>
<ellipse fill="none" stroke="red" cx="1112" cy="-356.5" rx="27" ry="18"/>
<text text-anchor="middle" x="1112" y="-351.45" font-family="Times,serif" font-size="14.00">102</text>
</g>
<!-- 104 -->
<g id="node20" class="node">
<title>104</title>
<ellipse fill="none" stroke="red" cx="972" cy="-268" rx="27" ry="18"/>
<text text-anchor="middle" x="972" y="-262.95" font-family="Times,serif" font-size="14.00">104</text>
</g>
<!-- 183 -->
<g id="node21" class="node">
<title>183</title>
<ellipse fill="none" stroke="green" cx="1080" cy="-179.5" rx="27" ry="18"/>
<text text-anchor="middle" x="1080" y="-174.45" font-family="Times,serif" font-size="14.00">183</text>
</g>
<!-- 104&#45;&gt;183 -->
<g id="edge12" class="edge">
<title>104&#45;&gt;183</title>
<path fill="none" stroke="black" d="M977.05,-250.29C981.15,-239.18 987.92,-224.96 998,-215.5 1010.81,-203.49 1028.37,-195.25 1043.96,-189.8"/>
<polygon fill="black" stroke="black" points="1044.96,-193.15 1053.42,-186.77 1042.83,-186.48 1044.96,-193.15"/>
<text text-anchor="middle" x="1026.5" y="-218.7" font-family="Times,serif" font-size="14.00">is super of</text>
</g>
<!-- 105 -->
<g id="node22" class="node">
<title>105</title>
<ellipse fill="none" stroke="red" cx="767" cy="-356.5" rx="27" ry="18"/>
<text text-anchor="middle" x="767" y="-351.45" font-family="Times,serif" font-size="14.00">105</text>
</g>
<!-- 105&#45;&gt;124 -->
<g id="edge17" class="edge">
<title>105&#45;&gt;124</title>
<path fill="none" stroke="black" d="M786.88,-344.11C805.33,-332.27 831.61,-311.85 843,-286 849.45,-271.36 849.94,-264.42 843,-250 831.51,-226.12 807.37,-207.88 787.43,-196.09"/>
<polygon fill="black" stroke="black" points="789.23,-193.09 778.8,-191.26 785.81,-199.2 789.23,-193.09"/>
<text text-anchor="middle" x="876.52" y="-262.95" font-family="Times,serif" font-size="14.00">is super of</text>
</g>
<!-- 118 -->
<g id="node23" class="node">
<title>118</title>
<ellipse fill="none" stroke="blue" cx="680" cy="-268" rx="27" ry="18"/>
<text text-anchor="middle" x="680" y="-262.95" font-family="Times,serif" font-size="14.00">118</text>
</g>
<!-- 105&#45;&gt;118 -->
<g id="edge13" class="edge">
<title>105&#45;&gt;118</title>
<path fill="none" stroke="black" d="M752.63,-341.22C738.99,-327.65 718.27,-307.05 702.44,-291.31"/>
<polygon fill="black" stroke="black" points="705.31,-289.23 695.75,-284.66 700.38,-294.19 705.31,-289.23"/>
<text text-anchor="middle" x="759.79" y="-307.2" font-family="Times,serif" font-size="14.00">is super of</text>
</g>
<!-- 118&#45;&gt;124 -->
<g id="edge14" class="edge">
<title>118&#45;&gt;124</title>
<path fill="none" stroke="black" d="M693.3,-252.03C698.79,-245.84 705.21,-238.58 711,-232 719.03,-222.87 727.84,-212.8 735.52,-204.01"/>
<polygon fill="black" stroke="black" points="738.1,-206.37 742.03,-196.54 732.82,-201.77 738.1,-206.37"/>
</g>
<!-- 118&#45;&gt;130 -->
<g id="edge15" class="edge">
<title>118&#45;&gt;130</title>
<path fill="none" stroke="black" d="M681.79,-249.58C684.89,-219.44 691.28,-157.3 695.05,-120.7"/>
<polygon fill="black" stroke="black" points="698.52,-121.16 696.06,-110.85 691.56,-120.44 698.52,-121.16"/>
</g>
<!-- 118&#45;&gt;136 -->
<g id="edge16" class="edge">
<title>118&#45;&gt;136</title>
<path fill="none" stroke="black" d="M674.17,-249.96C663.33,-215.65 642.89,-136.13 662,-73 665.26,-62.23 671.46,-51.64 677.8,-42.74"/>
<polygon fill="black" stroke="black" points="680.42,-45.08 683.69,-35.01 674.85,-40.84 680.42,-45.08"/>
</g>
<!-- 106 -->
<g id="node24" class="node">
<title>106</title>
<ellipse fill="none" stroke="red" cx="1260" cy="-356.5" rx="27" ry="18"/>
<text text-anchor="middle" x="1260" y="-351.45" font-family="Times,serif" font-size="14.00">106</text>
</g>
<!-- 150 -->
<g id="node25" class="node">
<title>150</title>
<ellipse fill="none" stroke="red" cx="1332" cy="-356.5" rx="27" ry="18"/>
<text text-anchor="middle" x="1332" y="-351.45" font-family="Times,serif" font-size="14.00">150</text>
</g>
<!-- 153 -->
<g id="node26" class="node">
<title>153</title>
<ellipse fill="none" stroke="green" cx="1332" cy="-268" rx="27" ry="18"/>
<text text-anchor="middle" x="1332" y="-262.95" font-family="Times,serif" font-size="14.00">153</text>
</g>
<!-- 150&#45;&gt;153 -->
<g id="edge18" class="edge">
<title>150&#45;&gt;153</title>
<path fill="none" stroke="black" d="M1332,-338.41C1332,-326.76 1332,-311.05 1332,-297.52"/>
<polygon fill="black" stroke="black" points="1335.5,-297.86 1332,-287.86 1328.5,-297.86 1335.5,-297.86"/>
<text text-anchor="middle" x="1360.5" y="-307.2" font-family="Times,serif" font-size="14.00">is super of</text>
</g>
<!-- 182 -->
<g id="node27" class="node">
<title>182</title>
<ellipse fill="none" stroke="red" cx="1044" cy="-268" rx="27" ry="18"/>
<text text-anchor="middle" x="1044" y="-262.95" font-family="Times,serif" font-size="14.00">182</text>
</g>
<!-- 182&#45;&gt;183 -->
<g id="edge19" class="edge">
<title>182&#45;&gt;183</title>
<path fill="none" stroke="black" d="M1050.94,-250.32C1055.97,-238.24 1062.88,-221.63 1068.7,-207.64"/>
<polygon fill="black" stroke="black" points="1071.89,-209.1 1072.5,-198.52 1065.42,-206.41 1071.89,-209.1"/>
</g>
<!-- 193 -->
<g id="node28" class="node">
<title>193</title>
<ellipse fill="none" stroke="red" cx="1404" cy="-356.5" rx="27" ry="18"/>
<text text-anchor="middle" x="1404" y="-351.45" font-family="Times,serif" font-size="14.00">193</text>
</g>
<!-- 196 -->
<g id="node29" class="node">
<title>196</title>
<ellipse fill="none" stroke="red" cx="1476" cy="-356.5" rx="27" ry="18"/>
<text text-anchor="middle" x="1476" y="-351.45" font-family="Times,serif" font-size="14.00">196</text>
</g>
<!-- 202 -->
<g id="node30" class="node">
<title>202</title>
<ellipse fill="none" stroke="red" cx="1548" cy="-356.5" rx="27" ry="18"/>
<text text-anchor="middle" x="1548" y="-351.45" font-family="Times,serif" font-size="14.00">202</text>
</g>
<!-- 50 -->
<g id="node31" class="node">
<title>50</title>
<ellipse fill="none" stroke="red" cx="309" cy="-356.5" rx="27" ry="18"/>
<text text-anchor="middle" x="309" y="-351.45" font-family="Times,serif" font-size="14.00">50</text>
</g>
<!-- 50&#45;&gt;33 -->
<g id="edge22" class="edge">
<title>50&#45;&gt;33</title>
<path fill="none" stroke="black" d="M283.53,-349.97C267.58,-345.07 248.18,-336.18 238,-320.5 233.61,-313.74 232.07,-305.37 231.9,-297.35"/>
<polygon fill="black" stroke="black" points="235.38,-297.77 232.4,-287.6 228.39,-297.41 235.38,-297.77"/>
<text text-anchor="middle" x="266.5" y="-307.2" font-family="Times,serif" font-size="14.00">is super of</text>
</g>
<!-- 50&#45;&gt;47 -->
<g id="edge21" class="edge">
<title>50&#45;&gt;47</title>
<path fill="none" stroke="black" d="M305.03,-338.62C302.5,-328.48 298.95,-315.38 295,-304 282.92,-269.19 263.83,-231.24 250.65,-206.73"/>
<polygon fill="black" stroke="black" points="253.81,-205.22 245.96,-198.11 247.67,-208.56 253.81,-205.22"/>
<text text-anchor="middle" x="316.22" y="-262.95" font-family="Times,serif" font-size="14.00">is super of</text>
</g>
<!-- 51 -->
<g id="node32" class="node">
<title>51</title>
<ellipse fill="none" stroke="green" cx="411" cy="-268" rx="27" ry="18"/>
<text text-anchor="middle" x="411" y="-262.95" font-family="Times,serif" font-size="14.00">51</text>
</g>
<!-- 50&#45;&gt;51 -->
<g id="edge20" class="edge">
<title>50&#45;&gt;51</title>
<path fill="none" stroke="black" d="M324.94,-341.98C341.31,-328.1 367.02,-306.29 386.08,-290.13"/>
<polygon fill="black" stroke="black" points="388.32,-292.82 393.68,-283.69 383.79,-287.48 388.32,-292.82"/>
<text text-anchor="middle" x="397.64" y="-307.2" font-family="Times,serif" font-size="14.00">is super of</text>
</g>
<!-- 129 -->
<g id="node33" class="node">
<title>129</title>
<ellipse fill="none" stroke="red" cx="635" cy="-356.5" rx="27" ry="18"/>
<text text-anchor="middle" x="635" y="-351.45" font-family="Times,serif" font-size="14.00">129</text>
</g>
<!-- 129&#45;&gt;124 -->
<g id="edge24" class="edge">
<title>129&#45;&gt;124</title>
<path fill="none" stroke="black" d="M661.79,-354.04C685.62,-351.21 719.47,-343.16 738,-320.5 763.61,-289.18 763.68,-240.04 760.49,-209.08"/>
<polygon fill="black" stroke="black" points="763.98,-208.8 759.29,-199.3 757.04,-209.65 763.98,-208.8"/>
</g>
<!-- 129&#45;&gt;130 -->
<g id="edge23" class="edge">
<title>129&#45;&gt;130</title>
<path fill="none" stroke="black" d="M635.19,-338.13C635.71,-317.07 637.57,-280.58 644,-250 653.93,-202.75 673.8,-150.11 686.47,-119.09"/>
<polygon fill="black" stroke="black" points="689.6,-120.66 690.2,-110.08 683.14,-117.98 689.6,-120.66"/>
</g>
<!-- 129&#45;&gt;136 -->
<g id="edge25" class="edge">
<title>129&#45;&gt;136</title>
<path fill="none" stroke="black" d="M619.97,-341.09C604.93,-325.05 584,-297.59 584,-269 584,-269 584,-269 584,-90 584,-53.03 627.74,-34.62 661.03,-25.96"/>
<polygon fill="black" stroke="black" points="661.46,-29.45 670.37,-23.73 659.83,-22.65 661.46,-29.45"/>
</g>
<!-- 129&#45;&gt;118 -->
<g id="edge26" class="edge">
<title>129&#45;&gt;118</title>
<path fill="none" stroke="black" d="M643.07,-339.2C648.15,-329.04 654.87,-315.71 661,-304 662.5,-301.13 664.09,-298.14 665.69,-295.16"/>
<polygon fill="black" stroke="black" points="668.61,-297.12 670.29,-286.66 662.45,-293.79 668.61,-297.12"/>
</g>
<!-- 194 -->
<g id="node34" class="node">
<title>194</title>
<ellipse fill="none" stroke="red" cx="1116" cy="-268" rx="27" ry="18"/>
<text text-anchor="middle" x="1116" y="-262.95" font-family="Times,serif" font-size="14.00">194</text>
</g>
<!-- 194&#45;&gt;183 -->
<g id="edge27" class="edge">
<title>194&#45;&gt;183</title>
<path fill="none" stroke="black" d="M1109.06,-250.32C1104.03,-238.24 1097.12,-221.63 1091.3,-207.64"/>
<polygon fill="black" stroke="black" points="1094.58,-206.41 1087.5,-198.52 1088.11,-209.1 1094.58,-206.41"/>
</g>
<!-- 211 -->
<g id="node35" class="node">
<title>211</title>
<ellipse fill="none" stroke="red" cx="1188" cy="-356.5" rx="27" ry="18"/>
<text text-anchor="middle" x="1188" y="-351.45" font-family="Times,serif" font-size="14.00">211</text>
</g>
<!-- 3 -->
<g id="node36" class="node">
<title>3</title>
<ellipse fill="none" stroke="blue" cx="1188" cy="-268" rx="27" ry="18"/>
<text text-anchor="middle" x="1188" y="-262.95" font-family="Times,serif" font-size="14.00">3</text>
</g>
<!-- 211&#45;&gt;3 -->
<g id="edge28" class="edge">
<title>211&#45;&gt;3</title>
<path fill="none" stroke="black" d="M1188,-338.41C1188,-326.76 1188,-311.05 1188,-297.52"/>
<polygon fill="black" stroke="black" points="1191.5,-297.86 1188,-287.86 1184.5,-297.86 1191.5,-297.86"/>
</g>
<!-- 3&#45;&gt;183 -->
<g id="edge29" class="edge">
<title>3&#45;&gt;183</title>
<path fill="none" stroke="black" d="M1171.12,-253.48C1153.53,-239.39 1125.74,-217.14 1105.48,-200.9"/>
<polygon fill="black" stroke="black" points="1107.93,-198.39 1097.94,-194.87 1103.56,-203.85 1107.93,-198.39"/>
</g>
<!-- 221 -->
<g id="node37" class="node">
<title>221</title>
<ellipse fill="none" stroke="red" cx="883" cy="-179.5" rx="27" ry="18"/>
<text text-anchor="middle" x="883" y="-174.45" font-family="Times,serif" font-size="14.00">221</text>
</g>
<!-- 4 -->
<g id="node38" class="node">
<title>4</title>
<ellipse fill="none" stroke="blue" cx="883" cy="-91" rx="27" ry="18"/>
<text text-anchor="middle" x="883" y="-85.95" font-family="Times,serif" font-size="14.00">4</text>
</g>
<!-- 221&#45;&gt;4 -->
<g id="edge30" class="edge">
<title>221&#45;&gt;4</title>
<path fill="none" stroke="black" d="M883,-161.41C883,-149.76 883,-134.05 883,-120.52"/>
<polygon fill="black" stroke="black" points="886.5,-120.86 883,-110.86 879.5,-120.86 886.5,-120.86"/>
</g>
<!-- 4&#45;&gt;136 -->
<g id="edge31" class="edge">
<title>4&#45;&gt;136</title>
<path fill="none" stroke="black" d="M869.49,-75.12C862.05,-67.76 852.25,-59.33 842,-54 808.55,-36.61 766.21,-27.66 736.12,-23.18"/>
<polygon fill="black" stroke="black" points="736.71,-19.73 726.33,-21.84 735.76,-26.67 736.71,-19.73"/>
</g>
</g>
</svg>
