<?xml version="1.0" encoding="UTF-8" standalone="no"?>
<!DOCTYPE svg PUBLIC "-//W3C//DTD SVG 1.1//EN"
 "http://www.w3.org/Graphics/SVG/1.1/DTD/svg11.dtd">
<!-- Generated by graphviz version 12.1.0 (20240811.2233)
 -->
<!-- Pages: 1 -->
<svg width="1040pt" height="398pt"
 viewBox="0.00 0.00 1039.50 398.00" xmlns="http://www.w3.org/2000/svg" xmlns:xlink="http://www.w3.org/1999/xlink">
<g id="graph0" class="graph" transform="scale(1 1) rotate(0) translate(4 394)">
<polygon fill="white" stroke="none" points="-4,4 -4,-394 1035.5,-394 1035.5,4 -4,4"/>
<!-- 3 -->
<g id="node1" class="node">
<title>3</title>
<ellipse fill="none" stroke="red" cx="27" cy="-372" rx="27" ry="18"/>
<text text-anchor="middle" x="27" y="-366.95" font-family="Times,serif" font-size="14.00">3</text>
</g>
<!-- 4 -->
<g id="node2" class="node">
<title>4</title>
<ellipse fill="none" stroke="red" cx="99" cy="-372" rx="27" ry="18"/>
<text text-anchor="middle" x="99" y="-366.95" font-family="Times,serif" font-size="14.00">4</text>
</g>
<!-- 5 -->
<g id="node3" class="node">
<title>5</title>
<ellipse fill="none" stroke="red" cx="171" cy="-372" rx="27" ry="18"/>
<text text-anchor="middle" x="171" y="-366.95" font-family="Times,serif" font-size="14.00">5</text>
</g>
<!-- 6 -->
<g id="node4" class="node">
<title>6</title>
<ellipse fill="none" stroke="red" cx="243" cy="-372" rx="27" ry="18"/>
<text text-anchor="middle" x="243" y="-366.95" font-family="Times,serif" font-size="14.00">6</text>
</g>
<!-- 14 -->
<g id="node5" class="node">
<title>14</title>
<ellipse fill="none" stroke="red" cx="315" cy="-372" rx="27" ry="18"/>
<text text-anchor="middle" x="315" y="-366.95" font-family="Times,serif" font-size="14.00">14</text>
</g>
<!-- 16 -->
<g id="node6" class="node">
<title>16</title>
<ellipse fill="none" stroke="red" cx="387" cy="-372" rx="27" ry="18"/>
<text text-anchor="middle" x="387" y="-366.95" font-family="Times,serif" font-size="14.00">16</text>
</g>
<!-- 41 -->
<g id="node7" class="node">
<title>41</title>
<ellipse fill="none" stroke="red" cx="472" cy="-283.5" rx="27" ry="18"/>
<text text-anchor="middle" x="472" y="-278.45" font-family="Times,serif" font-size="14.00">41</text>
</g>
<!-- 36 -->
<g id="node8" class="node">
<title>36</title>
<ellipse fill="none" stroke="blue" cx="563" cy="-195" rx="27" ry="18"/>
<text text-anchor="middle" x="563" y="-189.95" font-family="Times,serif" font-size="14.00">36</text>
</g>
<!-- 41&#45;&gt;36 -->
<g id="edge1" class="edge">
<title>41&#45;&gt;36</title>
<path fill="none" stroke="black" d="M487.03,-268.22C501.38,-254.57 523.24,-233.8 539.82,-218.03"/>
<polygon fill="black" stroke="black" points="542.02,-220.77 546.85,-211.35 537.19,-215.7 542.02,-220.77"/>
</g>
<!-- 27 -->
<g id="node9" class="node">
<title>27</title>
<ellipse fill="none" stroke="blue" cx="513" cy="-106.5" rx="27" ry="18"/>
<text text-anchor="middle" x="513" y="-101.45" font-family="Times,serif" font-size="14.00">27</text>
</g>
<!-- 41&#45;&gt;27 -->
<g id="edge4" class="edge">
<title>41&#45;&gt;27</title>
<path fill="none" stroke="black" d="M471.53,-265C471.38,-243.81 472.5,-207.2 480.5,-177 484.47,-162.01 491.55,-146.28 498.09,-133.59"/>
<polygon fill="black" stroke="black" points="501.02,-135.52 502.66,-125.05 494.85,-132.22 501.02,-135.52"/>
<text text-anchor="middle" x="503.75" y="-189.95" font-family="Times,serif" font-size="14.00">is sub of</text>
</g>
<!-- 36&#45;&gt;27 -->
<g id="edge2" class="edge">
<title>36&#45;&gt;27</title>
<path fill="none" stroke="black" d="M553.6,-177.73C546.4,-165.29 536.34,-147.88 528.03,-133.51"/>
<polygon fill="black" stroke="black" points="531.15,-131.91 523.12,-125.01 525.09,-135.42 531.15,-131.91"/>
<text text-anchor="middle" x="565.73" y="-145.7" font-family="Times,serif" font-size="14.00">is sub of</text>
</g>
<!-- 26 -->
<g id="node10" class="node">
<title>26</title>
<ellipse fill="none" stroke="green" cx="513" cy="-18" rx="27" ry="18"/>
<text text-anchor="middle" x="513" y="-12.95" font-family="Times,serif" font-size="14.00">26</text>
</g>
<!-- 27&#45;&gt;26 -->
<g id="edge3" class="edge">
<title>27&#45;&gt;26</title>
<path fill="none" stroke="black" d="M513,-88.41C513,-76.76 513,-61.05 513,-47.52"/>
<polygon fill="black" stroke="black" points="516.5,-47.86 513,-37.86 509.5,-47.86 516.5,-47.86"/>
<text text-anchor="middle" x="541.5" y="-57.2" font-family="Times,serif" font-size="14.00">is super of</text>
</g>
<!-- 57 -->
<g id="node11" class="node">
<title>57</title>
<ellipse fill="none" stroke="red" cx="565" cy="-372" rx="27" ry="18"/>
<text text-anchor="middle" x="565" y="-366.95" font-family="Times,serif" font-size="14.00">57</text>
</g>
<!-- 59 -->
<g id="node12" class="node">
<title>59</title>
<ellipse fill="none" stroke="red" cx="459" cy="-372" rx="27" ry="18"/>
<text text-anchor="middle" x="459" y="-366.95" font-family="Times,serif" font-size="14.00">59</text>
</g>
<!-- 59&#45;&gt;27 -->
<g id="edge8" class="edge">
<title>59&#45;&gt;27</title>
<path fill="none" stroke="black" d="M448.73,-354.92C433.36,-328.75 407.58,-275.42 421.5,-231 434.24,-190.36 466.66,-152.39 489.27,-129.56"/>
<polygon fill="black" stroke="black" points="491.63,-132.14 496.31,-122.63 486.73,-127.15 491.63,-132.14"/>
<text text-anchor="middle" x="444.75" y="-234.2" font-family="Times,serif" font-size="14.00">is sub of</text>
</g>
<!-- 54 -->
<g id="node13" class="node">
<title>54</title>
<ellipse fill="none" stroke="blue" cx="546" cy="-283.5" rx="27" ry="18"/>
<text text-anchor="middle" x="546" y="-278.45" font-family="Times,serif" font-size="14.00">54</text>
</g>
<!-- 59&#45;&gt;54 -->
<g id="edge5" class="edge">
<title>59&#45;&gt;54</title>
<path fill="none" stroke="black" d="M473.37,-356.72C487.01,-343.15 507.73,-322.55 523.56,-306.81"/>
<polygon fill="black" stroke="black" points="525.62,-309.69 530.25,-300.16 520.69,-304.73 525.62,-309.69"/>
<text text-anchor="middle" x="533.54" y="-322.7" font-family="Times,serif" font-size="14.00">is sub of</text>
</g>
<!-- 54&#45;&gt;36 -->
<g id="edge6" class="edge">
<title>54&#45;&gt;36</title>
<path fill="none" stroke="black" d="M544.59,-265.12C544.21,-255.04 544.46,-242.16 547,-231 547.64,-228.21 548.51,-225.37 549.52,-222.58"/>
<polygon fill="black" stroke="black" points="552.63,-224.21 553.31,-213.64 546.18,-221.48 552.63,-224.21"/>
<text text-anchor="middle" x="575.5" y="-234.2" font-family="Times,serif" font-size="14.00">is super of</text>
</g>
<!-- 54&#45;&gt;27 -->
<g id="edge7" class="edge">
<title>54&#45;&gt;27</title>
<path fill="none" stroke="black" d="M567.51,-272.34C582.25,-264.89 599.87,-254.82 604,-247.5 627.07,-206.64 621.96,-179.42 593,-142.5 582.38,-128.97 565.46,-120.56 549.91,-115.38"/>
<polygon fill="black" stroke="black" points="550.97,-112.05 540.39,-112.59 549,-118.76 550.97,-112.05"/>
</g>
<!-- 67 -->
<g id="node14" class="node">
<title>67</title>
<ellipse fill="none" stroke="red" cx="654" cy="-372" rx="27" ry="18"/>
<text text-anchor="middle" x="654" y="-366.95" font-family="Times,serif" font-size="14.00">67</text>
</g>
<!-- 65 -->
<g id="node15" class="node">
<title>65</title>
<ellipse fill="none" stroke="green" cx="619" cy="-283.5" rx="27" ry="18"/>
<text text-anchor="middle" x="619" y="-278.45" font-family="Times,serif" font-size="14.00">65</text>
</g>
<!-- 67&#45;&gt;65 -->
<g id="edge9" class="edge">
<title>67&#45;&gt;65</title>
<path fill="none" stroke="black" d="M636.87,-357.83C630.52,-351.92 624.01,-344.38 620.5,-336 617.55,-328.96 616.41,-320.89 616.18,-313.27"/>
<polygon fill="black" stroke="black" points="619.68,-313.45 616.43,-303.36 612.68,-313.27 619.68,-313.45"/>
<text text-anchor="middle" x="643.75" y="-322.7" font-family="Times,serif" font-size="14.00">is sub of</text>
</g>
<!-- 13 -->
<g id="node16" class="node">
<title>13</title>
<ellipse fill="none" stroke="green" cx="726" cy="-283.5" rx="27" ry="18"/>
<text text-anchor="middle" x="726" y="-278.45" font-family="Times,serif" font-size="14.00">13</text>
</g>
<!-- 67&#45;&gt;13 -->
<g id="edge10" class="edge">
<title>67&#45;&gt;13</title>
<path fill="none" stroke="black" d="M662.39,-354.85C668.28,-344.27 676.73,-330.41 686,-319.5 690.18,-314.58 695.07,-309.73 699.96,-305.28"/>
<polygon fill="black" stroke="black" points="702.2,-307.97 707.47,-298.78 697.62,-302.67 702.2,-307.97"/>
<text text-anchor="middle" x="714.5" y="-322.7" font-family="Times,serif" font-size="14.00">is super of</text>
</g>
<!-- 77 -->
<g id="node17" class="node">
<title>77</title>
<ellipse fill="none" stroke="red" cx="761" cy="-372" rx="27" ry="18"/>
<text text-anchor="middle" x="761" y="-366.95" font-family="Times,serif" font-size="14.00">77</text>
</g>
<!-- 77&#45;&gt;13 -->
<g id="edge11" class="edge">
<title>77&#45;&gt;13</title>
<path fill="none" stroke="black" d="M757.6,-353.91C755.26,-343.69 751.72,-330.58 747,-319.5 745.7,-316.44 744.17,-313.33 742.54,-310.29"/>
<polygon fill="black" stroke="black" points="745.6,-308.59 737.55,-301.7 739.54,-312.1 745.6,-308.59"/>
</g>
<!-- 91 -->
<g id="node18" class="node">
<title>91</title>
<ellipse fill="none" stroke="red" cx="833" cy="-372" rx="27" ry="18"/>
<text text-anchor="middle" x="833" y="-366.95" font-family="Times,serif" font-size="14.00">91</text>
</g>
<!-- 92 -->
<g id="node19" class="node">
<title>92</title>
<ellipse fill="none" stroke="red" cx="905" cy="-372" rx="27" ry="18"/>
<text text-anchor="middle" x="905" y="-366.95" font-family="Times,serif" font-size="14.00">92</text>
</g>
<!-- 93 -->
<g id="node20" class="node">
<title>93</title>
<ellipse fill="none" stroke="green" cx="905" cy="-283.5" rx="27" ry="18"/>
<text text-anchor="middle" x="905" y="-278.45" font-family="Times,serif" font-size="14.00">93</text>
</g>
<!-- 92&#45;&gt;93 -->
<g id="edge12" class="edge">
<title>92&#45;&gt;93</title>
<path fill="none" stroke="black" d="M905,-353.91C905,-342.26 905,-326.55 905,-313.02"/>
<polygon fill="black" stroke="black" points="908.5,-313.36 905,-303.36 901.5,-313.36 908.5,-313.36"/>
<text text-anchor="middle" x="933.5" y="-322.7" font-family="Times,serif" font-size="14.00">is super of</text>
</g>
<!-- 107 -->
<g id="node21" class="node">
<title>107</title>
<ellipse fill="none" stroke="red" cx="985" cy="-372" rx="27" ry="18"/>
<text text-anchor="middle" x="985" y="-366.95" font-family="Times,serif" font-size="14.00">107</text>
</g>
<!-- 96 -->
<g id="node22" class="node">
<title>96</title>
<ellipse fill="none" stroke="green" cx="985" cy="-283.5" rx="27" ry="18"/>
<text text-anchor="middle" x="985" y="-278.45" font-family="Times,serif" font-size="14.00">96</text>
</g>
<!-- 107&#45;&gt;96 -->
<g id="edge13" class="edge">
<title>107&#45;&gt;96</title>
<path fill="none" stroke="black" d="M985,-353.91C985,-342.26 985,-326.55 985,-313.02"/>
<polygon fill="black" stroke="black" points="988.5,-313.36 985,-303.36 981.5,-313.36 988.5,-313.36"/>
<text text-anchor="middle" x="1008.25" y="-322.7" font-family="Times,serif" font-size="14.00">is sub of</text>
</g>
</g>
</svg>
