<?xml version="1.0" encoding="UTF-8" standalone="no"?>
<!DOCTYPE svg PUBLIC "-//W3C//DTD SVG 1.1//EN"
 "http://www.w3.org/Graphics/SVG/1.1/DTD/svg11.dtd">
<!-- Generated by graphviz version 12.1.0 (20240811.2233)
 -->
<!-- Pages: 1 -->
<svg width="961pt" height="383pt"
 viewBox="0.00 0.00 961.00 382.50" xmlns="http://www.w3.org/2000/svg" xmlns:xlink="http://www.w3.org/1999/xlink">
<g id="graph0" class="graph" transform="scale(1 1) rotate(0) translate(4 378.5)">
<polygon fill="white" stroke="none" points="-4,4 -4,-378.5 957,-378.5 957,4 -4,4"/>
<!-- 6 -->
<g id="node1" class="node">
<title>6</title>
<ellipse fill="none" stroke="red" cx="27" cy="-356.5" rx="27" ry="18"/>
<text text-anchor="middle" x="27" y="-351.45" font-family="Times,serif" font-size="14.00">6</text>
</g>
<!-- 4 -->
<g id="node2" class="node">
<title>4</title>
<ellipse fill="none" stroke="green" cx="27" cy="-268" rx="27" ry="18"/>
<text text-anchor="middle" x="27" y="-262.95" font-family="Times,serif" font-size="14.00">4</text>
</g>
<!-- 6&#45;&gt;4 -->
<g id="edge1" class="edge">
<title>6&#45;&gt;4</title>
<path fill="none" stroke="black" d="M27,-338.41C27,-326.76 27,-311.05 27,-297.52"/>
<polygon fill="black" stroke="black" points="30.5,-297.86 27,-287.86 23.5,-297.86 30.5,-297.86"/>
</g>
<!-- 10 -->
<g id="node3" class="node">
<title>10</title>
<ellipse fill="none" stroke="red" cx="99" cy="-356.5" rx="27" ry="18"/>
<text text-anchor="middle" x="99" y="-351.45" font-family="Times,serif" font-size="14.00">10</text>
</g>
<!-- 11 -->
<g id="node4" class="node">
<title>11</title>
<ellipse fill="none" stroke="blue" cx="99" cy="-268" rx="27" ry="18"/>
<text text-anchor="middle" x="99" y="-262.95" font-family="Times,serif" font-size="14.00">11</text>
</g>
<!-- 10&#45;&gt;11 -->
<g id="edge2" class="edge">
<title>10&#45;&gt;11</title>
<path fill="none" stroke="black" d="M99,-338.41C99,-326.76 99,-311.05 99,-297.52"/>
<polygon fill="black" stroke="black" points="102.5,-297.86 99,-287.86 95.5,-297.86 102.5,-297.86"/>
</g>
<!-- 12 -->
<g id="node5" class="node">
<title>12</title>
<ellipse fill="none" stroke="blue" cx="72" cy="-179.5" rx="27" ry="18"/>
<text text-anchor="middle" x="72" y="-174.45" font-family="Times,serif" font-size="14.00">12</text>
</g>
<!-- 11&#45;&gt;12 -->
<g id="edge3" class="edge">
<title>11&#45;&gt;12</title>
<path fill="none" stroke="black" d="M93.67,-249.91C89.97,-238.06 84.96,-222.02 80.69,-208.34"/>
<polygon fill="black" stroke="black" points="84.09,-207.5 77.77,-199 77.41,-209.59 84.09,-207.5"/>
</g>
<!-- 13 -->
<g id="node6" class="node">
<title>13</title>
<ellipse fill="none" stroke="green" cx="125" cy="-91" rx="27" ry="18"/>
<text text-anchor="middle" x="125" y="-85.95" font-family="Times,serif" font-size="14.00">13</text>
</g>
<!-- 11&#45;&gt;13 -->
<g id="edge5" class="edge">
<title>11&#45;&gt;13</title>
<path fill="none" stroke="black" d="M101.54,-249.9C106.01,-219.84 115.31,-157.25 120.76,-120.54"/>
<polygon fill="black" stroke="black" points="124.22,-121.07 122.23,-110.66 117.3,-120.04 124.22,-121.07"/>
</g>
<!-- 12&#45;&gt;13 -->
<g id="edge4" class="edge">
<title>12&#45;&gt;13</title>
<path fill="none" stroke="black" d="M81.72,-162.63C89.44,-150.03 100.39,-132.16 109.35,-117.55"/>
<polygon fill="black" stroke="black" points="112.13,-119.7 114.37,-109.35 106.16,-116.05 112.13,-119.7"/>
</g>
<!-- 14 -->
<g id="node7" class="node">
<title>14</title>
<ellipse fill="none" stroke="red" cx="287" cy="-179.5" rx="27" ry="18"/>
<text text-anchor="middle" x="287" y="-174.45" font-family="Times,serif" font-size="14.00">14</text>
</g>
<!-- 14&#45;&gt;13 -->
<g id="edge6" class="edge">
<title>14&#45;&gt;13</title>
<path fill="none" stroke="black" d="M280.3,-162C274.72,-150.39 265.64,-135.47 253,-127 218.39,-103.81 200.59,-122 161,-109 159.44,-108.49 157.86,-107.92 156.28,-107.32"/>
<polygon fill="black" stroke="black" points="157.93,-104.22 147.36,-103.55 155.21,-110.67 157.93,-104.22"/>
<text text-anchor="middle" x="292.68" y="-130.2" font-family="Times,serif" font-size="14.00">is sub of</text>
</g>
<!-- 15 -->
<g id="node8" class="node">
<title>15</title>
<ellipse fill="none" stroke="green" cx="354" cy="-91" rx="27" ry="18"/>
<text text-anchor="middle" x="354" y="-85.95" font-family="Times,serif" font-size="14.00">15</text>
</g>
<!-- 14&#45;&gt;15 -->
<g id="edge7" class="edge">
<title>14&#45;&gt;15</title>
<path fill="none" stroke="black" d="M302.96,-164.66C309.56,-158.53 317.04,-151.01 323,-143.5 329.11,-135.8 334.92,-126.79 339.83,-118.48"/>
<polygon fill="black" stroke="black" points="342.87,-120.22 344.76,-109.79 336.78,-116.76 342.87,-120.22"/>
</g>
<!-- 16 -->
<g id="node9" class="node">
<title>16</title>
<ellipse fill="none" stroke="red" cx="370" cy="-179.5" rx="27" ry="18"/>
<text text-anchor="middle" x="370" y="-174.45" font-family="Times,serif" font-size="14.00">16</text>
</g>
<!-- 16&#45;&gt;15 -->
<g id="edge8" class="edge">
<title>16&#45;&gt;15</title>
<path fill="none" stroke="black" d="M366.84,-161.41C364.68,-149.76 361.78,-134.05 359.28,-120.52"/>
<polygon fill="black" stroke="black" points="362.75,-120.04 357.48,-110.84 355.86,-121.31 362.75,-120.04"/>
<text text-anchor="middle" x="386.68" y="-130.2" font-family="Times,serif" font-size="14.00">is sub of</text>
</g>
<!-- 22 -->
<g id="node10" class="node">
<title>22</title>
<ellipse fill="none" stroke="red" cx="283" cy="-356.5" rx="27" ry="18"/>
<text text-anchor="middle" x="283" y="-351.45" font-family="Times,serif" font-size="14.00">22</text>
</g>
<!-- 8 -->
<g id="node11" class="node">
<title>8</title>
<ellipse fill="none" stroke="green" cx="283" cy="-268" rx="27" ry="18"/>
<text text-anchor="middle" x="283" y="-262.95" font-family="Times,serif" font-size="14.00">8</text>
</g>
<!-- 22&#45;&gt;8 -->
<g id="edge9" class="edge">
<title>22&#45;&gt;8</title>
<path fill="none" stroke="black" d="M283,-338.41C283,-326.76 283,-311.05 283,-297.52"/>
<polygon fill="black" stroke="black" points="286.5,-297.86 283,-287.86 279.5,-297.86 286.5,-297.86"/>
<text text-anchor="middle" x="306.25" y="-307.2" font-family="Times,serif" font-size="14.00">is sub of</text>
</g>
<!-- 23 -->
<g id="node12" class="node">
<title>23</title>
<ellipse fill="none" stroke="red" cx="395" cy="-356.5" rx="27" ry="18"/>
<text text-anchor="middle" x="395" y="-351.45" font-family="Times,serif" font-size="14.00">23</text>
</g>
<!-- 3 -->
<g id="node13" class="node">
<title>3</title>
<ellipse fill="none" stroke="green" cx="370" cy="-268" rx="27" ry="18"/>
<text text-anchor="middle" x="370" y="-262.95" font-family="Times,serif" font-size="14.00">3</text>
</g>
<!-- 23&#45;&gt;3 -->
<g id="edge10" class="edge">
<title>23&#45;&gt;3</title>
<path fill="none" stroke="black" d="M390.06,-338.41C386.64,-326.56 382,-310.52 378.05,-296.84"/>
<polygon fill="black" stroke="black" points="381.49,-296.14 375.35,-287.51 374.76,-298.09 381.49,-296.14"/>
</g>
<!-- 25 -->
<g id="node14" class="node">
<title>25</title>
<ellipse fill="none" stroke="blue" cx="442" cy="-268" rx="27" ry="18"/>
<text text-anchor="middle" x="442" y="-262.95" font-family="Times,serif" font-size="14.00">25</text>
</g>
<!-- 23&#45;&gt;25 -->
<g id="edge11" class="edge">
<title>23&#45;&gt;25</title>
<path fill="none" stroke="black" d="M403.84,-339.23C410.6,-326.79 420.06,-309.38 427.87,-295.01"/>
<polygon fill="black" stroke="black" points="430.78,-296.98 432.48,-286.53 424.63,-293.64 430.78,-296.98"/>
</g>
<!-- 26 -->
<g id="node15" class="node">
<title>26</title>
<ellipse fill="none" stroke="green" cx="514" cy="-179.5" rx="27" ry="18"/>
<text text-anchor="middle" x="514" y="-174.45" font-family="Times,serif" font-size="14.00">26</text>
</g>
<!-- 25&#45;&gt;26 -->
<g id="edge12" class="edge">
<title>25&#45;&gt;26</title>
<path fill="none" stroke="black" d="M454.54,-251.93C465.52,-238.74 481.66,-219.36 494.35,-204.11"/>
<polygon fill="black" stroke="black" points="496.68,-206.77 500.39,-196.85 491.3,-202.29 496.68,-206.77"/>
<text text-anchor="middle" x="512.95" y="-218.7" font-family="Times,serif" font-size="14.00">is super of</text>
</g>
<!-- 31 -->
<g id="node16" class="node">
<title>31</title>
<ellipse fill="none" stroke="blue" cx="442" cy="-179.5" rx="27" ry="18"/>
<text text-anchor="middle" x="442" y="-174.45" font-family="Times,serif" font-size="14.00">31</text>
</g>
<!-- 25&#45;&gt;31 -->
<g id="edge13" class="edge">
<title>25&#45;&gt;31</title>
<path fill="none" stroke="black" d="M442,-249.91C442,-238.26 442,-222.55 442,-209.02"/>
<polygon fill="black" stroke="black" points="445.5,-209.36 442,-199.36 438.5,-209.36 445.5,-209.36"/>
</g>
<!-- 32 -->
<g id="node17" class="node">
<title>32</title>
<ellipse fill="none" stroke="green" cx="574" cy="-91" rx="27" ry="18"/>
<text text-anchor="middle" x="574" y="-85.95" font-family="Times,serif" font-size="14.00">32</text>
</g>
<!-- 31&#45;&gt;32 -->
<g id="edge14" class="edge">
<title>31&#45;&gt;32</title>
<path fill="none" stroke="black" d="M460.91,-166.11C483.06,-151.59 519.99,-127.4 545.59,-110.62"/>
<polygon fill="black" stroke="black" points="547.41,-113.61 553.86,-105.2 543.57,-107.75 547.41,-113.61"/>
</g>
<!-- 24 -->
<g id="node18" class="node">
<title>24</title>
<ellipse fill="none" stroke="red" cx="189" cy="-268" rx="27" ry="18"/>
<text text-anchor="middle" x="189" y="-262.95" font-family="Times,serif" font-size="14.00">24</text>
</g>
<!-- 28 -->
<g id="node19" class="node">
<title>28</title>
<ellipse fill="none" stroke="blue" cx="189" cy="-179.5" rx="27" ry="18"/>
<text text-anchor="middle" x="189" y="-174.45" font-family="Times,serif" font-size="14.00">28</text>
</g>
<!-- 24&#45;&gt;28 -->
<g id="edge15" class="edge">
<title>24&#45;&gt;28</title>
<path fill="none" stroke="black" d="M189,-249.91C189,-238.26 189,-222.55 189,-209.02"/>
<polygon fill="black" stroke="black" points="192.5,-209.36 189,-199.36 185.5,-209.36 192.5,-209.36"/>
</g>
<!-- 28&#45;&gt;13 -->
<g id="edge17" class="edge">
<title>28&#45;&gt;13</title>
<path fill="none" stroke="black" d="M177.56,-163.04C168.06,-150.2 154.37,-131.7 143.35,-116.8"/>
<polygon fill="black" stroke="black" points="146.22,-114.8 137.46,-108.84 140.59,-118.96 146.22,-114.8"/>
</g>
<!-- 29 -->
<g id="node20" class="node">
<title>29</title>
<ellipse fill="none" stroke="green" cx="197" cy="-91" rx="27" ry="18"/>
<text text-anchor="middle" x="197" y="-85.95" font-family="Times,serif" font-size="14.00">29</text>
</g>
<!-- 28&#45;&gt;29 -->
<g id="edge16" class="edge">
<title>28&#45;&gt;29</title>
<path fill="none" stroke="black" d="M190.58,-161.41C191.66,-149.76 193.11,-134.05 194.36,-120.52"/>
<polygon fill="black" stroke="black" points="197.82,-121.14 195.26,-110.86 190.85,-120.49 197.82,-121.14"/>
<text text-anchor="middle" x="222.22" y="-130.2" font-family="Times,serif" font-size="14.00">is super of</text>
</g>
<!-- 33 -->
<g id="node21" class="node">
<title>33</title>
<ellipse fill="none" stroke="red" cx="669" cy="-179.5" rx="27" ry="18"/>
<text text-anchor="middle" x="669" y="-174.45" font-family="Times,serif" font-size="14.00">33</text>
</g>
<!-- 33&#45;&gt;32 -->
<g id="edge18" class="edge">
<title>33&#45;&gt;32</title>
<path fill="none" stroke="black" d="M649.45,-166.61C639.71,-160.28 628.02,-152.06 618.5,-143.5 609.37,-135.29 600.32,-125.26 592.79,-116.24"/>
<polygon fill="black" stroke="black" points="595.52,-114.06 586.51,-108.5 590.09,-118.47 595.52,-114.06"/>
<text text-anchor="middle" x="641.75" y="-130.2" font-family="Times,serif" font-size="14.00">is sub of</text>
</g>
<!-- 34 -->
<g id="node22" class="node">
<title>34</title>
<ellipse fill="none" stroke="blue" cx="669" cy="-91" rx="27" ry="18"/>
<text text-anchor="middle" x="669" y="-85.95" font-family="Times,serif" font-size="14.00">34</text>
</g>
<!-- 33&#45;&gt;34 -->
<g id="edge19" class="edge">
<title>33&#45;&gt;34</title>
<path fill="none" stroke="black" d="M669,-161.41C669,-149.76 669,-134.05 669,-120.52"/>
<polygon fill="black" stroke="black" points="672.5,-120.86 669,-110.86 665.5,-120.86 672.5,-120.86"/>
</g>
<!-- 35 -->
<g id="node23" class="node">
<title>35</title>
<ellipse fill="none" stroke="green" cx="669" cy="-18" rx="27" ry="18"/>
<text text-anchor="middle" x="669" y="-12.95" font-family="Times,serif" font-size="14.00">35</text>
</g>
<!-- 34&#45;&gt;35 -->
<g id="edge20" class="edge">
<title>34&#45;&gt;35</title>
<path fill="none" stroke="black" d="M669,-72.81C669,-65.23 669,-56.1 669,-47.54"/>
<polygon fill="black" stroke="black" points="672.5,-47.54 669,-37.54 665.5,-47.54 672.5,-47.54"/>
</g>
<!-- 42 -->
<g id="node24" class="node">
<title>42</title>
<ellipse fill="none" stroke="red" cx="548" cy="-356.5" rx="27" ry="18"/>
<text text-anchor="middle" x="548" y="-351.45" font-family="Times,serif" font-size="14.00">42</text>
</g>
<!-- 9 -->
<g id="node25" class="node">
<title>9</title>
<ellipse fill="none" stroke="green" cx="514" cy="-268" rx="27" ry="18"/>
<text text-anchor="middle" x="514" y="-262.95" font-family="Times,serif" font-size="14.00">9</text>
</g>
<!-- 42&#45;&gt;9 -->
<g id="edge21" class="edge">
<title>42&#45;&gt;9</title>
<path fill="none" stroke="black" d="M533.7,-340.98C528.72,-335.08 523.6,-327.92 520.5,-320.5 517.54,-313.41 515.83,-305.32 514.86,-297.69"/>
<polygon fill="black" stroke="black" points="518.36,-297.47 514.02,-287.8 511.38,-298.06 518.36,-297.47"/>
<text text-anchor="middle" x="543.75" y="-307.2" font-family="Times,serif" font-size="14.00">is sub of</text>
</g>
<!-- 43 -->
<g id="node26" class="node">
<title>43</title>
<ellipse fill="none" stroke="blue" cx="586" cy="-268" rx="27" ry="18"/>
<text text-anchor="middle" x="586" y="-262.95" font-family="Times,serif" font-size="14.00">43</text>
</g>
<!-- 42&#45;&gt;43 -->
<g id="edge22" class="edge">
<title>42&#45;&gt;43</title>
<path fill="none" stroke="black" d="M557.39,-339.37C560.62,-333.52 564.15,-326.8 567,-320.5 570.44,-312.92 573.74,-304.51 576.6,-296.73"/>
<polygon fill="black" stroke="black" points="579.88,-297.97 579.93,-287.37 573.28,-295.62 579.88,-297.97"/>
</g>
<!-- 52 -->
<g id="node27" class="node">
<title>52</title>
<ellipse fill="none" stroke="blue" cx="586" cy="-179.5" rx="27" ry="18"/>
<text text-anchor="middle" x="586" y="-174.45" font-family="Times,serif" font-size="14.00">52</text>
</g>
<!-- 43&#45;&gt;52 -->
<g id="edge23" class="edge">
<title>43&#45;&gt;52</title>
<path fill="none" stroke="black" d="M586,-249.91C586,-238.26 586,-222.55 586,-209.02"/>
<polygon fill="black" stroke="black" points="589.5,-209.36 586,-199.36 582.5,-209.36 589.5,-209.36"/>
</g>
<!-- 52&#45;&gt;32 -->
<g id="edge24" class="edge">
<title>52&#45;&gt;32</title>
<path fill="none" stroke="black" d="M583.63,-161.41C582.01,-149.76 579.83,-134.05 577.96,-120.52"/>
<polygon fill="black" stroke="black" points="581.46,-120.27 576.61,-110.85 574.52,-121.24 581.46,-120.27"/>
</g>
<!-- 44 -->
<g id="node28" class="node">
<title>44</title>
<ellipse fill="none" stroke="red" cx="782" cy="-356.5" rx="27" ry="18"/>
<text text-anchor="middle" x="782" y="-351.45" font-family="Times,serif" font-size="14.00">44</text>
</g>
<!-- 46 -->
<g id="node29" class="node">
<title>46</title>
<ellipse fill="none" stroke="blue" cx="782" cy="-268" rx="27" ry="18"/>
<text text-anchor="middle" x="782" y="-262.95" font-family="Times,serif" font-size="14.00">46</text>
</g>
<!-- 44&#45;&gt;46 -->
<g id="edge25" class="edge">
<title>44&#45;&gt;46</title>
<path fill="none" stroke="black" d="M782,-338.41C782,-326.76 782,-311.05 782,-297.52"/>
<polygon fill="black" stroke="black" points="785.5,-297.86 782,-287.86 778.5,-297.86 785.5,-297.86"/>
</g>
<!-- 47 -->
<g id="node30" class="node">
<title>47</title>
<ellipse fill="none" stroke="blue" cx="741" cy="-179.5" rx="27" ry="18"/>
<text text-anchor="middle" x="741" y="-174.45" font-family="Times,serif" font-size="14.00">47</text>
</g>
<!-- 46&#45;&gt;47 -->
<g id="edge26" class="edge">
<title>46&#45;&gt;47</title>
<path fill="none" stroke="black" d="M774.09,-250.32C768.31,-238.12 760.34,-221.3 753.67,-207.23"/>
<polygon fill="black" stroke="black" points="756.98,-206.03 749.53,-198.49 750.65,-209.03 756.98,-206.03"/>
</g>
<!-- 49 -->
<g id="node32" class="node">
<title>49</title>
<ellipse fill="none" stroke="green" cx="776" cy="-18" rx="27" ry="18"/>
<text text-anchor="middle" x="776" y="-12.95" font-family="Times,serif" font-size="14.00">49</text>
</g>
<!-- 46&#45;&gt;49 -->
<g id="edge29" class="edge">
<title>46&#45;&gt;49</title>
<path fill="none" stroke="black" d="M781.58,-249.56C780.56,-207.41 777.95,-99.63 776.7,-47.76"/>
<polygon fill="black" stroke="black" points="780.2,-47.85 776.46,-37.93 773.2,-48.01 780.2,-47.85"/>
</g>
<!-- 48 -->
<g id="node31" class="node">
<title>48</title>
<ellipse fill="none" stroke="blue" cx="741" cy="-91" rx="27" ry="18"/>
<text text-anchor="middle" x="741" y="-85.95" font-family="Times,serif" font-size="14.00">48</text>
</g>
<!-- 47&#45;&gt;48 -->
<g id="edge27" class="edge">
<title>47&#45;&gt;48</title>
<path fill="none" stroke="black" d="M741,-161.41C741,-149.76 741,-134.05 741,-120.52"/>
<polygon fill="black" stroke="black" points="744.5,-120.86 741,-110.86 737.5,-120.86 744.5,-120.86"/>
</g>
<!-- 48&#45;&gt;49 -->
<g id="edge28" class="edge">
<title>48&#45;&gt;49</title>
<path fill="none" stroke="black" d="M749.12,-73.53C753.23,-65.2 758.31,-54.88 762.95,-45.47"/>
<polygon fill="black" stroke="black" points="765.97,-47.25 767.26,-36.74 759.7,-44.16 765.97,-47.25"/>
</g>
<!-- 27 -->
<g id="node33" class="node">
<title>27</title>
<ellipse fill="none" stroke="green" cx="854" cy="-356.5" rx="27" ry="18"/>
<text text-anchor="middle" x="854" y="-351.45" font-family="Times,serif" font-size="14.00">27</text>
</g>
<!-- 45 -->
<g id="node34" class="node">
<title>45</title>
<ellipse fill="none" stroke="green" cx="926" cy="-356.5" rx="27" ry="18"/>
<text text-anchor="middle" x="926" y="-351.45" font-family="Times,serif" font-size="14.00">45</text>
</g>
</g>
</svg>
