<?xml version="1.0" encoding="UTF-8" standalone="no"?>
<!DOCTYPE svg PUBLIC "-//W3C//DTD SVG 1.1//EN"
 "http://www.w3.org/Graphics/SVG/1.1/DTD/svg11.dtd">
<!-- Generated by graphviz version 12.1.0 (20240811.2233)
 -->
<!-- Pages: 1 -->
<svg width="538pt" height="294pt"
 viewBox="0.00 0.00 538.00 294.00" xmlns="http://www.w3.org/2000/svg" xmlns:xlink="http://www.w3.org/1999/xlink">
<g id="graph0" class="graph" transform="scale(1 1) rotate(0) translate(4 290)">
<polygon fill="white" stroke="none" points="-4,4 -4,-290 534,-290 534,4 -4,4"/>
<!-- 4 -->
<g id="node1" class="node">
<title>4</title>
<ellipse fill="none" stroke="red" cx="27" cy="-268" rx="27" ry="18"/>
<text text-anchor="middle" x="27" y="-262.95" font-family="Times,serif" font-size="14.00">4</text>
</g>
<!-- 8 -->
<g id="node2" class="node">
<title>8</title>
<ellipse fill="none" stroke="red" cx="99" cy="-268" rx="27" ry="18"/>
<text text-anchor="middle" x="99" y="-262.95" font-family="Times,serif" font-size="14.00">8</text>
</g>
<!-- 27 -->
<g id="node3" class="node">
<title>27</title>
<ellipse fill="none" stroke="red" cx="171" cy="-268" rx="27" ry="18"/>
<text text-anchor="middle" x="171" y="-262.95" font-family="Times,serif" font-size="14.00">27</text>
</g>
<!-- 29 -->
<g id="node4" class="node">
<title>29</title>
<ellipse fill="none" stroke="red" cx="171" cy="-179.5" rx="27" ry="18"/>
<text text-anchor="middle" x="171" y="-174.45" font-family="Times,serif" font-size="14.00">29</text>
</g>
<!-- 13 -->
<g id="node5" class="node">
<title>13</title>
<ellipse fill="none" stroke="green" cx="202" cy="-91" rx="27" ry="18"/>
<text text-anchor="middle" x="202" y="-85.95" font-family="Times,serif" font-size="14.00">13</text>
</g>
<!-- 29&#45;&gt;13 -->
<g id="edge1" class="edge">
<title>29&#45;&gt;13</title>
<path fill="none" stroke="black" d="M169.19,-161.25C168.76,-150.98 169.34,-137.87 173.5,-127 175.05,-122.96 177.26,-119.03 179.77,-115.35"/>
<polygon fill="black" stroke="black" points="182.51,-117.53 185.94,-107.51 177.01,-113.2 182.51,-117.53"/>
<text text-anchor="middle" x="196.75" y="-130.2" font-family="Times,serif" font-size="14.00">is sub of</text>
</g>
<!-- 35 -->
<g id="node6" class="node">
<title>35</title>
<ellipse fill="none" stroke="red" cx="359" cy="-268" rx="27" ry="18"/>
<text text-anchor="middle" x="359" y="-262.95" font-family="Times,serif" font-size="14.00">35</text>
</g>
<!-- 32 -->
<g id="node7" class="node">
<title>32</title>
<ellipse fill="none" stroke="blue" cx="359" cy="-179.5" rx="27" ry="18"/>
<text text-anchor="middle" x="359" y="-174.45" font-family="Times,serif" font-size="14.00">32</text>
</g>
<!-- 35&#45;&gt;32 -->
<g id="edge2" class="edge">
<title>35&#45;&gt;32</title>
<path fill="none" stroke="black" d="M359,-249.91C359,-238.26 359,-222.55 359,-209.02"/>
<polygon fill="black" stroke="black" points="362.5,-209.36 359,-199.36 355.5,-209.36 362.5,-209.36"/>
</g>
<!-- 26 -->
<g id="node8" class="node">
<title>26</title>
<ellipse fill="none" stroke="blue" cx="304" cy="-91" rx="27" ry="18"/>
<text text-anchor="middle" x="304" y="-85.95" font-family="Times,serif" font-size="14.00">26</text>
</g>
<!-- 32&#45;&gt;26 -->
<g id="edge3" class="edge">
<title>32&#45;&gt;26</title>
<path fill="none" stroke="black" d="M348.91,-162.63C340.9,-150.03 329.54,-132.16 320.25,-117.55"/>
<polygon fill="black" stroke="black" points="323.34,-115.9 315.02,-109.34 317.43,-119.65 323.34,-115.9"/>
</g>
<!-- 3 -->
<g id="node9" class="node">
<title>3</title>
<ellipse fill="none" stroke="green" cx="331" cy="-18" rx="27" ry="18"/>
<text text-anchor="middle" x="331" y="-12.95" font-family="Times,serif" font-size="14.00">3</text>
</g>
<!-- 32&#45;&gt;3 -->
<g id="edge6" class="edge">
<title>32&#45;&gt;3</title>
<path fill="none" stroke="black" d="M355.95,-161.13C351.15,-133.8 341.8,-80.5 336,-47.5"/>
<polygon fill="black" stroke="black" points="339.48,-47.09 334.31,-37.84 332.59,-48.3 339.48,-47.09"/>
</g>
<!-- 9 -->
<g id="node10" class="node">
<title>9</title>
<ellipse fill="none" stroke="green" cx="414" cy="-91" rx="27" ry="18"/>
<text text-anchor="middle" x="414" y="-85.95" font-family="Times,serif" font-size="14.00">9</text>
</g>
<!-- 32&#45;&gt;9 -->
<g id="edge5" class="edge">
<title>32&#45;&gt;9</title>
<path fill="none" stroke="black" d="M369.09,-162.63C377.1,-150.03 388.46,-132.16 397.75,-117.55"/>
<polygon fill="black" stroke="black" points="400.57,-119.65 402.98,-109.34 394.66,-115.9 400.57,-119.65"/>
<text text-anchor="middle" x="414.68" y="-130.2" font-family="Times,serif" font-size="14.00">is sub of</text>
</g>
<!-- 26&#45;&gt;3 -->
<g id="edge4" class="edge">
<title>26&#45;&gt;3</title>
<path fill="none" stroke="black" d="M310.4,-73.17C313.46,-65.13 317.2,-55.29 320.65,-46.22"/>
<polygon fill="black" stroke="black" points="323.83,-47.71 324.11,-37.12 317.28,-45.22 323.83,-47.71"/>
</g>
<!-- 45 -->
<g id="node11" class="node">
<title>45</title>
<ellipse fill="none" stroke="red" cx="431" cy="-268" rx="27" ry="18"/>
<text text-anchor="middle" x="431" y="-262.95" font-family="Times,serif" font-size="14.00">45</text>
</g>
<!-- 49 -->
<g id="node12" class="node">
<title>49</title>
<ellipse fill="none" stroke="red" cx="503" cy="-268" rx="27" ry="18"/>
<text text-anchor="middle" x="503" y="-262.95" font-family="Times,serif" font-size="14.00">49</text>
</g>
<!-- 16 -->
<g id="node13" class="node">
<title>16</title>
<ellipse fill="none" stroke="red" cx="243" cy="-268" rx="27" ry="18"/>
<text text-anchor="middle" x="243" y="-262.95" font-family="Times,serif" font-size="14.00">16</text>
</g>
<!-- 15 -->
<g id="node14" class="node">
<title>15</title>
<ellipse fill="none" stroke="blue" cx="243" cy="-179.5" rx="27" ry="18"/>
<text text-anchor="middle" x="243" y="-174.45" font-family="Times,serif" font-size="14.00">15</text>
</g>
<!-- 16&#45;&gt;15 -->
<g id="edge7" class="edge">
<title>16&#45;&gt;15</title>
<path fill="none" stroke="black" d="M243,-249.91C243,-238.26 243,-222.55 243,-209.02"/>
<polygon fill="black" stroke="black" points="246.5,-209.36 243,-199.36 239.5,-209.36 246.5,-209.36"/>
<text text-anchor="middle" x="266.25" y="-218.7" font-family="Times,serif" font-size="14.00">is sub of</text>
</g>
<!-- 15&#45;&gt;13 -->
<g id="edge8" class="edge">
<title>15&#45;&gt;13</title>
<path fill="none" stroke="black" d="M235.77,-161.69C231.35,-151.58 225.51,-138.48 220,-127 218.66,-124.21 217.23,-121.31 215.79,-118.43"/>
<polygon fill="black" stroke="black" points="218.96,-116.95 211.3,-109.64 212.73,-120.13 218.96,-116.95"/>
<text text-anchor="middle" x="250.46" y="-130.2" font-family="Times,serif" font-size="14.00">is sub of</text>
</g>
</g>
</svg>
