<?xml version="1.0" encoding="UTF-8" standalone="no"?>
<!DOCTYPE svg PUBLIC "-//W3C//DTD SVG 1.1//EN"
 "http://www.w3.org/Graphics/SVG/1.1/DTD/svg11.dtd">
<!-- Generated by graphviz version 12.1.0 (20240811.2233)
 -->
<!-- Pages: 1 -->
<svg width="1066pt" height="279pt"
 viewBox="0.00 0.00 1066.00 278.50" xmlns="http://www.w3.org/2000/svg" xmlns:xlink="http://www.w3.org/1999/xlink">
<g id="graph0" class="graph" transform="scale(1 1) rotate(0) translate(4 274.5)">
<polygon fill="white" stroke="none" points="-4,4 -4,-274.5 1062,-274.5 1062,4 -4,4"/>
<!-- 3 -->
<g id="node1" class="node">
<title>3</title>
<ellipse fill="none" stroke="red" cx="27" cy="-252.5" rx="27" ry="18"/>
<text text-anchor="middle" x="27" y="-247.45" font-family="Times,serif" font-size="14.00">3</text>
</g>
<!-- 4 -->
<g id="node2" class="node">
<title>4</title>
<ellipse fill="none" stroke="red" cx="99" cy="-252.5" rx="27" ry="18"/>
<text text-anchor="middle" x="99" y="-247.45" font-family="Times,serif" font-size="14.00">4</text>
</g>
<!-- 8 -->
<g id="node3" class="node">
<title>8</title>
<ellipse fill="none" stroke="red" cx="171" cy="-252.5" rx="27" ry="18"/>
<text text-anchor="middle" x="171" y="-247.45" font-family="Times,serif" font-size="14.00">8</text>
</g>
<!-- 15 -->
<g id="node4" class="node">
<title>15</title>
<ellipse fill="none" stroke="red" cx="243" cy="-252.5" rx="27" ry="18"/>
<text text-anchor="middle" x="243" y="-247.45" font-family="Times,serif" font-size="14.00">15</text>
</g>
<!-- 16 -->
<g id="node5" class="node">
<title>16</title>
<ellipse fill="none" stroke="red" cx="315" cy="-252.5" rx="27" ry="18"/>
<text text-anchor="middle" x="315" y="-247.45" font-family="Times,serif" font-size="14.00">16</text>
</g>
<!-- 26 -->
<g id="node6" class="node">
<title>26</title>
<ellipse fill="none" stroke="blue" cx="370" cy="-164" rx="27" ry="18"/>
<text text-anchor="middle" x="370" y="-158.95" font-family="Times,serif" font-size="14.00">26</text>
</g>
<!-- 16&#45;&gt;26 -->
<g id="edge1" class="edge">
<title>16&#45;&gt;26</title>
<path fill="none" stroke="black" d="M325.09,-235.63C333.1,-223.03 344.46,-205.16 353.75,-190.55"/>
<polygon fill="black" stroke="black" points="356.57,-192.65 358.98,-182.34 350.66,-188.9 356.57,-192.65"/>
</g>
<!-- 43 -->
<g id="node7" class="node">
<title>43</title>
<ellipse fill="none" stroke="green" cx="329" cy="-91" rx="27" ry="18"/>
<text text-anchor="middle" x="329" y="-85.95" font-family="Times,serif" font-size="14.00">43</text>
</g>
<!-- 16&#45;&gt;43 -->
<g id="edge3" class="edge">
<title>16&#45;&gt;43</title>
<path fill="none" stroke="black" d="M316.52,-234.13C318.92,-206.8 323.6,-153.5 326.5,-120.5"/>
<polygon fill="black" stroke="black" points="329.96,-121.13 327.34,-110.86 322.98,-120.51 329.96,-121.13"/>
</g>
<!-- 26&#45;&gt;43 -->
<g id="edge2" class="edge">
<title>26&#45;&gt;43</title>
<path fill="none" stroke="black" d="M360.7,-146.89C355.77,-138.36 349.6,-127.67 344.01,-117.99"/>
<polygon fill="black" stroke="black" points="347.06,-116.27 339.02,-109.36 340.99,-119.77 347.06,-116.27"/>
</g>
<!-- 32 -->
<g id="node8" class="node">
<title>32</title>
<ellipse fill="none" stroke="red" cx="497" cy="-252.5" rx="27" ry="18"/>
<text text-anchor="middle" x="497" y="-247.45" font-family="Times,serif" font-size="14.00">32</text>
</g>
<!-- 36 -->
<g id="node9" class="node">
<title>36</title>
<ellipse fill="none" stroke="blue" cx="442" cy="-164" rx="27" ry="18"/>
<text text-anchor="middle" x="442" y="-158.95" font-family="Times,serif" font-size="14.00">36</text>
</g>
<!-- 32&#45;&gt;36 -->
<g id="edge4" class="edge">
<title>32&#45;&gt;36</title>
<path fill="none" stroke="black" d="M486.91,-235.63C478.9,-223.03 467.54,-205.16 458.25,-190.55"/>
<polygon fill="black" stroke="black" points="461.34,-188.9 453.02,-182.34 455.43,-192.65 461.34,-188.9"/>
</g>
<!-- 38 -->
<g id="node10" class="node">
<title>38</title>
<ellipse fill="none" stroke="green" cx="477" cy="-91" rx="27" ry="18"/>
<text text-anchor="middle" x="477" y="-85.95" font-family="Times,serif" font-size="14.00">38</text>
</g>
<!-- 32&#45;&gt;38 -->
<g id="edge6" class="edge">
<title>32&#45;&gt;38</title>
<path fill="none" stroke="black" d="M494.82,-234.13C491.4,-206.8 484.71,-153.5 480.57,-120.5"/>
<polygon fill="black" stroke="black" points="484.08,-120.34 479.36,-110.85 477.14,-121.21 484.08,-120.34"/>
</g>
<!-- 57 -->
<g id="node11" class="node">
<title>57</title>
<ellipse fill="none" stroke="green" cx="552" cy="-164" rx="27" ry="18"/>
<text text-anchor="middle" x="552" y="-158.95" font-family="Times,serif" font-size="14.00">57</text>
</g>
<!-- 32&#45;&gt;57 -->
<g id="edge7" class="edge">
<title>32&#45;&gt;57</title>
<path fill="none" stroke="black" d="M507.09,-235.63C515.1,-223.03 526.46,-205.16 535.75,-190.55"/>
<polygon fill="black" stroke="black" points="538.57,-192.65 540.98,-182.34 532.66,-188.9 538.57,-192.65"/>
</g>
<!-- 36&#45;&gt;38 -->
<g id="edge5" class="edge">
<title>36&#45;&gt;38</title>
<path fill="none" stroke="black" d="M450.12,-146.53C454.23,-138.2 459.31,-127.88 463.95,-118.47"/>
<polygon fill="black" stroke="black" points="466.97,-120.25 468.26,-109.74 460.7,-117.16 466.97,-120.25"/>
</g>
<!-- 68 -->
<g id="node12" class="node">
<title>68</title>
<ellipse fill="none" stroke="red" cx="569" cy="-252.5" rx="27" ry="18"/>
<text text-anchor="middle" x="569" y="-247.45" font-family="Times,serif" font-size="14.00">68</text>
</g>
<!-- 69 -->
<g id="node13" class="node">
<title>69</title>
<ellipse fill="none" stroke="red" cx="641" cy="-252.5" rx="27" ry="18"/>
<text text-anchor="middle" x="641" y="-247.45" font-family="Times,serif" font-size="14.00">69</text>
</g>
<!-- 70 -->
<g id="node14" class="node">
<title>70</title>
<ellipse fill="none" stroke="red" cx="713" cy="-252.5" rx="27" ry="18"/>
<text text-anchor="middle" x="713" y="-247.45" font-family="Times,serif" font-size="14.00">70</text>
</g>
<!-- 85 -->
<g id="node15" class="node">
<title>85</title>
<ellipse fill="none" stroke="green" cx="713" cy="-164" rx="27" ry="18"/>
<text text-anchor="middle" x="713" y="-158.95" font-family="Times,serif" font-size="14.00">85</text>
</g>
<!-- 70&#45;&gt;85 -->
<g id="edge8" class="edge">
<title>70&#45;&gt;85</title>
<path fill="none" stroke="black" d="M713,-234.41C713,-222.76 713,-207.05 713,-193.52"/>
<polygon fill="black" stroke="black" points="716.5,-193.86 713,-183.86 709.5,-193.86 716.5,-193.86"/>
</g>
<!-- 74 -->
<g id="node16" class="node">
<title>74</title>
<ellipse fill="none" stroke="red" cx="785" cy="-252.5" rx="27" ry="18"/>
<text text-anchor="middle" x="785" y="-247.45" font-family="Times,serif" font-size="14.00">74</text>
</g>
<!-- 76 -->
<g id="node17" class="node">
<title>76</title>
<ellipse fill="none" stroke="red" cx="857" cy="-252.5" rx="27" ry="18"/>
<text text-anchor="middle" x="857" y="-247.45" font-family="Times,serif" font-size="14.00">76</text>
</g>
<!-- 102 -->
<g id="node18" class="node">
<title>102</title>
<ellipse fill="none" stroke="blue" cx="857" cy="-164" rx="27" ry="18"/>
<text text-anchor="middle" x="857" y="-158.95" font-family="Times,serif" font-size="14.00">102</text>
</g>
<!-- 76&#45;&gt;102 -->
<g id="edge9" class="edge">
<title>76&#45;&gt;102</title>
<path fill="none" stroke="black" d="M857,-234.41C857,-222.76 857,-207.05 857,-193.52"/>
<polygon fill="black" stroke="black" points="860.5,-193.86 857,-183.86 853.5,-193.86 860.5,-193.86"/>
</g>
<!-- 119 -->
<g id="node20" class="node">
<title>119</title>
<ellipse fill="none" stroke="blue" cx="937" cy="-91" rx="27" ry="18"/>
<text text-anchor="middle" x="937" y="-85.95" font-family="Times,serif" font-size="14.00">119</text>
</g>
<!-- 76&#45;&gt;119 -->
<g id="edge14" class="edge">
<title>76&#45;&gt;119</title>
<path fill="none" stroke="black" d="M865.69,-234.99C873.05,-220.94 883.84,-200.21 893,-182 903.62,-160.9 915.36,-136.86 924.03,-118.93"/>
<polygon fill="black" stroke="black" points="927.15,-120.53 928.35,-110.01 920.85,-117.49 927.15,-120.53"/>
</g>
<!-- 129 -->
<g id="node21" class="node">
<title>129</title>
<ellipse fill="none" stroke="green" cx="848" cy="-18" rx="27" ry="18"/>
<text text-anchor="middle" x="848" y="-12.95" font-family="Times,serif" font-size="14.00">129</text>
</g>
<!-- 76&#45;&gt;129 -->
<g id="edge15" class="edge">
<title>76&#45;&gt;129</title>
<path fill="none" stroke="black" d="M846.08,-235.81C837.35,-222.26 825.82,-201.8 821,-182 807.51,-126.62 806.72,-106.46 829,-54 830.22,-51.12 831.61,-48.16 833.06,-45.24"/>
<polygon fill="black" stroke="black" points="836.16,-46.88 837.74,-36.4 829.97,-43.6 836.16,-46.88"/>
</g>
<!-- 106 -->
<g id="node19" class="node">
<title>106</title>
<ellipse fill="none" stroke="green" cx="865" cy="-91" rx="27" ry="18"/>
<text text-anchor="middle" x="865" y="-85.95" font-family="Times,serif" font-size="14.00">106</text>
</g>
<!-- 102&#45;&gt;106 -->
<g id="edge10" class="edge">
<title>102&#45;&gt;106</title>
<path fill="none" stroke="black" d="M858.94,-145.81C859.8,-138.14 860.84,-128.89 861.82,-120.24"/>
<polygon fill="black" stroke="black" points="865.27,-120.86 862.91,-110.53 858.31,-120.08 865.27,-120.86"/>
</g>
<!-- 102&#45;&gt;119 -->
<g id="edge11" class="edge">
<title>102&#45;&gt;119</title>
<path fill="none" stroke="black" d="M872.81,-148.97C884.2,-138.86 899.79,-125.02 912.76,-113.52"/>
<polygon fill="black" stroke="black" points="914.94,-116.26 920.1,-107 910.29,-111.02 914.94,-116.26"/>
</g>
<!-- 102&#45;&gt;129 -->
<g id="edge13" class="edge">
<title>102&#45;&gt;129</title>
<path fill="none" stroke="black" d="M846.27,-147.26C839.87,-136.9 832.35,-122.75 829,-109 823.89,-88.03 829.47,-64.11 835.88,-46.21"/>
<polygon fill="black" stroke="black" points="839.07,-47.66 839.45,-37.07 832.55,-45.11 839.07,-47.66"/>
</g>
<!-- 119&#45;&gt;129 -->
<g id="edge12" class="edge">
<title>119&#45;&gt;129</title>
<path fill="none" stroke="black" d="M920.26,-76.65C907.17,-66.2 888.73,-51.5 873.76,-39.55"/>
<polygon fill="black" stroke="black" points="876.15,-36.98 866.15,-33.48 871.79,-42.45 876.15,-36.98"/>
</g>
<!-- 77 -->
<g id="node22" class="node">
<title>77</title>
<ellipse fill="none" stroke="red" cx="959" cy="-252.5" rx="27" ry="18"/>
<text text-anchor="middle" x="959" y="-247.45" font-family="Times,serif" font-size="14.00">77</text>
</g>
<!-- 77&#45;&gt;102 -->
<g id="edge16" class="edge">
<title>77&#45;&gt;102</title>
<path fill="none" stroke="black" d="M943.06,-237.98C926.69,-224.1 900.98,-202.29 881.92,-186.13"/>
<polygon fill="black" stroke="black" points="884.21,-183.48 874.32,-179.69 879.68,-188.82 884.21,-183.48"/>
</g>
<!-- 77&#45;&gt;119 -->
<g id="edge17" class="edge">
<title>77&#45;&gt;119</title>
<path fill="none" stroke="black" d="M956.6,-234.13C952.83,-206.8 945.48,-153.5 940.93,-120.5"/>
<polygon fill="black" stroke="black" points="944.43,-120.28 939.6,-110.85 937.5,-121.24 944.43,-120.28"/>
</g>
<!-- 77&#45;&gt;129 -->
<g id="edge18" class="edge">
<title>77&#45;&gt;129</title>
<path fill="none" stroke="black" d="M966.57,-234.81C980.61,-201.1 1006.38,-123.78 973,-73 953.8,-43.79 915.07,-30.31 885.79,-24.13"/>
<polygon fill="black" stroke="black" points="886.65,-20.73 876.18,-22.32 885.35,-27.61 886.65,-20.73"/>
</g>
<!-- 97 -->
<g id="node23" class="node">
<title>97</title>
<ellipse fill="none" stroke="red" cx="1031" cy="-252.5" rx="27" ry="18"/>
<text text-anchor="middle" x="1031" y="-247.45" font-family="Times,serif" font-size="14.00">97</text>
</g>
<!-- 24 -->
<g id="node24" class="node">
<title>24</title>
<ellipse fill="none" stroke="red" cx="387" cy="-252.5" rx="27" ry="18"/>
<text text-anchor="middle" x="387" y="-247.45" font-family="Times,serif" font-size="14.00">24</text>
</g>
<!-- 24&#45;&gt;26 -->
<g id="edge19" class="edge">
<title>24&#45;&gt;26</title>
<path fill="none" stroke="black" d="M383.64,-234.41C381.35,-222.76 378.26,-207.05 375.6,-193.52"/>
<polygon fill="black" stroke="black" points="379.06,-192.97 373.7,-183.84 372.2,-194.32 379.06,-192.97"/>
<text text-anchor="middle" x="408.52" y="-203.2" font-family="Times,serif" font-size="14.00">is super of</text>
</g>
</g>
</svg>
