<?xml version="1.0" encoding="UTF-8" standalone="no"?>
<!DOCTYPE svg PUBLIC "-//W3C//DTD SVG 1.1//EN"
 "http://www.w3.org/Graphics/SVG/1.1/DTD/svg11.dtd">
<!-- Generated by graphviz version 12.1.0 (20240811.2233)
 -->
<!-- Pages: 1 -->
<svg width="1745pt" height="821pt"
 viewBox="0.00 0.00 1745.00 820.50" xmlns="http://www.w3.org/2000/svg" xmlns:xlink="http://www.w3.org/1999/xlink">
<g id="graph0" class="graph" transform="scale(1 1) rotate(0) translate(4 816.5)">
<polygon fill="white" stroke="none" points="-4,4 -4,-816.5 1741,-816.5 1741,4 -4,4"/>
<!-- 6 -->
<g id="node1" class="node">
<title>6</title>
<ellipse fill="none" stroke="red" cx="140" cy="-794.5" rx="27" ry="18"/>
<text text-anchor="middle" x="140" y="-789.45" font-family="Times,serif" font-size="14.00">6</text>
</g>
<!-- 4 -->
<g id="node2" class="node">
<title>4</title>
<ellipse fill="none" stroke="green" cx="140" cy="-721.5" rx="27" ry="18"/>
<text text-anchor="middle" x="140" y="-716.45" font-family="Times,serif" font-size="14.00">4</text>
</g>
<!-- 6&#45;&gt;4 -->
<g id="edge1" class="edge">
<title>6&#45;&gt;4</title>
<path fill="none" stroke="black" d="M140,-776.31C140,-768.73 140,-759.6 140,-751.04"/>
<polygon fill="black" stroke="black" points="143.5,-751.04 140,-741.04 136.5,-751.04 143.5,-751.04"/>
</g>
<!-- 9 -->
<g id="node3" class="node">
<title>9</title>
<ellipse fill="none" stroke="red" cx="212" cy="-794.5" rx="27" ry="18"/>
<text text-anchor="middle" x="212" y="-789.45" font-family="Times,serif" font-size="14.00">9</text>
</g>
<!-- 10 -->
<g id="node4" class="node">
<title>10</title>
<ellipse fill="none" stroke="blue" cx="212" cy="-721.5" rx="27" ry="18"/>
<text text-anchor="middle" x="212" y="-716.45" font-family="Times,serif" font-size="14.00">10</text>
</g>
<!-- 9&#45;&gt;10 -->
<g id="edge2" class="edge">
<title>9&#45;&gt;10</title>
<path fill="none" stroke="black" d="M212,-776.31C212,-768.73 212,-759.6 212,-751.04"/>
<polygon fill="black" stroke="black" points="215.5,-751.04 212,-741.04 208.5,-751.04 215.5,-751.04"/>
</g>
<!-- 11 -->
<g id="node5" class="node">
<title>11</title>
<ellipse fill="none" stroke="blue" cx="127" cy="-633" rx="27" ry="18"/>
<text text-anchor="middle" x="127" y="-627.95" font-family="Times,serif" font-size="14.00">11</text>
</g>
<!-- 10&#45;&gt;11 -->
<g id="edge3" class="edge">
<title>10&#45;&gt;11</title>
<path fill="none" stroke="black" d="M197.58,-705.83C184.31,-692.32 164.44,-672.1 149.15,-656.54"/>
<polygon fill="black" stroke="black" points="151.77,-654.22 142.27,-649.54 146.78,-659.12 151.77,-654.22"/>
</g>
<!-- 54 -->
<g id="node13" class="node">
<title>54</title>
<ellipse fill="none" stroke="blue" cx="343" cy="-633" rx="27" ry="18"/>
<text text-anchor="middle" x="343" y="-627.95" font-family="Times,serif" font-size="14.00">54</text>
</g>
<!-- 10&#45;&gt;54 -->
<g id="edge12" class="edge">
<title>10&#45;&gt;54</title>
<path fill="none" stroke="black" d="M230.77,-708.11C252.75,-693.59 289.39,-669.4 314.8,-652.62"/>
<polygon fill="black" stroke="black" points="316.59,-655.64 323,-647.2 312.73,-649.79 316.59,-655.64"/>
</g>
<!-- 12 -->
<g id="node6" class="node">
<title>12</title>
<ellipse fill="none" stroke="blue" cx="127" cy="-560" rx="27" ry="18"/>
<text text-anchor="middle" x="127" y="-554.95" font-family="Times,serif" font-size="14.00">12</text>
</g>
<!-- 11&#45;&gt;12 -->
<g id="edge4" class="edge">
<title>11&#45;&gt;12</title>
<path fill="none" stroke="black" d="M127,-614.81C127,-607.23 127,-598.1 127,-589.54"/>
<polygon fill="black" stroke="black" points="130.5,-589.54 127,-579.54 123.5,-589.54 130.5,-589.54"/>
</g>
<!-- 13 -->
<g id="node7" class="node">
<title>13</title>
<ellipse fill="none" stroke="blue" cx="55" cy="-471.5" rx="27" ry="18"/>
<text text-anchor="middle" x="55" y="-466.45" font-family="Times,serif" font-size="14.00">13</text>
</g>
<!-- 12&#45;&gt;13 -->
<g id="edge5" class="edge">
<title>12&#45;&gt;13</title>
<path fill="none" stroke="black" d="M114.46,-543.93C103.48,-530.74 87.34,-511.36 74.65,-496.11"/>
<polygon fill="black" stroke="black" points="77.7,-494.29 68.61,-488.85 72.32,-498.77 77.7,-494.29"/>
</g>
<!-- 50 -->
<g id="node10" class="node">
<title>50</title>
<ellipse fill="none" stroke="blue" cx="127" cy="-471.5" rx="27" ry="18"/>
<text text-anchor="middle" x="127" y="-466.45" font-family="Times,serif" font-size="14.00">50</text>
</g>
<!-- 12&#45;&gt;50 -->
<g id="edge8" class="edge">
<title>12&#45;&gt;50</title>
<path fill="none" stroke="black" d="M127,-541.91C127,-530.26 127,-514.55 127,-501.02"/>
<polygon fill="black" stroke="black" points="130.5,-501.36 127,-491.36 123.5,-501.36 130.5,-501.36"/>
</g>
<!-- 14 -->
<g id="node8" class="node">
<title>14</title>
<ellipse fill="none" stroke="blue" cx="55" cy="-383" rx="27" ry="18"/>
<text text-anchor="middle" x="55" y="-377.95" font-family="Times,serif" font-size="14.00">14</text>
</g>
<!-- 13&#45;&gt;14 -->
<g id="edge6" class="edge">
<title>13&#45;&gt;14</title>
<path fill="none" stroke="black" d="M55,-453.41C55,-441.76 55,-426.05 55,-412.52"/>
<polygon fill="black" stroke="black" points="58.5,-412.86 55,-402.86 51.5,-412.86 58.5,-412.86"/>
</g>
<!-- 16 -->
<g id="node9" class="node">
<title>16</title>
<ellipse fill="none" stroke="green" cx="55" cy="-310" rx="27" ry="18"/>
<text text-anchor="middle" x="55" y="-304.95" font-family="Times,serif" font-size="14.00">16</text>
</g>
<!-- 14&#45;&gt;16 -->
<g id="edge7" class="edge">
<title>14&#45;&gt;16</title>
<path fill="none" stroke="black" d="M55,-364.81C55,-357.23 55,-348.1 55,-339.54"/>
<polygon fill="black" stroke="black" points="58.5,-339.54 55,-329.54 51.5,-339.54 58.5,-339.54"/>
</g>
<!-- 51 -->
<g id="node11" class="node">
<title>51</title>
<ellipse fill="none" stroke="blue" cx="127" cy="-383" rx="27" ry="18"/>
<text text-anchor="middle" x="127" y="-377.95" font-family="Times,serif" font-size="14.00">51</text>
</g>
<!-- 50&#45;&gt;51 -->
<g id="edge9" class="edge">
<title>50&#45;&gt;51</title>
<path fill="none" stroke="black" d="M127,-453.41C127,-441.76 127,-426.05 127,-412.52"/>
<polygon fill="black" stroke="black" points="130.5,-412.86 127,-402.86 123.5,-412.86 130.5,-412.86"/>
</g>
<!-- 43 -->
<g id="node12" class="node">
<title>43</title>
<ellipse fill="none" stroke="green" cx="322" cy="-383" rx="27" ry="18"/>
<text text-anchor="middle" x="322" y="-377.95" font-family="Times,serif" font-size="14.00">43</text>
</g>
<!-- 50&#45;&gt;43 -->
<g id="edge11" class="edge">
<title>50&#45;&gt;43</title>
<path fill="none" stroke="black" d="M148.65,-460.15C153.37,-457.93 158.34,-455.62 163,-453.5 206.49,-433.73 257.11,-411.79 289.34,-397.95"/>
<polygon fill="black" stroke="black" points="290.32,-401.33 298.14,-394.18 287.57,-394.9 290.32,-401.33"/>
</g>
<!-- 51&#45;&gt;16 -->
<g id="edge10" class="edge">
<title>51&#45;&gt;16</title>
<path fill="none" stroke="black" d="M112.43,-367.63C102.54,-357.88 89.26,-344.78 77.96,-333.64"/>
<polygon fill="black" stroke="black" points="80.45,-331.18 70.87,-326.65 75.54,-336.17 80.45,-331.18"/>
</g>
<!-- 55 -->
<g id="node14" class="node">
<title>55</title>
<ellipse fill="none" stroke="blue" cx="343" cy="-560" rx="27" ry="18"/>
<text text-anchor="middle" x="343" y="-554.95" font-family="Times,serif" font-size="14.00">55</text>
</g>
<!-- 54&#45;&gt;55 -->
<g id="edge13" class="edge">
<title>54&#45;&gt;55</title>
<path fill="none" stroke="black" d="M343,-614.81C343,-607.23 343,-598.1 343,-589.54"/>
<polygon fill="black" stroke="black" points="346.5,-589.54 343,-579.54 339.5,-589.54 346.5,-589.54"/>
</g>
<!-- 61 -->
<g id="node16" class="node">
<title>61</title>
<ellipse fill="none" stroke="blue" cx="415" cy="-560" rx="27" ry="18"/>
<text text-anchor="middle" x="415" y="-554.95" font-family="Times,serif" font-size="14.00">61</text>
</g>
<!-- 54&#45;&gt;61 -->
<g id="edge16" class="edge">
<title>54&#45;&gt;61</title>
<path fill="none" stroke="black" d="M357.57,-617.63C367.46,-607.88 380.74,-594.78 392.04,-583.64"/>
<polygon fill="black" stroke="black" points="394.46,-586.17 399.13,-576.65 389.55,-581.18 394.46,-586.17"/>
</g>
<!-- 60 -->
<g id="node15" class="node">
<title>60</title>
<ellipse fill="none" stroke="blue" cx="343" cy="-471.5" rx="27" ry="18"/>
<text text-anchor="middle" x="343" y="-466.45" font-family="Times,serif" font-size="14.00">60</text>
</g>
<!-- 55&#45;&gt;60 -->
<g id="edge14" class="edge">
<title>55&#45;&gt;60</title>
<path fill="none" stroke="black" d="M343,-541.91C343,-530.26 343,-514.55 343,-501.02"/>
<polygon fill="black" stroke="black" points="346.5,-501.36 343,-491.36 339.5,-501.36 346.5,-501.36"/>
</g>
<!-- 60&#45;&gt;43 -->
<g id="edge15" class="edge">
<title>60&#45;&gt;43</title>
<path fill="none" stroke="black" d="M338.85,-453.41C335.97,-441.56 332.08,-425.52 328.76,-411.84"/>
<polygon fill="black" stroke="black" points="332.26,-411.42 326.5,-402.52 325.46,-413.07 332.26,-411.42"/>
</g>
<!-- 62 -->
<g id="node17" class="node">
<title>62</title>
<ellipse fill="none" stroke="blue" cx="415" cy="-471.5" rx="27" ry="18"/>
<text text-anchor="middle" x="415" y="-466.45" font-family="Times,serif" font-size="14.00">62</text>
</g>
<!-- 61&#45;&gt;62 -->
<g id="edge17" class="edge">
<title>61&#45;&gt;62</title>
<path fill="none" stroke="black" d="M415,-541.91C415,-530.26 415,-514.55 415,-501.02"/>
<polygon fill="black" stroke="black" points="418.5,-501.36 415,-491.36 411.5,-501.36 418.5,-501.36"/>
</g>
<!-- 26 -->
<g id="node18" class="node">
<title>26</title>
<ellipse fill="none" stroke="green" cx="470" cy="-310" rx="27" ry="18"/>
<text text-anchor="middle" x="470" y="-304.95" font-family="Times,serif" font-size="14.00">26</text>
</g>
<!-- 61&#45;&gt;26 -->
<g id="edge19" class="edge">
<title>61&#45;&gt;26</title>
<path fill="none" stroke="black" d="M425.39,-543.16C433.78,-529.53 445.13,-509.02 451,-489.5 466.37,-438.37 469.68,-375.74 470.18,-339.9"/>
<polygon fill="black" stroke="black" points="473.68,-339.94 470.25,-329.91 466.68,-339.89 473.68,-339.94"/>
</g>
<!-- 62&#45;&gt;43 -->
<g id="edge18" class="edge">
<title>62&#45;&gt;43</title>
<path fill="none" stroke="black" d="M399.64,-456.22C384.97,-442.57 362.64,-421.8 345.69,-406.03"/>
<polygon fill="black" stroke="black" points="348.19,-403.58 338.49,-399.34 343.43,-408.71 348.19,-403.58"/>
</g>
<!-- 17 -->
<g id="node19" class="node">
<title>17</title>
<ellipse fill="none" stroke="red" cx="199" cy="-633" rx="27" ry="18"/>
<text text-anchor="middle" x="199" y="-627.95" font-family="Times,serif" font-size="14.00">17</text>
</g>
<!-- 17&#45;&gt;16 -->
<g id="edge20" class="edge">
<title>17&#45;&gt;16</title>
<path fill="none" stroke="black" d="M177.87,-621.5C173.03,-619.24 167.88,-616.95 163,-615 92.14,-586.65 0,-637.32 0,-561 0,-561 0,-561 0,-382 0,-361.73 14.19,-343.73 28.15,-330.93"/>
<polygon fill="black" stroke="black" points="30.19,-333.79 35.53,-324.64 25.65,-328.46 30.19,-333.79"/>
</g>
<!-- 19 -->
<g id="node20" class="node">
<title>19</title>
<ellipse fill="none" stroke="blue" cx="199" cy="-560" rx="27" ry="18"/>
<text text-anchor="middle" x="199" y="-554.95" font-family="Times,serif" font-size="14.00">19</text>
</g>
<!-- 17&#45;&gt;19 -->
<g id="edge21" class="edge">
<title>17&#45;&gt;19</title>
<path fill="none" stroke="black" d="M199,-614.81C199,-607.23 199,-598.1 199,-589.54"/>
<polygon fill="black" stroke="black" points="202.5,-589.54 199,-579.54 195.5,-589.54 202.5,-589.54"/>
</g>
<!-- 20 -->
<g id="node21" class="node">
<title>20</title>
<ellipse fill="none" stroke="blue" cx="199" cy="-471.5" rx="27" ry="18"/>
<text text-anchor="middle" x="199" y="-466.45" font-family="Times,serif" font-size="14.00">20</text>
</g>
<!-- 19&#45;&gt;20 -->
<g id="edge22" class="edge">
<title>19&#45;&gt;20</title>
<path fill="none" stroke="black" d="M199,-541.91C199,-530.26 199,-514.55 199,-501.02"/>
<polygon fill="black" stroke="black" points="202.5,-501.36 199,-491.36 195.5,-501.36 202.5,-501.36"/>
</g>
<!-- 42 -->
<g id="node23" class="node">
<title>42</title>
<ellipse fill="none" stroke="blue" cx="271" cy="-471.5" rx="27" ry="18"/>
<text text-anchor="middle" x="271" y="-466.45" font-family="Times,serif" font-size="14.00">42</text>
</g>
<!-- 19&#45;&gt;42 -->
<g id="edge25" class="edge">
<title>19&#45;&gt;42</title>
<path fill="none" stroke="black" d="M211.54,-543.93C222.52,-530.74 238.66,-511.36 251.35,-496.11"/>
<polygon fill="black" stroke="black" points="253.68,-498.77 257.39,-488.85 248.3,-494.29 253.68,-498.77"/>
</g>
<!-- 41 -->
<g id="node22" class="node">
<title>41</title>
<ellipse fill="none" stroke="blue" cx="214" cy="-383" rx="27" ry="18"/>
<text text-anchor="middle" x="214" y="-377.95" font-family="Times,serif" font-size="14.00">41</text>
</g>
<!-- 20&#45;&gt;41 -->
<g id="edge23" class="edge">
<title>20&#45;&gt;41</title>
<path fill="none" stroke="black" d="M201.96,-453.41C203.98,-441.76 206.71,-426.05 209.05,-412.52"/>
<polygon fill="black" stroke="black" points="212.47,-413.29 210.73,-402.84 205.58,-412.1 212.47,-413.29"/>
</g>
<!-- 41&#45;&gt;26 -->
<g id="edge24" class="edge">
<title>41&#45;&gt;26</title>
<path fill="none" stroke="black" d="M238.55,-375.19C284.02,-362.58 381.51,-335.54 434.29,-320.9"/>
<polygon fill="black" stroke="black" points="434.99,-324.34 443.69,-318.3 433.12,-317.6 434.99,-324.34"/>
</g>
<!-- 42&#45;&gt;43 -->
<g id="edge26" class="edge">
<title>42&#45;&gt;43</title>
<path fill="none" stroke="black" d="M280.59,-454.23C287.93,-441.79 298.19,-424.38 306.66,-410.01"/>
<polygon fill="black" stroke="black" points="309.62,-411.89 311.68,-401.5 303.59,-408.34 309.62,-411.89"/>
</g>
<!-- 18 -->
<g id="node24" class="node">
<title>18</title>
<ellipse fill="none" stroke="red" cx="640" cy="-794.5" rx="27" ry="18"/>
<text text-anchor="middle" x="640" y="-789.45" font-family="Times,serif" font-size="14.00">18</text>
</g>
<!-- 22 -->
<g id="node25" class="node">
<title>22</title>
<ellipse fill="none" stroke="blue" cx="640" cy="-721.5" rx="27" ry="18"/>
<text text-anchor="middle" x="640" y="-716.45" font-family="Times,serif" font-size="14.00">22</text>
</g>
<!-- 18&#45;&gt;22 -->
<g id="edge27" class="edge">
<title>18&#45;&gt;22</title>
<path fill="none" stroke="black" d="M640,-776.31C640,-768.73 640,-759.6 640,-751.04"/>
<polygon fill="black" stroke="black" points="643.5,-751.04 640,-741.04 636.5,-751.04 643.5,-751.04"/>
</g>
<!-- 23 -->
<g id="node26" class="node">
<title>23</title>
<ellipse fill="none" stroke="blue" cx="604" cy="-633" rx="27" ry="18"/>
<text text-anchor="middle" x="604" y="-627.95" font-family="Times,serif" font-size="14.00">23</text>
</g>
<!-- 22&#45;&gt;23 -->
<g id="edge28" class="edge">
<title>22&#45;&gt;23</title>
<path fill="none" stroke="black" d="M622.08,-707.49C615.43,-701.6 608.63,-694.04 605,-685.5 602.01,-678.48 600.9,-670.42 600.76,-662.79"/>
<polygon fill="black" stroke="black" points="604.25,-663.01 601.12,-652.89 597.26,-662.75 604.25,-663.01"/>
<text text-anchor="middle" x="633.5" y="-672.2" font-family="Times,serif" font-size="14.00">is super of</text>
</g>
<!-- 35 -->
<g id="node30" class="node">
<title>35</title>
<ellipse fill="none" stroke="blue" cx="676" cy="-633" rx="27" ry="18"/>
<text text-anchor="middle" x="676" y="-627.95" font-family="Times,serif" font-size="14.00">35</text>
</g>
<!-- 22&#45;&gt;35 -->
<g id="edge33" class="edge">
<title>22&#45;&gt;35</title>
<path fill="none" stroke="black" d="M651.34,-704.67C655.13,-698.85 659.12,-692.07 662,-685.5 665.21,-678.17 667.85,-669.93 669.94,-662.23"/>
<polygon fill="black" stroke="black" points="673.31,-663.15 672.32,-652.6 666.52,-661.47 673.31,-663.15"/>
</g>
<!-- 30 -->
<g id="node27" class="node">
<title>30</title>
<ellipse fill="none" stroke="blue" cx="604" cy="-560" rx="27" ry="18"/>
<text text-anchor="middle" x="604" y="-554.95" font-family="Times,serif" font-size="14.00">30</text>
</g>
<!-- 23&#45;&gt;30 -->
<g id="edge29" class="edge">
<title>23&#45;&gt;30</title>
<path fill="none" stroke="black" d="M604,-614.81C604,-607.23 604,-598.1 604,-589.54"/>
<polygon fill="black" stroke="black" points="607.5,-589.54 604,-579.54 600.5,-589.54 607.5,-589.54"/>
</g>
<!-- 31 -->
<g id="node28" class="node">
<title>31</title>
<ellipse fill="none" stroke="blue" cx="604" cy="-471.5" rx="27" ry="18"/>
<text text-anchor="middle" x="604" y="-466.45" font-family="Times,serif" font-size="14.00">31</text>
</g>
<!-- 30&#45;&gt;31 -->
<g id="edge30" class="edge">
<title>30&#45;&gt;31</title>
<path fill="none" stroke="black" d="M604,-541.91C604,-530.26 604,-514.55 604,-501.02"/>
<polygon fill="black" stroke="black" points="607.5,-501.36 604,-491.36 600.5,-501.36 607.5,-501.36"/>
</g>
<!-- 32 -->
<g id="node29" class="node">
<title>32</title>
<ellipse fill="none" stroke="green" cx="659" cy="-383" rx="27" ry="18"/>
<text text-anchor="middle" x="659" y="-377.95" font-family="Times,serif" font-size="14.00">32</text>
</g>
<!-- 30&#45;&gt;32 -->
<g id="edge32" class="edge">
<title>30&#45;&gt;32</title>
<path fill="none" stroke="black" d="M614.03,-543.05C622.2,-529.34 633.43,-508.8 640,-489.5 648.61,-464.2 653.54,-434.08 656.21,-412.52"/>
<polygon fill="black" stroke="black" points="659.67,-413.04 657.33,-402.71 652.72,-412.25 659.67,-413.04"/>
</g>
<!-- 31&#45;&gt;32 -->
<g id="edge31" class="edge">
<title>31&#45;&gt;32</title>
<path fill="none" stroke="black" d="M614.09,-454.63C622.1,-442.03 633.46,-424.16 642.75,-409.55"/>
<polygon fill="black" stroke="black" points="645.57,-411.65 647.98,-401.34 639.66,-407.9 645.57,-411.65"/>
</g>
<!-- 36 -->
<g id="node31" class="node">
<title>36</title>
<ellipse fill="none" stroke="green" cx="676" cy="-560" rx="27" ry="18"/>
<text text-anchor="middle" x="676" y="-554.95" font-family="Times,serif" font-size="14.00">36</text>
</g>
<!-- 35&#45;&gt;36 -->
<g id="edge34" class="edge">
<title>35&#45;&gt;36</title>
<path fill="none" stroke="black" d="M676,-614.81C676,-607.23 676,-598.1 676,-589.54"/>
<polygon fill="black" stroke="black" points="679.5,-589.54 676,-579.54 672.5,-589.54 679.5,-589.54"/>
</g>
<!-- 38 -->
<g id="node32" class="node">
<title>38</title>
<ellipse fill="none" stroke="green" cx="748" cy="-560" rx="27" ry="18"/>
<text text-anchor="middle" x="748" y="-554.95" font-family="Times,serif" font-size="14.00">38</text>
</g>
<!-- 35&#45;&gt;38 -->
<g id="edge35" class="edge">
<title>35&#45;&gt;38</title>
<path fill="none" stroke="black" d="M690.57,-617.63C700.46,-607.88 713.74,-594.78 725.04,-583.64"/>
<polygon fill="black" stroke="black" points="727.46,-586.17 732.13,-576.65 722.55,-581.18 727.46,-586.17"/>
</g>
<!-- 24 -->
<g id="node33" class="node">
<title>24</title>
<ellipse fill="none" stroke="red" cx="525" cy="-471.5" rx="27" ry="18"/>
<text text-anchor="middle" x="525" y="-466.45" font-family="Times,serif" font-size="14.00">24</text>
</g>
<!-- 25 -->
<g id="node34" class="node">
<title>25</title>
<ellipse fill="none" stroke="blue" cx="525" cy="-383" rx="27" ry="18"/>
<text text-anchor="middle" x="525" y="-377.95" font-family="Times,serif" font-size="14.00">25</text>
</g>
<!-- 24&#45;&gt;25 -->
<g id="edge36" class="edge">
<title>24&#45;&gt;25</title>
<path fill="none" stroke="black" d="M525,-453.41C525,-441.76 525,-426.05 525,-412.52"/>
<polygon fill="black" stroke="black" points="528.5,-412.86 525,-402.86 521.5,-412.86 528.5,-412.86"/>
<text text-anchor="middle" x="553.5" y="-422.2" font-family="Times,serif" font-size="14.00">is super of</text>
</g>
<!-- 25&#45;&gt;26 -->
<g id="edge37" class="edge">
<title>25&#45;&gt;26</title>
<path fill="none" stroke="black" d="M513.07,-366.59C506,-357.48 496.9,-345.72 488.88,-335.37"/>
<polygon fill="black" stroke="black" points="491.73,-333.33 482.84,-327.57 486.19,-337.62 491.73,-333.33"/>
</g>
<!-- 53 -->
<g id="node35" class="node">
<title>53</title>
<ellipse fill="none" stroke="red" cx="820" cy="-560" rx="27" ry="18"/>
<text text-anchor="middle" x="820" y="-554.95" font-family="Times,serif" font-size="14.00">53</text>
</g>
<!-- 56 -->
<g id="node36" class="node">
<title>56</title>
<ellipse fill="none" stroke="blue" cx="810" cy="-471.5" rx="27" ry="18"/>
<text text-anchor="middle" x="810" y="-466.45" font-family="Times,serif" font-size="14.00">56</text>
</g>
<!-- 53&#45;&gt;56 -->
<g id="edge38" class="edge">
<title>53&#45;&gt;56</title>
<path fill="none" stroke="black" d="M818.02,-541.91C816.68,-530.26 814.86,-514.55 813.3,-501.02"/>
<polygon fill="black" stroke="black" points="816.8,-500.89 812.18,-491.35 809.85,-501.69 816.8,-500.89"/>
</g>
<!-- 56&#45;&gt;32 -->
<g id="edge40" class="edge">
<title>56&#45;&gt;32</title>
<path fill="none" stroke="black" d="M789.95,-459.01C764.11,-444.21 718.97,-418.36 689.03,-401.21"/>
<polygon fill="black" stroke="black" points="690.86,-398.22 680.45,-396.29 687.39,-404.29 690.86,-398.22"/>
</g>
<!-- 57 -->
<g id="node37" class="node">
<title>57</title>
<ellipse fill="none" stroke="green" cx="810" cy="-383" rx="27" ry="18"/>
<text text-anchor="middle" x="810" y="-377.95" font-family="Times,serif" font-size="14.00">57</text>
</g>
<!-- 56&#45;&gt;57 -->
<g id="edge39" class="edge">
<title>56&#45;&gt;57</title>
<path fill="none" stroke="black" d="M810,-453.41C810,-441.76 810,-426.05 810,-412.52"/>
<polygon fill="black" stroke="black" points="813.5,-412.86 810,-402.86 806.5,-412.86 813.5,-412.86"/>
</g>
<!-- 79 -->
<g id="node38" class="node">
<title>79</title>
<ellipse fill="none" stroke="red" cx="892" cy="-794.5" rx="27" ry="18"/>
<text text-anchor="middle" x="892" y="-789.45" font-family="Times,serif" font-size="14.00">79</text>
</g>
<!-- 70 -->
<g id="node39" class="node">
<title>70</title>
<ellipse fill="none" stroke="green" cx="886" cy="-471.5" rx="27" ry="18"/>
<text text-anchor="middle" x="886" y="-466.45" font-family="Times,serif" font-size="14.00">70</text>
</g>
<!-- 79&#45;&gt;70 -->
<g id="edge41" class="edge">
<title>79&#45;&gt;70</title>
<path fill="none" stroke="black" d="M887.46,-776.42C884.07,-762.12 880,-741.13 880,-722.5 880,-722.5 880,-722.5 880,-559 880,-539.62 881.52,-517.85 883.03,-501"/>
<polygon fill="black" stroke="black" points="886.49,-501.5 883.96,-491.21 879.53,-500.84 886.49,-501.5"/>
</g>
<!-- 80 -->
<g id="node40" class="node">
<title>80</title>
<ellipse fill="none" stroke="blue" cx="935" cy="-721.5" rx="27" ry="18"/>
<text text-anchor="middle" x="935" y="-716.45" font-family="Times,serif" font-size="14.00">80</text>
</g>
<!-- 79&#45;&gt;80 -->
<g id="edge42" class="edge">
<title>79&#45;&gt;80</title>
<path fill="none" stroke="black" d="M901.76,-777.39C906.98,-768.77 913.54,-757.94 919.44,-748.19"/>
<polygon fill="black" stroke="black" points="922.31,-750.21 924.5,-739.84 916.32,-746.58 922.31,-750.21"/>
</g>
<!-- 81 -->
<g id="node41" class="node">
<title>81</title>
<ellipse fill="none" stroke="blue" cx="935" cy="-633" rx="27" ry="18"/>
<text text-anchor="middle" x="935" y="-627.95" font-family="Times,serif" font-size="14.00">81</text>
</g>
<!-- 80&#45;&gt;81 -->
<g id="edge43" class="edge">
<title>80&#45;&gt;81</title>
<path fill="none" stroke="black" d="M935,-703.41C935,-691.76 935,-676.05 935,-662.52"/>
<polygon fill="black" stroke="black" points="938.5,-662.86 935,-652.86 931.5,-662.86 938.5,-662.86"/>
</g>
<!-- 85 -->
<g id="node43" class="node">
<title>85</title>
<ellipse fill="none" stroke="green" cx="1007" cy="-633" rx="27" ry="18"/>
<text text-anchor="middle" x="1007" y="-627.95" font-family="Times,serif" font-size="14.00">85</text>
</g>
<!-- 80&#45;&gt;85 -->
<g id="edge46" class="edge">
<title>80&#45;&gt;85</title>
<path fill="none" stroke="black" d="M947.54,-705.43C958.52,-692.24 974.66,-672.86 987.35,-657.61"/>
<polygon fill="black" stroke="black" points="989.68,-660.27 993.39,-650.35 984.3,-655.79 989.68,-660.27"/>
</g>
<!-- 72 -->
<g id="node42" class="node">
<title>72</title>
<ellipse fill="none" stroke="blue" cx="935" cy="-560" rx="27" ry="18"/>
<text text-anchor="middle" x="935" y="-554.95" font-family="Times,serif" font-size="14.00">72</text>
</g>
<!-- 81&#45;&gt;72 -->
<g id="edge44" class="edge">
<title>81&#45;&gt;72</title>
<path fill="none" stroke="black" d="M935,-614.81C935,-607.23 935,-598.1 935,-589.54"/>
<polygon fill="black" stroke="black" points="938.5,-589.54 935,-579.54 931.5,-589.54 938.5,-589.54"/>
</g>
<!-- 72&#45;&gt;70 -->
<g id="edge45" class="edge">
<title>72&#45;&gt;70</title>
<path fill="none" stroke="black" d="M925.78,-542.73C918.73,-530.29 908.87,-512.88 900.73,-498.51"/>
<polygon fill="black" stroke="black" points="903.9,-496.99 895.92,-490.01 897.8,-500.44 903.9,-496.99"/>
</g>
<!-- 89 -->
<g id="node44" class="node">
<title>89</title>
<ellipse fill="none" stroke="red" cx="1114" cy="-794.5" rx="27" ry="18"/>
<text text-anchor="middle" x="1114" y="-789.45" font-family="Times,serif" font-size="14.00">89</text>
</g>
<!-- 90 -->
<g id="node45" class="node">
<title>90</title>
<ellipse fill="none" stroke="blue" cx="1114" cy="-721.5" rx="27" ry="18"/>
<text text-anchor="middle" x="1114" y="-716.45" font-family="Times,serif" font-size="14.00">90</text>
</g>
<!-- 89&#45;&gt;90 -->
<g id="edge47" class="edge">
<title>89&#45;&gt;90</title>
<path fill="none" stroke="black" d="M1114,-776.31C1114,-768.73 1114,-759.6 1114,-751.04"/>
<polygon fill="black" stroke="black" points="1117.5,-751.04 1114,-741.04 1110.5,-751.04 1117.5,-751.04"/>
</g>
<!-- 91 -->
<g id="node46" class="node">
<title>91</title>
<ellipse fill="none" stroke="blue" cx="1079" cy="-633" rx="27" ry="18"/>
<text text-anchor="middle" x="1079" y="-627.95" font-family="Times,serif" font-size="14.00">91</text>
</g>
<!-- 90&#45;&gt;91 -->
<g id="edge48" class="edge">
<title>90&#45;&gt;91</title>
<path fill="none" stroke="black" d="M1107.25,-703.82C1102.36,-691.74 1095.64,-675.13 1089.98,-661.14"/>
<polygon fill="black" stroke="black" points="1093.29,-659.99 1086.3,-652.03 1086.8,-662.61 1093.29,-659.99"/>
</g>
<!-- 102 -->
<g id="node51" class="node">
<title>102</title>
<ellipse fill="none" stroke="green" cx="1079" cy="-237" rx="27" ry="18"/>
<text text-anchor="middle" x="1079" y="-231.95" font-family="Times,serif" font-size="14.00">102</text>
</g>
<!-- 90&#45;&gt;102 -->
<g id="edge58" class="edge">
<title>90&#45;&gt;102</title>
<path fill="none" stroke="black" d="M1120.33,-703.54C1126.19,-686.29 1134,-658.66 1134,-634 1134,-634 1134,-634 1134,-309 1134,-288.73 1119.81,-270.73 1105.85,-257.93"/>
<polygon fill="black" stroke="black" points="1108.35,-255.46 1098.47,-251.64 1103.81,-260.79 1108.35,-255.46"/>
</g>
<!-- 93 -->
<g id="node47" class="node">
<title>93</title>
<ellipse fill="none" stroke="blue" cx="1079" cy="-560" rx="27" ry="18"/>
<text text-anchor="middle" x="1079" y="-554.95" font-family="Times,serif" font-size="14.00">93</text>
</g>
<!-- 91&#45;&gt;93 -->
<g id="edge49" class="edge">
<title>91&#45;&gt;93</title>
<path fill="none" stroke="black" d="M1079,-614.81C1079,-607.23 1079,-598.1 1079,-589.54"/>
<polygon fill="black" stroke="black" points="1082.5,-589.54 1079,-579.54 1075.5,-589.54 1082.5,-589.54"/>
</g>
<!-- 94 -->
<g id="node48" class="node">
<title>94</title>
<ellipse fill="none" stroke="blue" cx="1079" cy="-471.5" rx="27" ry="18"/>
<text text-anchor="middle" x="1079" y="-466.45" font-family="Times,serif" font-size="14.00">94</text>
</g>
<!-- 93&#45;&gt;94 -->
<g id="edge50" class="edge">
<title>93&#45;&gt;94</title>
<path fill="none" stroke="black" d="M1079,-541.91C1079,-530.26 1079,-514.55 1079,-501.02"/>
<polygon fill="black" stroke="black" points="1082.5,-501.36 1079,-491.36 1075.5,-501.36 1082.5,-501.36"/>
</g>
<!-- 105 -->
<g id="node52" class="node">
<title>105</title>
<ellipse fill="none" stroke="blue" cx="1007" cy="-471.5" rx="27" ry="18"/>
<text text-anchor="middle" x="1007" y="-466.45" font-family="Times,serif" font-size="14.00">105</text>
</g>
<!-- 93&#45;&gt;105 -->
<g id="edge55" class="edge">
<title>93&#45;&gt;105</title>
<path fill="none" stroke="black" d="M1066.46,-543.93C1055.48,-530.74 1039.34,-511.36 1026.65,-496.11"/>
<polygon fill="black" stroke="black" points="1029.7,-494.29 1020.61,-488.85 1024.32,-498.77 1029.7,-494.29"/>
</g>
<!-- 100 -->
<g id="node49" class="node">
<title>100</title>
<ellipse fill="none" stroke="blue" cx="1079" cy="-383" rx="27" ry="18"/>
<text text-anchor="middle" x="1079" y="-377.95" font-family="Times,serif" font-size="14.00">100</text>
</g>
<!-- 94&#45;&gt;100 -->
<g id="edge51" class="edge">
<title>94&#45;&gt;100</title>
<path fill="none" stroke="black" d="M1079,-453.41C1079,-441.76 1079,-426.05 1079,-412.52"/>
<polygon fill="black" stroke="black" points="1082.5,-412.86 1079,-402.86 1075.5,-412.86 1082.5,-412.86"/>
</g>
<!-- 101 -->
<g id="node50" class="node">
<title>101</title>
<ellipse fill="none" stroke="blue" cx="1079" cy="-310" rx="27" ry="18"/>
<text text-anchor="middle" x="1079" y="-304.95" font-family="Times,serif" font-size="14.00">101</text>
</g>
<!-- 100&#45;&gt;101 -->
<g id="edge52" class="edge">
<title>100&#45;&gt;101</title>
<path fill="none" stroke="black" d="M1079,-364.81C1079,-357.23 1079,-348.1 1079,-339.54"/>
<polygon fill="black" stroke="black" points="1082.5,-339.54 1079,-329.54 1075.5,-339.54 1082.5,-339.54"/>
</g>
<!-- 100&#45;&gt;102 -->
<g id="edge54" class="edge">
<title>100&#45;&gt;102</title>
<path fill="none" stroke="black" d="M1065.61,-367.2C1057.32,-356.99 1047.44,-342.67 1043,-328 1038.36,-312.69 1038.36,-307.31 1043,-292 1046.26,-281.23 1052.46,-270.64 1058.8,-261.74"/>
<polygon fill="black" stroke="black" points="1061.42,-264.08 1064.69,-254.01 1055.85,-259.84 1061.42,-264.08"/>
</g>
<!-- 101&#45;&gt;102 -->
<g id="edge53" class="edge">
<title>101&#45;&gt;102</title>
<path fill="none" stroke="black" d="M1079,-291.81C1079,-284.23 1079,-275.1 1079,-266.54"/>
<polygon fill="black" stroke="black" points="1082.5,-266.54 1079,-256.54 1075.5,-266.54 1082.5,-266.54"/>
</g>
<!-- 105&#45;&gt;102 -->
<g id="edge57" class="edge">
<title>105&#45;&gt;102</title>
<path fill="none" stroke="black" d="M995.03,-455.07C980.57,-434.47 959.54,-396.87 971,-365 986.95,-320.66 1026.29,-281.35 1052.82,-258.61"/>
<polygon fill="black" stroke="black" points="1055.01,-261.34 1060.45,-252.24 1050.53,-255.96 1055.01,-261.34"/>
</g>
<!-- 106 -->
<g id="node53" class="node">
<title>106</title>
<ellipse fill="none" stroke="green" cx="1007" cy="-383" rx="27" ry="18"/>
<text text-anchor="middle" x="1007" y="-377.95" font-family="Times,serif" font-size="14.00">106</text>
</g>
<!-- 105&#45;&gt;106 -->
<g id="edge56" class="edge">
<title>105&#45;&gt;106</title>
<path fill="none" stroke="black" d="M1007,-453.41C1007,-441.76 1007,-426.05 1007,-412.52"/>
<polygon fill="black" stroke="black" points="1010.5,-412.86 1007,-402.86 1003.5,-412.86 1010.5,-412.86"/>
</g>
<!-- 92 -->
<g id="node54" class="node">
<title>92</title>
<ellipse fill="none" stroke="red" cx="1206" cy="-794.5" rx="27" ry="18"/>
<text text-anchor="middle" x="1206" y="-789.45" font-family="Times,serif" font-size="14.00">92</text>
</g>
<!-- 95 -->
<g id="node55" class="node">
<title>95</title>
<ellipse fill="none" stroke="blue" cx="1206" cy="-721.5" rx="27" ry="18"/>
<text text-anchor="middle" x="1206" y="-716.45" font-family="Times,serif" font-size="14.00">95</text>
</g>
<!-- 92&#45;&gt;95 -->
<g id="edge59" class="edge">
<title>92&#45;&gt;95</title>
<path fill="none" stroke="black" d="M1206,-776.31C1206,-768.73 1206,-759.6 1206,-751.04"/>
<polygon fill="black" stroke="black" points="1209.5,-751.04 1206,-741.04 1202.5,-751.04 1209.5,-751.04"/>
</g>
<!-- 96 -->
<g id="node56" class="node">
<title>96</title>
<ellipse fill="none" stroke="blue" cx="1206" cy="-633" rx="27" ry="18"/>
<text text-anchor="middle" x="1206" y="-627.95" font-family="Times,serif" font-size="14.00">96</text>
</g>
<!-- 95&#45;&gt;96 -->
<g id="edge60" class="edge">
<title>95&#45;&gt;96</title>
<path fill="none" stroke="black" d="M1206,-703.41C1206,-691.76 1206,-676.05 1206,-662.52"/>
<polygon fill="black" stroke="black" points="1209.5,-662.86 1206,-652.86 1202.5,-662.86 1209.5,-662.86"/>
</g>
<!-- 97 -->
<g id="node57" class="node">
<title>97</title>
<ellipse fill="none" stroke="green" cx="1261" cy="-560" rx="27" ry="18"/>
<text text-anchor="middle" x="1261" y="-554.95" font-family="Times,serif" font-size="14.00">97</text>
</g>
<!-- 95&#45;&gt;97 -->
<g id="edge62" class="edge">
<title>95&#45;&gt;97</title>
<path fill="none" stroke="black" d="M1215.88,-704.49C1223.96,-690.76 1235.15,-670.2 1242,-651 1249.15,-630.99 1254,-607.46 1257.01,-589.48"/>
<polygon fill="black" stroke="black" points="1260.44,-590.21 1258.53,-579.79 1253.52,-589.13 1260.44,-590.21"/>
</g>
<!-- 96&#45;&gt;97 -->
<g id="edge61" class="edge">
<title>96&#45;&gt;97</title>
<path fill="none" stroke="black" d="M1217.93,-616.59C1225,-607.48 1234.1,-595.72 1242.12,-585.37"/>
<polygon fill="black" stroke="black" points="1244.81,-587.62 1248.16,-577.57 1239.27,-583.33 1244.81,-587.62"/>
</g>
<!-- 111 -->
<g id="node58" class="node">
<title>111</title>
<ellipse fill="none" stroke="red" cx="1189" cy="-560" rx="27" ry="18"/>
<text text-anchor="middle" x="1189" y="-554.95" font-family="Times,serif" font-size="14.00">111</text>
</g>
<!-- 76 -->
<g id="node59" class="node">
<title>76</title>
<ellipse fill="none" stroke="green" cx="1261" cy="-471.5" rx="27" ry="18"/>
<text text-anchor="middle" x="1261" y="-466.45" font-family="Times,serif" font-size="14.00">76</text>
</g>
<!-- 111&#45;&gt;76 -->
<g id="edge63" class="edge">
<title>111&#45;&gt;76</title>
<path fill="none" stroke="black" d="M1201.54,-543.93C1212.52,-530.74 1228.66,-511.36 1241.35,-496.11"/>
<polygon fill="black" stroke="black" points="1243.68,-498.77 1247.39,-488.85 1238.3,-494.29 1243.68,-498.77"/>
<text text-anchor="middle" x="1254.7" y="-510.7" font-family="Times,serif" font-size="14.00">is sub of</text>
</g>
<!-- 112 -->
<g id="node60" class="node">
<title>112</title>
<ellipse fill="none" stroke="blue" cx="1189" cy="-471.5" rx="27" ry="18"/>
<text text-anchor="middle" x="1189" y="-466.45" font-family="Times,serif" font-size="14.00">112</text>
</g>
<!-- 111&#45;&gt;112 -->
<g id="edge64" class="edge">
<title>111&#45;&gt;112</title>
<path fill="none" stroke="black" d="M1189,-541.91C1189,-530.26 1189,-514.55 1189,-501.02"/>
<polygon fill="black" stroke="black" points="1192.5,-501.36 1189,-491.36 1185.5,-501.36 1192.5,-501.36"/>
</g>
<!-- 113 -->
<g id="node61" class="node">
<title>113</title>
<ellipse fill="none" stroke="blue" cx="1189" cy="-383" rx="27" ry="18"/>
<text text-anchor="middle" x="1189" y="-377.95" font-family="Times,serif" font-size="14.00">113</text>
</g>
<!-- 112&#45;&gt;113 -->
<g id="edge65" class="edge">
<title>112&#45;&gt;113</title>
<path fill="none" stroke="black" d="M1189,-453.41C1189,-441.76 1189,-426.05 1189,-412.52"/>
<polygon fill="black" stroke="black" points="1192.5,-412.86 1189,-402.86 1185.5,-412.86 1192.5,-412.86"/>
</g>
<!-- 129 -->
<g id="node67" class="node">
<title>129</title>
<ellipse fill="none" stroke="green" cx="1395" cy="-91" rx="27" ry="18"/>
<text text-anchor="middle" x="1395" y="-85.95" font-family="Times,serif" font-size="14.00">129</text>
</g>
<!-- 112&#45;&gt;129 -->
<g id="edge73" class="edge">
<title>112&#45;&gt;129</title>
<path fill="none" stroke="black" d="M1210.16,-460.06C1214.99,-457.8 1220.14,-455.49 1225,-453.5 1311.7,-418 1424,-477.68 1424,-384 1424,-384 1424,-384 1424,-163 1424,-147.29 1417.84,-130.98 1411.2,-117.97"/>
<polygon fill="black" stroke="black" points="1414.26,-116.27 1406.37,-109.21 1408.14,-119.66 1414.26,-116.27"/>
</g>
<!-- 114 -->
<g id="node62" class="node">
<title>114</title>
<ellipse fill="none" stroke="blue" cx="1189" cy="-310" rx="27" ry="18"/>
<text text-anchor="middle" x="1189" y="-304.95" font-family="Times,serif" font-size="14.00">114</text>
</g>
<!-- 113&#45;&gt;114 -->
<g id="edge66" class="edge">
<title>113&#45;&gt;114</title>
<path fill="none" stroke="black" d="M1189,-364.81C1189,-357.23 1189,-348.1 1189,-339.54"/>
<polygon fill="black" stroke="black" points="1192.5,-339.54 1189,-329.54 1185.5,-339.54 1192.5,-339.54"/>
</g>
<!-- 114&#45;&gt;102 -->
<g id="edge72" class="edge">
<title>114&#45;&gt;102</title>
<path fill="none" stroke="black" d="M1174.55,-294.71C1167.01,-287.68 1157.41,-279.37 1148,-273 1136.67,-265.33 1123.44,-258.23 1111.61,-252.45"/>
<polygon fill="black" stroke="black" points="1113.14,-249.3 1102.6,-248.19 1110.14,-255.63 1113.14,-249.3"/>
</g>
<!-- 115 -->
<g id="node63" class="node">
<title>115</title>
<ellipse fill="none" stroke="blue" cx="1241" cy="-237" rx="27" ry="18"/>
<text text-anchor="middle" x="1241" y="-231.95" font-family="Times,serif" font-size="14.00">115</text>
</g>
<!-- 114&#45;&gt;115 -->
<g id="edge67" class="edge">
<title>114&#45;&gt;115</title>
<path fill="none" stroke="black" d="M1200.54,-293.24C1207.07,-284.33 1215.39,-272.97 1222.78,-262.88"/>
<polygon fill="black" stroke="black" points="1225.51,-265.07 1228.6,-254.93 1219.87,-260.93 1225.51,-265.07"/>
</g>
<!-- 117 -->
<g id="node64" class="node">
<title>117</title>
<ellipse fill="none" stroke="blue" cx="1297" cy="-164" rx="27" ry="18"/>
<text text-anchor="middle" x="1297" y="-158.95" font-family="Times,serif" font-size="14.00">117</text>
</g>
<!-- 115&#45;&gt;117 -->
<g id="edge68" class="edge">
<title>115&#45;&gt;117</title>
<path fill="none" stroke="black" d="M1253.15,-220.59C1260.34,-211.48 1269.61,-199.72 1277.78,-189.37"/>
<polygon fill="black" stroke="black" points="1280.49,-191.58 1283.94,-181.56 1274.99,-187.25 1280.49,-191.58"/>
</g>
<!-- 118 -->
<g id="node65" class="node">
<title>118</title>
<ellipse fill="none" stroke="blue" cx="1297" cy="-91" rx="27" ry="18"/>
<text text-anchor="middle" x="1297" y="-85.95" font-family="Times,serif" font-size="14.00">118</text>
</g>
<!-- 117&#45;&gt;118 -->
<g id="edge69" class="edge">
<title>117&#45;&gt;118</title>
<path fill="none" stroke="black" d="M1297,-145.81C1297,-138.23 1297,-129.1 1297,-120.54"/>
<polygon fill="black" stroke="black" points="1300.5,-120.54 1297,-110.54 1293.5,-120.54 1300.5,-120.54"/>
</g>
<!-- 117&#45;&gt;129 -->
<g id="edge71" class="edge">
<title>117&#45;&gt;129</title>
<path fill="none" stroke="black" d="M1314.52,-150.31C1329.48,-139.47 1351.22,-123.72 1368.34,-111.31"/>
<polygon fill="black" stroke="black" points="1370.03,-114.41 1376.08,-105.71 1365.92,-108.74 1370.03,-114.41"/>
</g>
<!-- 119 -->
<g id="node66" class="node">
<title>119</title>
<ellipse fill="none" stroke="green" cx="1254" cy="-18" rx="27" ry="18"/>
<text text-anchor="middle" x="1254" y="-12.95" font-family="Times,serif" font-size="14.00">119</text>
</g>
<!-- 118&#45;&gt;119 -->
<g id="edge70" class="edge">
<title>118&#45;&gt;119</title>
<path fill="none" stroke="black" d="M1287.24,-73.89C1282.02,-65.27 1275.46,-54.44 1269.56,-44.69"/>
<polygon fill="black" stroke="black" points="1272.68,-43.08 1264.5,-36.34 1266.69,-46.71 1272.68,-43.08"/>
</g>
<!-- 116 -->
<g id="node68" class="node">
<title>116</title>
<ellipse fill="none" stroke="red" cx="1316" cy="-633" rx="27" ry="18"/>
<text text-anchor="middle" x="1316" y="-627.95" font-family="Times,serif" font-size="14.00">116</text>
</g>
<!-- 116&#45;&gt;97 -->
<g id="edge74" class="edge">
<title>116&#45;&gt;97</title>
<path fill="none" stroke="black" d="M1304.07,-616.59C1297,-607.48 1287.9,-595.72 1279.88,-585.37"/>
<polygon fill="black" stroke="black" points="1282.73,-583.33 1273.84,-577.57 1277.19,-587.62 1282.73,-583.33"/>
</g>
<!-- 124 -->
<g id="node69" class="node">
<title>124</title>
<ellipse fill="none" stroke="red" cx="897" cy="-310" rx="27" ry="18"/>
<text text-anchor="middle" x="897" y="-304.95" font-family="Times,serif" font-size="14.00">124</text>
</g>
<!-- 124&#45;&gt;102 -->
<g id="edge78" class="edge">
<title>124&#45;&gt;102</title>
<path fill="none" stroke="black" d="M910.39,-294.2C918.04,-286.68 928.23,-278.07 939,-273 981.44,-253.02 998.27,-269.14 1043,-255 1044.61,-254.49 1046.23,-253.93 1047.86,-253.32"/>
<polygon fill="black" stroke="black" points="1049.19,-256.56 1057.05,-249.46 1046.47,-250.11 1049.19,-256.56"/>
</g>
<!-- 120 -->
<g id="node70" class="node">
<title>120</title>
<ellipse fill="none" stroke="blue" cx="1007" cy="-237" rx="27" ry="18"/>
<text text-anchor="middle" x="1007" y="-231.95" font-family="Times,serif" font-size="14.00">120</text>
</g>
<!-- 124&#45;&gt;120 -->
<g id="edge75" class="edge">
<title>124&#45;&gt;120</title>
<path fill="none" stroke="black" d="M900.95,-291.89C903.23,-285.26 906.72,-278.06 912,-273 927.62,-258.02 950.2,-249.35 969.42,-244.39"/>
<polygon fill="black" stroke="black" points="970.14,-247.82 979.09,-242.16 968.56,-241 970.14,-247.82"/>
</g>
<!-- 120&#45;&gt;119 -->
<g id="edge76" class="edge">
<title>120&#45;&gt;119</title>
<path fill="none" stroke="black" d="M1022.83,-222.1C1064.83,-185.2 1179.32,-84.61 1229.68,-40.37"/>
<polygon fill="black" stroke="black" points="1231.97,-43.02 1237.17,-33.79 1227.35,-37.76 1231.97,-43.02"/>
</g>
<!-- 77 -->
<g id="node71" class="node">
<title>77</title>
<ellipse fill="none" stroke="green" cx="1183" cy="-164" rx="27" ry="18"/>
<text text-anchor="middle" x="1183" y="-158.95" font-family="Times,serif" font-size="14.00">77</text>
</g>
<!-- 120&#45;&gt;77 -->
<g id="edge77" class="edge">
<title>120&#45;&gt;77</title>
<path fill="none" stroke="black" d="M1028.08,-225.36C1032.92,-223.11 1038.09,-220.86 1043,-219 1069.84,-208.84 1078.12,-211.04 1105,-201 1120.7,-195.14 1137.64,-187.48 1151.71,-180.74"/>
<polygon fill="black" stroke="black" points="1153.03,-184 1160.49,-176.47 1149.96,-177.7 1153.03,-184"/>
</g>
<!-- 130 -->
<g id="node72" class="node">
<title>130</title>
<ellipse fill="none" stroke="red" cx="1479" cy="-164" rx="27" ry="18"/>
<text text-anchor="middle" x="1479" y="-158.95" font-family="Times,serif" font-size="14.00">130</text>
</g>
<!-- 130&#45;&gt;129 -->
<g id="edge79" class="edge">
<title>130&#45;&gt;129</title>
<path fill="none" stroke="black" d="M1463.09,-149.27C1455.25,-142.54 1445.66,-134.32 1437,-127 1431.48,-122.34 1425.53,-117.35 1419.89,-112.65"/>
<polygon fill="black" stroke="black" points="1422.49,-110.25 1412.56,-106.55 1418.01,-115.63 1422.49,-110.25"/>
</g>
<!-- 131 -->
<g id="node73" class="node">
<title>131</title>
<ellipse fill="none" stroke="blue" cx="1468" cy="-91" rx="27" ry="18"/>
<text text-anchor="middle" x="1468" y="-85.95" font-family="Times,serif" font-size="14.00">131</text>
</g>
<!-- 130&#45;&gt;131 -->
<g id="edge80" class="edge">
<title>130&#45;&gt;131</title>
<path fill="none" stroke="black" d="M1476.34,-145.81C1475.15,-138.14 1473.72,-128.89 1472.38,-120.24"/>
<polygon fill="black" stroke="black" points="1475.86,-119.87 1470.87,-110.52 1468.94,-120.94 1475.86,-119.87"/>
</g>
<!-- 131&#45;&gt;119 -->
<g id="edge81" class="edge">
<title>131&#45;&gt;119</title>
<path fill="none" stroke="black" d="M1446.69,-79.62C1441.6,-77.3 1436.15,-74.96 1431,-73 1383.04,-54.76 1326.03,-38.26 1289.93,-28.43"/>
<polygon fill="black" stroke="black" points="1291.01,-25.1 1280.44,-25.87 1289.18,-31.85 1291.01,-25.1"/>
</g>
<!-- 135 -->
<g id="node74" class="node">
<title>135</title>
<ellipse fill="none" stroke="red" cx="1271" cy="-383" rx="27" ry="18"/>
<text text-anchor="middle" x="1271" y="-377.95" font-family="Times,serif" font-size="14.00">135</text>
</g>
<!-- 135&#45;&gt;77 -->
<g id="edge82" class="edge">
<title>135&#45;&gt;77</title>
<path fill="none" stroke="black" d="M1262.8,-365.68C1253.69,-347.61 1238.47,-317.63 1225,-292 1216.3,-275.45 1211.72,-272.44 1205,-255 1197.31,-235.03 1191.67,-211.5 1188.02,-193.51"/>
<polygon fill="black" stroke="black" points="1191.48,-192.96 1186.16,-183.8 1184.61,-194.28 1191.48,-192.96"/>
</g>
<!-- 136 -->
<g id="node75" class="node">
<title>136</title>
<ellipse fill="none" stroke="blue" cx="1299" cy="-310" rx="27" ry="18"/>
<text text-anchor="middle" x="1299" y="-304.95" font-family="Times,serif" font-size="14.00">136</text>
</g>
<!-- 135&#45;&gt;136 -->
<g id="edge83" class="edge">
<title>135&#45;&gt;136</title>
<path fill="none" stroke="black" d="M1277.64,-365.17C1280.81,-357.13 1284.69,-347.29 1288.27,-338.22"/>
<polygon fill="black" stroke="black" points="1291.44,-339.7 1291.86,-329.11 1284.93,-337.13 1291.44,-339.7"/>
</g>
<!-- 136&#45;&gt;119 -->
<g id="edge87" class="edge">
<title>136&#45;&gt;119</title>
<path fill="none" stroke="black" d="M1295.7,-291.84C1291.98,-273.55 1285.35,-243.85 1277,-219 1271.3,-202.02 1265.01,-199.46 1261,-182 1250.44,-135.98 1250.67,-80.77 1252.11,-47.86"/>
<polygon fill="black" stroke="black" points="1255.6,-48.09 1252.62,-37.92 1248.61,-47.72 1255.6,-48.09"/>
</g>
<!-- 137 -->
<g id="node76" class="node">
<title>137</title>
<ellipse fill="none" stroke="blue" cx="1356" cy="-237" rx="27" ry="18"/>
<text text-anchor="middle" x="1356" y="-231.95" font-family="Times,serif" font-size="14.00">137</text>
</g>
<!-- 136&#45;&gt;137 -->
<g id="edge84" class="edge">
<title>136&#45;&gt;137</title>
<path fill="none" stroke="black" d="M1311.37,-293.59C1318.76,-284.38 1328.32,-272.48 1336.69,-262.05"/>
<polygon fill="black" stroke="black" points="1339.18,-264.55 1342.71,-254.56 1333.72,-260.16 1339.18,-264.55"/>
</g>
<!-- 138 -->
<g id="node77" class="node">
<title>138</title>
<ellipse fill="none" stroke="blue" cx="1369" cy="-164" rx="27" ry="18"/>
<text text-anchor="middle" x="1369" y="-158.95" font-family="Times,serif" font-size="14.00">138</text>
</g>
<!-- 137&#45;&gt;138 -->
<g id="edge85" class="edge">
<title>137&#45;&gt;138</title>
<path fill="none" stroke="black" d="M1359.15,-218.81C1360.55,-211.14 1362.25,-201.89 1363.83,-193.24"/>
<polygon fill="black" stroke="black" points="1367.25,-193.98 1365.61,-183.52 1360.37,-192.72 1367.25,-193.98"/>
</g>
<!-- 138&#45;&gt;129 -->
<g id="edge86" class="edge">
<title>138&#45;&gt;129</title>
<path fill="none" stroke="black" d="M1375.16,-146.17C1378.11,-138.13 1381.71,-128.29 1385.03,-119.22"/>
<polygon fill="black" stroke="black" points="1388.21,-120.72 1388.36,-110.13 1381.64,-118.31 1388.21,-120.72"/>
</g>
<!-- 3 -->
<g id="node78" class="node">
<title>3</title>
<ellipse fill="none" stroke="green" cx="1278" cy="-794.5" rx="27" ry="18"/>
<text text-anchor="middle" x="1278" y="-789.45" font-family="Times,serif" font-size="14.00">3</text>
</g>
<!-- 8 -->
<g id="node79" class="node">
<title>8</title>
<ellipse fill="none" stroke="green" cx="1350" cy="-794.5" rx="27" ry="18"/>
<text text-anchor="middle" x="1350" y="-789.45" font-family="Times,serif" font-size="14.00">8</text>
</g>
<!-- 15 -->
<g id="node80" class="node">
<title>15</title>
<ellipse fill="none" stroke="green" cx="1422" cy="-794.5" rx="27" ry="18"/>
<text text-anchor="middle" x="1422" y="-789.45" font-family="Times,serif" font-size="14.00">15</text>
</g>
<!-- 21 -->
<g id="node81" class="node">
<title>21</title>
<ellipse fill="none" stroke="green" cx="1494" cy="-794.5" rx="27" ry="18"/>
<text text-anchor="middle" x="1494" y="-789.45" font-family="Times,serif" font-size="14.00">21</text>
</g>
<!-- 68 -->
<g id="node82" class="node">
<title>68</title>
<ellipse fill="none" stroke="green" cx="1566" cy="-794.5" rx="27" ry="18"/>
<text text-anchor="middle" x="1566" y="-789.45" font-family="Times,serif" font-size="14.00">68</text>
</g>
<!-- 69 -->
<g id="node83" class="node">
<title>69</title>
<ellipse fill="none" stroke="green" cx="1638" cy="-794.5" rx="27" ry="18"/>
<text text-anchor="middle" x="1638" y="-789.45" font-family="Times,serif" font-size="14.00">69</text>
</g>
<!-- 74 -->
<g id="node84" class="node">
<title>74</title>
<ellipse fill="none" stroke="green" cx="1710" cy="-794.5" rx="27" ry="18"/>
<text text-anchor="middle" x="1710" y="-789.45" font-family="Times,serif" font-size="14.00">74</text>
</g>
</g>
</svg>
