<?xml version="1.0" encoding="UTF-8" standalone="no"?>
<!DOCTYPE svg PUBLIC "-//W3C//DTD SVG 1.1//EN"
 "http://www.w3.org/Graphics/SVG/1.1/DTD/svg11.dtd">
<!-- Generated by graphviz version 12.1.0 (20240811.2233)
 -->
<!-- Pages: 1 -->
<svg width="2040pt" height="683pt"
 viewBox="0.00 0.00 2040.00 683.00" xmlns="http://www.w3.org/2000/svg" xmlns:xlink="http://www.w3.org/1999/xlink">
<g id="graph0" class="graph" transform="scale(1 1) rotate(0) translate(4 679)">
<polygon fill="white" stroke="none" points="-4,4 -4,-679 2036,-679 2036,4 -4,4"/>
<!-- 8 -->
<g id="node1" class="node">
<title>8</title>
<ellipse fill="none" stroke="red" cx="279" cy="-657" rx="27" ry="18"/>
<text text-anchor="middle" x="279" y="-651.95" font-family="Times,serif" font-size="14.00">8</text>
</g>
<!-- 5 -->
<g id="node2" class="node">
<title>5</title>
<ellipse fill="none" stroke="green" cx="279" cy="-568.5" rx="27" ry="18"/>
<text text-anchor="middle" x="279" y="-563.45" font-family="Times,serif" font-size="14.00">5</text>
</g>
<!-- 8&#45;&gt;5 -->
<g id="edge1" class="edge">
<title>8&#45;&gt;5</title>
<path fill="none" stroke="black" d="M279,-638.91C279,-627.26 279,-611.55 279,-598.02"/>
<polygon fill="black" stroke="black" points="282.5,-598.36 279,-588.36 275.5,-598.36 282.5,-598.36"/>
</g>
<!-- 10 -->
<g id="node3" class="node">
<title>10</title>
<ellipse fill="none" stroke="red" cx="351" cy="-657" rx="27" ry="18"/>
<text text-anchor="middle" x="351" y="-651.95" font-family="Times,serif" font-size="14.00">10</text>
</g>
<!-- 6 -->
<g id="node4" class="node">
<title>6</title>
<ellipse fill="none" stroke="green" cx="351" cy="-568.5" rx="27" ry="18"/>
<text text-anchor="middle" x="351" y="-563.45" font-family="Times,serif" font-size="14.00">6</text>
</g>
<!-- 10&#45;&gt;6 -->
<g id="edge2" class="edge">
<title>10&#45;&gt;6</title>
<path fill="none" stroke="black" d="M351,-638.91C351,-627.26 351,-611.55 351,-598.02"/>
<polygon fill="black" stroke="black" points="354.5,-598.36 351,-588.36 347.5,-598.36 354.5,-598.36"/>
</g>
<!-- 15 -->
<g id="node5" class="node">
<title>15</title>
<ellipse fill="none" stroke="red" cx="423" cy="-657" rx="27" ry="18"/>
<text text-anchor="middle" x="423" y="-651.95" font-family="Times,serif" font-size="14.00">15</text>
</g>
<!-- 16 -->
<g id="node6" class="node">
<title>16</title>
<ellipse fill="none" stroke="green" cx="472" cy="-568.5" rx="27" ry="18"/>
<text text-anchor="middle" x="472" y="-563.45" font-family="Times,serif" font-size="14.00">16</text>
</g>
<!-- 15&#45;&gt;16 -->
<g id="edge3" class="edge">
<title>15&#45;&gt;16</title>
<path fill="none" stroke="black" d="M432.22,-639.73C439.27,-627.29 449.13,-609.88 457.27,-595.51"/>
<polygon fill="black" stroke="black" points="460.2,-597.44 462.08,-587.01 454.1,-593.99 460.2,-597.44"/>
</g>
<!-- 18 -->
<g id="node7" class="node">
<title>18</title>
<ellipse fill="none" stroke="red" cx="365" cy="-480" rx="27" ry="18"/>
<text text-anchor="middle" x="365" y="-474.95" font-family="Times,serif" font-size="14.00">18</text>
</g>
<!-- 20 -->
<g id="node8" class="node">
<title>20</title>
<ellipse fill="none" stroke="blue" cx="365" cy="-391.5" rx="27" ry="18"/>
<text text-anchor="middle" x="365" y="-386.45" font-family="Times,serif" font-size="14.00">20</text>
</g>
<!-- 18&#45;&gt;20 -->
<g id="edge4" class="edge">
<title>18&#45;&gt;20</title>
<path fill="none" stroke="black" d="M365,-461.91C365,-450.26 365,-434.55 365,-421.02"/>
<polygon fill="black" stroke="black" points="368.5,-421.36 365,-411.36 361.5,-421.36 368.5,-421.36"/>
</g>
<!-- 21 -->
<g id="node9" class="node">
<title>21</title>
<ellipse fill="none" stroke="blue" cx="365" cy="-303" rx="27" ry="18"/>
<text text-anchor="middle" x="365" y="-297.95" font-family="Times,serif" font-size="14.00">21</text>
</g>
<!-- 20&#45;&gt;21 -->
<g id="edge5" class="edge">
<title>20&#45;&gt;21</title>
<path fill="none" stroke="black" d="M365,-373.41C365,-361.76 365,-346.05 365,-332.52"/>
<polygon fill="black" stroke="black" points="368.5,-332.86 365,-322.86 361.5,-332.86 368.5,-332.86"/>
<text text-anchor="middle" x="393.5" y="-342.2" font-family="Times,serif" font-size="14.00">is super of</text>
</g>
<!-- 51 -->
<g id="node12" class="node">
<title>51</title>
<ellipse fill="none" stroke="blue" cx="137" cy="-303" rx="27" ry="18"/>
<text text-anchor="middle" x="137" y="-297.95" font-family="Times,serif" font-size="14.00">51</text>
</g>
<!-- 20&#45;&gt;51 -->
<g id="edge8" class="edge">
<title>20&#45;&gt;51</title>
<path fill="none" stroke="black" d="M341.88,-381.73C301.43,-366.38 217.64,-334.59 170.71,-316.79"/>
<polygon fill="black" stroke="black" points="172.18,-313.61 161.59,-313.33 169.7,-320.15 172.18,-313.61"/>
</g>
<!-- 49 -->
<g id="node10" class="node">
<title>49</title>
<ellipse fill="none" stroke="blue" cx="365" cy="-195" rx="27" ry="18"/>
<text text-anchor="middle" x="365" y="-189.95" font-family="Times,serif" font-size="14.00">49</text>
</g>
<!-- 21&#45;&gt;49 -->
<g id="edge6" class="edge">
<title>21&#45;&gt;49</title>
<path fill="none" stroke="black" d="M365,-284.97C365,-268.76 365,-244.06 365,-224.79"/>
<polygon fill="black" stroke="black" points="368.5,-224.85 365,-214.85 361.5,-224.85 368.5,-224.85"/>
</g>
<!-- 36 -->
<g id="node11" class="node">
<title>36</title>
<ellipse fill="none" stroke="green" cx="544" cy="-106.5" rx="27" ry="18"/>
<text text-anchor="middle" x="544" y="-101.45" font-family="Times,serif" font-size="14.00">36</text>
</g>
<!-- 49&#45;&gt;36 -->
<g id="edge7" class="edge">
<title>49&#45;&gt;36</title>
<path fill="none" stroke="black" d="M386.59,-183.57C417.99,-168.39 476.44,-140.15 512.6,-122.67"/>
<polygon fill="black" stroke="black" points="513.77,-126 521.25,-118.49 510.72,-119.69 513.77,-126"/>
</g>
<!-- 52 -->
<g id="node13" class="node">
<title>52</title>
<ellipse fill="none" stroke="blue" cx="48" cy="-195" rx="27" ry="18"/>
<text text-anchor="middle" x="48" y="-189.95" font-family="Times,serif" font-size="14.00">52</text>
</g>
<!-- 51&#45;&gt;52 -->
<g id="edge9" class="edge">
<title>51&#45;&gt;52</title>
<path fill="none" stroke="black" d="M124.25,-286.81C109.58,-269.34 85.3,-240.42 68.08,-219.92"/>
<polygon fill="black" stroke="black" points="70.81,-217.73 61.7,-212.32 65.45,-222.23 70.81,-217.73"/>
</g>
<!-- 58 -->
<g id="node17" class="node">
<title>58</title>
<ellipse fill="none" stroke="blue" cx="137" cy="-195" rx="27" ry="18"/>
<text text-anchor="middle" x="137" y="-189.95" font-family="Times,serif" font-size="14.00">58</text>
</g>
<!-- 51&#45;&gt;58 -->
<g id="edge13" class="edge">
<title>51&#45;&gt;58</title>
<path fill="none" stroke="black" d="M137,-284.97C137,-268.76 137,-244.06 137,-224.79"/>
<polygon fill="black" stroke="black" points="140.5,-224.85 137,-214.85 133.5,-224.85 140.5,-224.85"/>
</g>
<!-- 53 -->
<g id="node14" class="node">
<title>53</title>
<ellipse fill="none" stroke="blue" cx="27" cy="-106.5" rx="27" ry="18"/>
<text text-anchor="middle" x="27" y="-101.45" font-family="Times,serif" font-size="14.00">53</text>
</g>
<!-- 52&#45;&gt;53 -->
<g id="edge10" class="edge">
<title>52&#45;&gt;53</title>
<path fill="none" stroke="black" d="M43.85,-176.91C40.97,-165.06 37.08,-149.02 33.76,-135.34"/>
<polygon fill="black" stroke="black" points="37.26,-134.92 31.5,-126.02 30.46,-136.57 37.26,-134.92"/>
</g>
<!-- 54 -->
<g id="node15" class="node">
<title>54</title>
<ellipse fill="none" stroke="green" cx="27" cy="-18" rx="27" ry="18"/>
<text text-anchor="middle" x="27" y="-12.95" font-family="Times,serif" font-size="14.00">54</text>
</g>
<!-- 53&#45;&gt;54 -->
<g id="edge11" class="edge">
<title>53&#45;&gt;54</title>
<path fill="none" stroke="black" d="M27,-88.41C27,-76.76 27,-61.05 27,-47.52"/>
<polygon fill="black" stroke="black" points="30.5,-47.86 27,-37.86 23.5,-47.86 30.5,-47.86"/>
</g>
<!-- 27 -->
<g id="node16" class="node">
<title>27</title>
<ellipse fill="none" stroke="green" cx="200" cy="-18" rx="27" ry="18"/>
<text text-anchor="middle" x="200" y="-12.95" font-family="Times,serif" font-size="14.00">27</text>
</g>
<!-- 53&#45;&gt;27 -->
<g id="edge12" class="edge">
<title>53&#45;&gt;27</title>
<path fill="none" stroke="black" d="M48.21,-94.89C78.39,-79.81 133.89,-52.05 168.77,-34.61"/>
<polygon fill="black" stroke="black" points="170.15,-37.84 177.53,-30.23 167.02,-31.58 170.15,-37.84"/>
</g>
<!-- 58&#45;&gt;27 -->
<g id="edge15" class="edge">
<title>58&#45;&gt;27</title>
<path fill="none" stroke="black" d="M142.65,-177.11C151.53,-150.71 169.46,-98.13 186,-54 186.95,-51.47 187.96,-48.84 188.98,-46.21"/>
<polygon fill="black" stroke="black" points="192.17,-47.67 192.6,-37.08 185.66,-45.09 192.17,-47.67"/>
</g>
<!-- 59 -->
<g id="node18" class="node">
<title>59</title>
<ellipse fill="none" stroke="green" cx="99" cy="-106.5" rx="27" ry="18"/>
<text text-anchor="middle" x="99" y="-101.45" font-family="Times,serif" font-size="14.00">59</text>
</g>
<!-- 58&#45;&gt;59 -->
<g id="edge14" class="edge">
<title>58&#45;&gt;59</title>
<path fill="none" stroke="black" d="M115.89,-183.7C106.44,-177.87 96.26,-169.61 91,-159 87.38,-151.7 87.3,-143.17 88.71,-135.17"/>
<polygon fill="black" stroke="black" points="92.09,-136.06 91.23,-125.5 85.32,-134.3 92.09,-136.06"/>
<text text-anchor="middle" x="119.5" y="-145.7" font-family="Times,serif" font-size="14.00">is super of</text>
</g>
<!-- 22 -->
<g id="node19" class="node">
<title>22</title>
<ellipse fill="none" stroke="red" cx="224" cy="-303" rx="27" ry="18"/>
<text text-anchor="middle" x="224" y="-297.95" font-family="Times,serif" font-size="14.00">22</text>
</g>
<!-- 22&#45;&gt;27 -->
<g id="edge20" class="edge">
<title>22&#45;&gt;27</title>
<path fill="none" stroke="black" d="M222.53,-284.72C218.53,-237.56 207.4,-106.21 202.44,-47.73"/>
<polygon fill="black" stroke="black" points="205.94,-47.59 201.6,-37.92 198.96,-48.18 205.94,-47.59"/>
</g>
<!-- 23 -->
<g id="node20" class="node">
<title>23</title>
<ellipse fill="none" stroke="blue" cx="255" cy="-195" rx="27" ry="18"/>
<text text-anchor="middle" x="255" y="-189.95" font-family="Times,serif" font-size="14.00">23</text>
</g>
<!-- 22&#45;&gt;23 -->
<g id="edge16" class="edge">
<title>22&#45;&gt;23</title>
<path fill="none" stroke="black" d="M228.98,-284.97C233.79,-268.51 241.17,-243.29 246.84,-223.9"/>
<polygon fill="black" stroke="black" points="250.16,-225.02 249.61,-214.44 243.44,-223.06 250.16,-225.02"/>
</g>
<!-- 25 -->
<g id="node21" class="node">
<title>25</title>
<ellipse fill="none" stroke="blue" cx="255" cy="-106.5" rx="27" ry="18"/>
<text text-anchor="middle" x="255" y="-101.45" font-family="Times,serif" font-size="14.00">25</text>
</g>
<!-- 23&#45;&gt;25 -->
<g id="edge17" class="edge">
<title>23&#45;&gt;25</title>
<path fill="none" stroke="black" d="M255,-176.91C255,-165.26 255,-149.55 255,-136.02"/>
<polygon fill="black" stroke="black" points="258.5,-136.36 255,-126.36 251.5,-136.36 258.5,-136.36"/>
</g>
<!-- 25&#45;&gt;27 -->
<g id="edge19" class="edge">
<title>25&#45;&gt;27</title>
<path fill="none" stroke="black" d="M244.91,-89.63C236.9,-77.03 225.54,-59.16 216.25,-44.55"/>
<polygon fill="black" stroke="black" points="219.34,-42.9 211.02,-36.34 213.43,-46.65 219.34,-42.9"/>
</g>
<!-- 26 -->
<g id="node22" class="node">
<title>26</title>
<ellipse fill="none" stroke="green" cx="745" cy="-18" rx="27" ry="18"/>
<text text-anchor="middle" x="745" y="-12.95" font-family="Times,serif" font-size="14.00">26</text>
</g>
<!-- 25&#45;&gt;26 -->
<g id="edge18" class="edge">
<title>25&#45;&gt;26</title>
<path fill="none" stroke="black" d="M281,-100.91C362.4,-86.54 612.57,-42.38 707.73,-25.58"/>
<polygon fill="black" stroke="black" points="708.33,-29.03 717.57,-23.84 707.12,-22.13 708.33,-29.03"/>
<text text-anchor="middle" x="572.39" y="-57.2" font-family="Times,serif" font-size="14.00">is super of</text>
</g>
<!-- 24 -->
<g id="node23" class="node">
<title>24</title>
<ellipse fill="none" stroke="red" cx="495" cy="-657" rx="27" ry="18"/>
<text text-anchor="middle" x="495" y="-651.95" font-family="Times,serif" font-size="14.00">24</text>
</g>
<!-- 24&#45;&gt;16 -->
<g id="edge21" class="edge">
<title>24&#45;&gt;16</title>
<path fill="none" stroke="black" d="M490.46,-638.91C487.31,-627.06 483.04,-611.02 479.4,-597.34"/>
<polygon fill="black" stroke="black" points="482.88,-596.78 476.92,-588.02 476.11,-598.58 482.88,-596.78"/>
</g>
<!-- 28 -->
<g id="node24" class="node">
<title>28</title>
<ellipse fill="none" stroke="red" cx="638" cy="-657" rx="27" ry="18"/>
<text text-anchor="middle" x="638" y="-651.95" font-family="Times,serif" font-size="14.00">28</text>
</g>
<!-- 28&#45;&gt;27 -->
<g id="edge22" class="edge">
<title>28&#45;&gt;27</title>
<path fill="none" stroke="black" d="M657.83,-644.39C679.75,-629.9 712,-602.9 712,-569.5 712,-569.5 712,-569.5 712,-105.5 712,-57.51 357.76,-29.51 238.59,-21.45"/>
<polygon fill="black" stroke="black" points="238.89,-17.96 228.68,-20.79 238.42,-24.94 238.89,-17.96"/>
<text text-anchor="middle" x="735.25" y="-342.2" font-family="Times,serif" font-size="14.00">is sub of</text>
</g>
<!-- 29 -->
<g id="node25" class="node">
<title>29</title>
<ellipse fill="none" stroke="blue" cx="544" cy="-568.5" rx="27" ry="18"/>
<text text-anchor="middle" x="544" y="-563.45" font-family="Times,serif" font-size="14.00">29</text>
</g>
<!-- 28&#45;&gt;29 -->
<g id="edge23" class="edge">
<title>28&#45;&gt;29</title>
<path fill="none" stroke="black" d="M622.9,-642.1C608.05,-628.44 585.16,-607.37 567.85,-591.44"/>
<polygon fill="black" stroke="black" points="570.22,-588.87 560.49,-584.68 565.48,-594.02 570.22,-588.87"/>
</g>
<!-- 29&#45;&gt;36 -->
<g id="edge32" class="edge">
<title>29&#45;&gt;36</title>
<path fill="none" stroke="black" d="M522.92,-556.87C518.08,-554.62 512.91,-552.37 508,-550.5 420.82,-517.36 310,-574.26 310,-481 310,-481 310,-481 310,-194 310,-152.63 440.3,-124.84 506.44,-113.39"/>
<polygon fill="black" stroke="black" points="506.84,-116.87 516.12,-111.76 505.68,-109.97 506.84,-116.87"/>
</g>
<!-- 30 -->
<g id="node26" class="node">
<title>30</title>
<ellipse fill="none" stroke="blue" cx="544" cy="-480" rx="27" ry="18"/>
<text text-anchor="middle" x="544" y="-474.95" font-family="Times,serif" font-size="14.00">30</text>
</g>
<!-- 29&#45;&gt;30 -->
<g id="edge24" class="edge">
<title>29&#45;&gt;30</title>
<path fill="none" stroke="black" d="M544,-550.41C544,-538.76 544,-523.05 544,-509.52"/>
<polygon fill="black" stroke="black" points="547.5,-509.86 544,-499.86 540.5,-509.86 547.5,-509.86"/>
</g>
<!-- 32 -->
<g id="node27" class="node">
<title>32</title>
<ellipse fill="none" stroke="blue" cx="544" cy="-391.5" rx="27" ry="18"/>
<text text-anchor="middle" x="544" y="-386.45" font-family="Times,serif" font-size="14.00">32</text>
</g>
<!-- 30&#45;&gt;32 -->
<g id="edge25" class="edge">
<title>30&#45;&gt;32</title>
<path fill="none" stroke="black" d="M544,-461.91C544,-450.26 544,-434.55 544,-421.02"/>
<polygon fill="black" stroke="black" points="547.5,-421.36 544,-411.36 540.5,-421.36 547.5,-421.36"/>
</g>
<!-- 33 -->
<g id="node28" class="node">
<title>33</title>
<ellipse fill="none" stroke="blue" cx="564" cy="-249" rx="27" ry="18"/>
<text text-anchor="middle" x="564" y="-243.95" font-family="Times,serif" font-size="14.00">33</text>
</g>
<!-- 32&#45;&gt;33 -->
<g id="edge26" class="edge">
<title>32&#45;&gt;33</title>
<path fill="none" stroke="black" d="M546.45,-373.27C549.81,-349.68 555.89,-307 559.93,-278.58"/>
<polygon fill="black" stroke="black" points="563.37,-279.26 561.31,-268.87 556.44,-278.27 563.37,-279.26"/>
</g>
<!-- 38 -->
<g id="node29" class="node">
<title>38</title>
<ellipse fill="none" stroke="blue" cx="509" cy="-303" rx="27" ry="18"/>
<text text-anchor="middle" x="509" y="-297.95" font-family="Times,serif" font-size="14.00">38</text>
</g>
<!-- 32&#45;&gt;38 -->
<g id="edge28" class="edge">
<title>32&#45;&gt;38</title>
<path fill="none" stroke="black" d="M537.25,-373.82C532.36,-361.74 525.64,-345.13 519.98,-331.14"/>
<polygon fill="black" stroke="black" points="523.29,-329.99 516.3,-322.03 516.8,-332.61 523.29,-329.99"/>
</g>
<!-- 33&#45;&gt;36 -->
<g id="edge27" class="edge">
<title>33&#45;&gt;36</title>
<path fill="none" stroke="black" d="M561.55,-230.77C558.19,-207.18 552.11,-164.5 548.07,-136.08"/>
<polygon fill="black" stroke="black" points="551.56,-135.77 546.69,-126.37 544.63,-136.76 551.56,-135.77"/>
</g>
<!-- 39 -->
<g id="node30" class="node">
<title>39</title>
<ellipse fill="none" stroke="blue" cx="509" cy="-195" rx="27" ry="18"/>
<text text-anchor="middle" x="509" y="-189.95" font-family="Times,serif" font-size="14.00">39</text>
</g>
<!-- 38&#45;&gt;39 -->
<g id="edge29" class="edge">
<title>38&#45;&gt;39</title>
<path fill="none" stroke="black" d="M509,-284.97C509,-268.76 509,-244.06 509,-224.79"/>
<polygon fill="black" stroke="black" points="512.5,-224.85 509,-214.85 505.5,-224.85 512.5,-224.85"/>
</g>
<!-- 41 -->
<g id="node31" class="node">
<title>41</title>
<ellipse fill="none" stroke="green" cx="437" cy="-195" rx="27" ry="18"/>
<text text-anchor="middle" x="437" y="-189.95" font-family="Times,serif" font-size="14.00">41</text>
</g>
<!-- 38&#45;&gt;41 -->
<g id="edge31" class="edge">
<title>38&#45;&gt;41</title>
<path fill="none" stroke="black" d="M498.38,-286.36C486.73,-269.21 467.88,-241.46 454.14,-221.23"/>
<polygon fill="black" stroke="black" points="457.03,-219.26 448.52,-212.96 451.24,-223.2 457.03,-219.26"/>
</g>
<!-- 39&#45;&gt;36 -->
<g id="edge30" class="edge">
<title>39&#45;&gt;36</title>
<path fill="none" stroke="black" d="M515.75,-177.32C520.64,-165.24 527.36,-148.63 533.02,-134.64"/>
<polygon fill="black" stroke="black" points="536.2,-136.11 536.7,-125.53 529.71,-133.49 536.2,-136.11"/>
</g>
<!-- 34 -->
<g id="node32" class="node">
<title>34</title>
<ellipse fill="none" stroke="red" cx="638" cy="-303" rx="27" ry="18"/>
<text text-anchor="middle" x="638" y="-297.95" font-family="Times,serif" font-size="14.00">34</text>
</g>
<!-- 34&#45;&gt;36 -->
<g id="edge35" class="edge">
<title>34&#45;&gt;36</title>
<path fill="none" stroke="black" d="M646.28,-285.45C657.57,-260.34 674.31,-211.87 655,-177 638.91,-147.93 605.02,-129.41 578.9,-118.86"/>
<polygon fill="black" stroke="black" points="580.26,-115.63 569.67,-115.35 577.77,-122.17 580.26,-115.63"/>
</g>
<!-- 35 -->
<g id="node33" class="node">
<title>35</title>
<ellipse fill="none" stroke="blue" cx="619" cy="-195" rx="27" ry="18"/>
<text text-anchor="middle" x="619" y="-189.95" font-family="Times,serif" font-size="14.00">35</text>
</g>
<!-- 34&#45;&gt;35 -->
<g id="edge33" class="edge">
<title>34&#45;&gt;35</title>
<path fill="none" stroke="black" d="M634.95,-284.97C632.03,-268.69 627.57,-243.82 624.11,-224.52"/>
<polygon fill="black" stroke="black" points="627.58,-224.06 622.38,-214.83 620.69,-225.29 627.58,-224.06"/>
</g>
<!-- 35&#45;&gt;36 -->
<g id="edge34" class="edge">
<title>35&#45;&gt;36</title>
<path fill="none" stroke="black" d="M607.19,-178.35C599.2,-167.97 588.27,-154.17 578,-142.5 574.34,-138.35 570.34,-134.03 566.41,-129.91"/>
<polygon fill="black" stroke="black" points="569.09,-127.66 559.61,-122.93 564.07,-132.54 569.09,-127.66"/>
</g>
<!-- 64 -->
<g id="node34" class="node">
<title>64</title>
<ellipse fill="none" stroke="red" cx="767" cy="-480" rx="27" ry="18"/>
<text text-anchor="middle" x="767" y="-474.95" font-family="Times,serif" font-size="14.00">64</text>
</g>
<!-- 65 -->
<g id="node35" class="node">
<title>65</title>
<ellipse fill="none" stroke="green" cx="839" cy="-391.5" rx="27" ry="18"/>
<text text-anchor="middle" x="839" y="-386.45" font-family="Times,serif" font-size="14.00">65</text>
</g>
<!-- 64&#45;&gt;65 -->
<g id="edge36" class="edge">
<title>64&#45;&gt;65</title>
<path fill="none" stroke="black" d="M779.54,-463.93C790.52,-450.74 806.66,-431.36 819.35,-416.11"/>
<polygon fill="black" stroke="black" points="821.68,-418.77 825.39,-408.85 816.3,-414.29 821.68,-418.77"/>
</g>
<!-- 66 -->
<g id="node36" class="node">
<title>66</title>
<ellipse fill="none" stroke="red" cx="911" cy="-480" rx="27" ry="18"/>
<text text-anchor="middle" x="911" y="-474.95" font-family="Times,serif" font-size="14.00">66</text>
</g>
<!-- 66&#45;&gt;65 -->
<g id="edge37" class="edge">
<title>66&#45;&gt;65</title>
<path fill="none" stroke="black" d="M898.46,-463.93C887.48,-450.74 871.34,-431.36 858.65,-416.11"/>
<polygon fill="black" stroke="black" points="861.7,-414.29 852.61,-408.85 856.32,-418.77 861.7,-414.29"/>
<text text-anchor="middle" x="904.7" y="-430.7" font-family="Times,serif" font-size="14.00">is sub of</text>
</g>
<!-- 67 -->
<g id="node37" class="node">
<title>67</title>
<ellipse fill="none" stroke="green" cx="983" cy="-391.5" rx="27" ry="18"/>
<text text-anchor="middle" x="983" y="-386.45" font-family="Times,serif" font-size="14.00">67</text>
</g>
<!-- 66&#45;&gt;67 -->
<g id="edge38" class="edge">
<title>66&#45;&gt;67</title>
<path fill="none" stroke="black" d="M923.54,-463.93C934.52,-450.74 950.66,-431.36 963.35,-416.11"/>
<polygon fill="black" stroke="black" points="965.68,-418.77 969.39,-408.85 960.3,-414.29 965.68,-418.77"/>
</g>
<!-- 70 -->
<g id="node38" class="node">
<title>70</title>
<ellipse fill="none" stroke="red" cx="1021" cy="-657" rx="27" ry="18"/>
<text text-anchor="middle" x="1021" y="-651.95" font-family="Times,serif" font-size="14.00">70</text>
</g>
<!-- 71 -->
<g id="node39" class="node">
<title>71</title>
<ellipse fill="none" stroke="blue" cx="1021" cy="-568.5" rx="27" ry="18"/>
<text text-anchor="middle" x="1021" y="-563.45" font-family="Times,serif" font-size="14.00">71</text>
</g>
<!-- 70&#45;&gt;71 -->
<g id="edge39" class="edge">
<title>70&#45;&gt;71</title>
<path fill="none" stroke="black" d="M1021,-638.91C1021,-627.26 1021,-611.55 1021,-598.02"/>
<polygon fill="black" stroke="black" points="1024.5,-598.36 1021,-588.36 1017.5,-598.36 1024.5,-598.36"/>
</g>
<!-- 72 -->
<g id="node40" class="node">
<title>72</title>
<ellipse fill="none" stroke="blue" cx="1127" cy="-480" rx="27" ry="18"/>
<text text-anchor="middle" x="1127" y="-474.95" font-family="Times,serif" font-size="14.00">72</text>
</g>
<!-- 71&#45;&gt;72 -->
<g id="edge40" class="edge">
<title>71&#45;&gt;72</title>
<path fill="none" stroke="black" d="M1037.56,-553.98C1054.75,-539.96 1081.86,-517.84 1101.73,-501.62"/>
<polygon fill="black" stroke="black" points="1103.85,-504.41 1109.38,-495.38 1099.42,-498.99 1103.85,-504.41"/>
<text text-anchor="middle" x="1111.99" y="-519.2" font-family="Times,serif" font-size="14.00">is super of</text>
</g>
<!-- 82 -->
<g id="node42" class="node">
<title>82</title>
<ellipse fill="none" stroke="blue" cx="983" cy="-480" rx="27" ry="18"/>
<text text-anchor="middle" x="983" y="-474.95" font-family="Times,serif" font-size="14.00">82</text>
</g>
<!-- 71&#45;&gt;82 -->
<g id="edge42" class="edge">
<title>71&#45;&gt;82</title>
<path fill="none" stroke="black" d="M1013.67,-550.82C1008.36,-538.74 1001.07,-522.13 994.92,-508.14"/>
<polygon fill="black" stroke="black" points="998.14,-506.76 990.91,-499.01 991.73,-509.58 998.14,-506.76"/>
</g>
<!-- 13 -->
<g id="node41" class="node">
<title>13</title>
<ellipse fill="none" stroke="green" cx="1127" cy="-391.5" rx="27" ry="18"/>
<text text-anchor="middle" x="1127" y="-386.45" font-family="Times,serif" font-size="14.00">13</text>
</g>
<!-- 72&#45;&gt;13 -->
<g id="edge41" class="edge">
<title>72&#45;&gt;13</title>
<path fill="none" stroke="black" d="M1127,-461.91C1127,-450.26 1127,-434.55 1127,-421.02"/>
<polygon fill="black" stroke="black" points="1130.5,-421.36 1127,-411.36 1123.5,-421.36 1130.5,-421.36"/>
</g>
<!-- 82&#45;&gt;67 -->
<g id="edge43" class="edge">
<title>82&#45;&gt;67</title>
<path fill="none" stroke="black" d="M983,-461.91C983,-450.26 983,-434.55 983,-421.02"/>
<polygon fill="black" stroke="black" points="986.5,-421.36 983,-411.36 979.5,-421.36 986.5,-421.36"/>
</g>
<!-- 76 -->
<g id="node43" class="node">
<title>76</title>
<ellipse fill="none" stroke="red" cx="1181" cy="-568.5" rx="27" ry="18"/>
<text text-anchor="middle" x="1181" y="-563.45" font-family="Times,serif" font-size="14.00">76</text>
</g>
<!-- 76&#45;&gt;72 -->
<g id="edge44" class="edge">
<title>76&#45;&gt;72</title>
<path fill="none" stroke="black" d="M1171.1,-551.63C1163.23,-539.03 1152.07,-521.16 1142.95,-506.55"/>
<polygon fill="black" stroke="black" points="1146.09,-504.97 1137.83,-498.34 1140.15,-508.68 1146.09,-504.97"/>
</g>
<!-- 77 -->
<g id="node44" class="node">
<title>77</title>
<ellipse fill="none" stroke="green" cx="1199" cy="-480" rx="27" ry="18"/>
<text text-anchor="middle" x="1199" y="-474.95" font-family="Times,serif" font-size="14.00">77</text>
</g>
<!-- 76&#45;&gt;77 -->
<g id="edge45" class="edge">
<title>76&#45;&gt;77</title>
<path fill="none" stroke="black" d="M1184.56,-550.41C1187,-538.68 1190.29,-522.84 1193.12,-509.25"/>
<polygon fill="black" stroke="black" points="1196.53,-510.04 1195.14,-499.54 1189.68,-508.61 1196.53,-510.04"/>
</g>
<!-- 83 -->
<g id="node45" class="node">
<title>83</title>
<ellipse fill="none" stroke="red" cx="1055" cy="-480" rx="27" ry="18"/>
<text text-anchor="middle" x="1055" y="-474.95" font-family="Times,serif" font-size="14.00">83</text>
</g>
<!-- 83&#45;&gt;67 -->
<g id="edge46" class="edge">
<title>83&#45;&gt;67</title>
<path fill="none" stroke="black" d="M1042.46,-463.93C1031.48,-450.74 1015.34,-431.36 1002.65,-416.11"/>
<polygon fill="black" stroke="black" points="1005.7,-414.29 996.61,-408.85 1000.32,-418.77 1005.7,-414.29"/>
</g>
<!-- 86 -->
<g id="node46" class="node">
<title>86</title>
<ellipse fill="none" stroke="red" cx="1330" cy="-657" rx="27" ry="18"/>
<text text-anchor="middle" x="1330" y="-651.95" font-family="Times,serif" font-size="14.00">86</text>
</g>
<!-- 87 -->
<g id="node47" class="node">
<title>87</title>
<ellipse fill="none" stroke="blue" cx="1277" cy="-568.5" rx="27" ry="18"/>
<text text-anchor="middle" x="1277" y="-563.45" font-family="Times,serif" font-size="14.00">87</text>
</g>
<!-- 86&#45;&gt;87 -->
<g id="edge47" class="edge">
<title>86&#45;&gt;87</title>
<path fill="none" stroke="black" d="M1308.18,-645.96C1298.13,-640.16 1287.12,-631.83 1281,-621 1277.13,-614.15 1275.45,-605.96 1274.9,-598.14"/>
<polygon fill="black" stroke="black" points="1278.4,-598.27 1274.82,-588.3 1271.4,-598.33 1278.4,-598.27"/>
<text text-anchor="middle" x="1309.5" y="-607.7" font-family="Times,serif" font-size="14.00">is super of</text>
</g>
<!-- 103 -->
<g id="node55" class="node">
<title>103</title>
<ellipse fill="none" stroke="blue" cx="1358" cy="-391.5" rx="27" ry="18"/>
<text text-anchor="middle" x="1358" y="-386.45" font-family="Times,serif" font-size="14.00">103</text>
</g>
<!-- 86&#45;&gt;103 -->
<g id="edge58" class="edge">
<title>86&#45;&gt;103</title>
<path fill="none" stroke="black" d="M1334.38,-639C1335.71,-633.31 1337.07,-626.91 1338,-621 1349.23,-549.6 1354.59,-464.58 1356.76,-421.14"/>
<polygon fill="black" stroke="black" points="1360.25,-421.46 1357.23,-411.31 1353.25,-421.13 1360.25,-421.46"/>
</g>
<!-- 89 -->
<g id="node48" class="node">
<title>89</title>
<ellipse fill="none" stroke="blue" cx="1271" cy="-480" rx="27" ry="18"/>
<text text-anchor="middle" x="1271" y="-474.95" font-family="Times,serif" font-size="14.00">89</text>
</g>
<!-- 87&#45;&gt;89 -->
<g id="edge48" class="edge">
<title>87&#45;&gt;89</title>
<path fill="none" stroke="black" d="M1275.81,-550.41C1275.01,-538.76 1273.92,-523.05 1272.98,-509.52"/>
<polygon fill="black" stroke="black" points="1276.49,-509.59 1272.31,-499.86 1269.51,-510.08 1276.49,-509.59"/>
</g>
<!-- 90 -->
<g id="node49" class="node">
<title>90</title>
<ellipse fill="none" stroke="blue" cx="1208" cy="-391.5" rx="27" ry="18"/>
<text text-anchor="middle" x="1208" y="-386.45" font-family="Times,serif" font-size="14.00">90</text>
</g>
<!-- 89&#45;&gt;90 -->
<g id="edge49" class="edge">
<title>89&#45;&gt;90</title>
<path fill="none" stroke="black" d="M1259.74,-463.54C1250.39,-450.7 1236.92,-432.2 1226.06,-417.3"/>
<polygon fill="black" stroke="black" points="1228.99,-415.37 1220.27,-409.35 1223.33,-419.49 1228.99,-415.37"/>
</g>
<!-- 99 -->
<g id="node53" class="node">
<title>99</title>
<ellipse fill="none" stroke="blue" cx="1271" cy="-303" rx="27" ry="18"/>
<text text-anchor="middle" x="1271" y="-297.95" font-family="Times,serif" font-size="14.00">99</text>
</g>
<!-- 89&#45;&gt;99 -->
<g id="edge54" class="edge">
<title>89&#45;&gt;99</title>
<path fill="none" stroke="black" d="M1271,-461.58C1271,-431.44 1271,-369.3 1271,-332.7"/>
<polygon fill="black" stroke="black" points="1274.5,-332.86 1271,-322.86 1267.5,-332.86 1274.5,-332.86"/>
</g>
<!-- 94 -->
<g id="node50" class="node">
<title>94</title>
<ellipse fill="none" stroke="blue" cx="1193" cy="-303" rx="27" ry="18"/>
<text text-anchor="middle" x="1193" y="-297.95" font-family="Times,serif" font-size="14.00">94</text>
</g>
<!-- 90&#45;&gt;94 -->
<g id="edge50" class="edge">
<title>90&#45;&gt;94</title>
<path fill="none" stroke="black" d="M1205.04,-373.41C1203.02,-361.76 1200.29,-346.05 1197.95,-332.52"/>
<polygon fill="black" stroke="black" points="1201.42,-332.1 1196.27,-322.84 1194.53,-333.29 1201.42,-332.1"/>
</g>
<!-- 95 -->
<g id="node51" class="node">
<title>95</title>
<ellipse fill="none" stroke="blue" cx="1138" cy="-195" rx="27" ry="18"/>
<text text-anchor="middle" x="1138" y="-189.95" font-family="Times,serif" font-size="14.00">95</text>
</g>
<!-- 94&#45;&gt;95 -->
<g id="edge51" class="edge">
<title>94&#45;&gt;95</title>
<path fill="none" stroke="black" d="M1184.41,-285.44C1175.69,-268.64 1162.06,-242.36 1151.82,-222.63"/>
<polygon fill="black" stroke="black" points="1154.94,-221.05 1147.23,-213.79 1148.73,-224.28 1154.94,-221.05"/>
</g>
<!-- 96 -->
<g id="node52" class="node">
<title>96</title>
<ellipse fill="none" stroke="green" cx="1251" cy="-106.5" rx="27" ry="18"/>
<text text-anchor="middle" x="1251" y="-101.45" font-family="Times,serif" font-size="14.00">96</text>
</g>
<!-- 94&#45;&gt;96 -->
<g id="edge53" class="edge">
<title>94&#45;&gt;96</title>
<path fill="none" stroke="black" d="M1198.05,-285.08C1208.05,-251.53 1230.49,-176.28 1242.7,-135.33"/>
<polygon fill="black" stroke="black" points="1245.99,-136.55 1245.49,-125.97 1239.28,-134.55 1245.99,-136.55"/>
</g>
<!-- 95&#45;&gt;96 -->
<g id="edge52" class="edge">
<title>95&#45;&gt;96</title>
<path fill="none" stroke="black" d="M1147.93,-178.02C1155.42,-166.97 1166.51,-152.5 1179,-142.5 1190.36,-133.4 1204.46,-125.89 1217.17,-120.19"/>
<polygon fill="black" stroke="black" points="1218.2,-123.56 1226.04,-116.43 1215.47,-117.12 1218.2,-123.56"/>
</g>
<!-- 99&#45;&gt;96 -->
<g id="edge57" class="edge">
<title>99&#45;&gt;96</title>
<path fill="none" stroke="black" d="M1265.79,-285.15C1260.59,-267.4 1252.97,-238.55 1250,-213 1248.15,-197.11 1249.88,-193 1250,-177 1250.1,-163.56 1250.3,-148.65 1250.5,-136.11"/>
<polygon fill="black" stroke="black" points="1253.99,-136.49 1250.65,-126.44 1246.99,-136.38 1253.99,-136.49"/>
</g>
<!-- 100 -->
<g id="node54" class="node">
<title>100</title>
<ellipse fill="none" stroke="blue" cx="1286" cy="-195" rx="27" ry="18"/>
<text text-anchor="middle" x="1286" y="-189.95" font-family="Times,serif" font-size="14.00">100</text>
</g>
<!-- 99&#45;&gt;100 -->
<g id="edge55" class="edge">
<title>99&#45;&gt;100</title>
<path fill="none" stroke="black" d="M1273.41,-284.97C1275.71,-268.69 1279.23,-243.82 1281.96,-224.52"/>
<polygon fill="black" stroke="black" points="1285.4,-225.23 1283.33,-214.84 1278.47,-224.25 1285.4,-225.23"/>
</g>
<!-- 100&#45;&gt;96 -->
<g id="edge56" class="edge">
<title>100&#45;&gt;96</title>
<path fill="none" stroke="black" d="M1279.25,-177.32C1274.36,-165.24 1267.64,-148.63 1261.98,-134.64"/>
<polygon fill="black" stroke="black" points="1265.29,-133.49 1258.3,-125.53 1258.8,-136.11 1265.29,-133.49"/>
</g>
<!-- 104 -->
<g id="node56" class="node">
<title>104</title>
<ellipse fill="none" stroke="blue" cx="1358" cy="-303" rx="27" ry="18"/>
<text text-anchor="middle" x="1358" y="-297.95" font-family="Times,serif" font-size="14.00">104</text>
</g>
<!-- 103&#45;&gt;104 -->
<g id="edge59" class="edge">
<title>103&#45;&gt;104</title>
<path fill="none" stroke="black" d="M1358,-373.41C1358,-361.76 1358,-346.05 1358,-332.52"/>
<polygon fill="black" stroke="black" points="1361.5,-332.86 1358,-322.86 1354.5,-332.86 1361.5,-332.86"/>
<text text-anchor="middle" x="1386.5" y="-342.2" font-family="Times,serif" font-size="14.00">is super of</text>
</g>
<!-- 107 -->
<g id="node58" class="node">
<title>107</title>
<ellipse fill="none" stroke="blue" cx="1430" cy="-303" rx="27" ry="18"/>
<text text-anchor="middle" x="1430" y="-297.95" font-family="Times,serif" font-size="14.00">107</text>
</g>
<!-- 103&#45;&gt;107 -->
<g id="edge62" class="edge">
<title>103&#45;&gt;107</title>
<path fill="none" stroke="black" d="M1381.06,-381.6C1393.11,-375.85 1407.14,-367.23 1416,-355.5 1421.08,-348.76 1424.32,-340.3 1426.39,-332.2"/>
<polygon fill="black" stroke="black" points="1429.76,-333.17 1428.29,-322.67 1422.9,-331.79 1429.76,-333.17"/>
</g>
<!-- 105 -->
<g id="node57" class="node">
<title>105</title>
<ellipse fill="none" stroke="blue" cx="1358" cy="-195" rx="27" ry="18"/>
<text text-anchor="middle" x="1358" y="-189.95" font-family="Times,serif" font-size="14.00">105</text>
</g>
<!-- 104&#45;&gt;105 -->
<g id="edge60" class="edge">
<title>104&#45;&gt;105</title>
<path fill="none" stroke="black" d="M1358,-284.97C1358,-268.76 1358,-244.06 1358,-224.79"/>
<polygon fill="black" stroke="black" points="1361.5,-224.85 1358,-214.85 1354.5,-224.85 1361.5,-224.85"/>
</g>
<!-- 105&#45;&gt;96 -->
<g id="edge61" class="edge">
<title>105&#45;&gt;96</title>
<path fill="none" stroke="black" d="M1341.28,-180.48C1323.93,-166.46 1296.57,-144.34 1276.51,-128.12"/>
<polygon fill="black" stroke="black" points="1278.76,-125.44 1268.78,-121.87 1274.35,-130.88 1278.76,-125.44"/>
</g>
<!-- 108 -->
<g id="node59" class="node">
<title>108</title>
<ellipse fill="none" stroke="blue" cx="1430" cy="-195" rx="27" ry="18"/>
<text text-anchor="middle" x="1430" y="-189.95" font-family="Times,serif" font-size="14.00">108</text>
</g>
<!-- 107&#45;&gt;108 -->
<g id="edge63" class="edge">
<title>107&#45;&gt;108</title>
<path fill="none" stroke="black" d="M1430,-284.97C1430,-268.76 1430,-244.06 1430,-224.79"/>
<polygon fill="black" stroke="black" points="1433.5,-224.85 1430,-214.85 1426.5,-224.85 1433.5,-224.85"/>
<text text-anchor="middle" x="1458.5" y="-243.95" font-family="Times,serif" font-size="14.00">is super of</text>
</g>
<!-- 108&#45;&gt;96 -->
<g id="edge64" class="edge">
<title>108&#45;&gt;96</title>
<path fill="none" stroke="black" d="M1408.41,-183.57C1377.01,-168.39 1318.56,-140.15 1282.4,-122.67"/>
<polygon fill="black" stroke="black" points="1284.28,-119.69 1273.75,-118.49 1281.23,-126 1284.28,-119.69"/>
</g>
<!-- 88 -->
<g id="node60" class="node">
<title>88</title>
<ellipse fill="none" stroke="red" cx="1429" cy="-657" rx="27" ry="18"/>
<text text-anchor="middle" x="1429" y="-651.95" font-family="Times,serif" font-size="14.00">88</text>
</g>
<!-- 92 -->
<g id="node61" class="node">
<title>92</title>
<ellipse fill="none" stroke="blue" cx="1429" cy="-568.5" rx="27" ry="18"/>
<text text-anchor="middle" x="1429" y="-563.45" font-family="Times,serif" font-size="14.00">92</text>
</g>
<!-- 88&#45;&gt;92 -->
<g id="edge65" class="edge">
<title>88&#45;&gt;92</title>
<path fill="none" stroke="black" d="M1429,-638.91C1429,-627.26 1429,-611.55 1429,-598.02"/>
<polygon fill="black" stroke="black" points="1432.5,-598.36 1429,-588.36 1425.5,-598.36 1432.5,-598.36"/>
</g>
<!-- 93 -->
<g id="node62" class="node">
<title>93</title>
<ellipse fill="none" stroke="green" cx="1429" cy="-480" rx="27" ry="18"/>
<text text-anchor="middle" x="1429" y="-474.95" font-family="Times,serif" font-size="14.00">93</text>
</g>
<!-- 92&#45;&gt;93 -->
<g id="edge66" class="edge">
<title>92&#45;&gt;93</title>
<path fill="none" stroke="black" d="M1429,-550.41C1429,-538.76 1429,-523.05 1429,-509.52"/>
<polygon fill="black" stroke="black" points="1432.5,-509.86 1429,-499.86 1425.5,-509.86 1432.5,-509.86"/>
<text text-anchor="middle" x="1457.5" y="-519.2" font-family="Times,serif" font-size="14.00">is super of</text>
</g>
<!-- 98 -->
<g id="node63" class="node">
<title>98</title>
<ellipse fill="none" stroke="red" cx="839" cy="-480" rx="27" ry="18"/>
<text text-anchor="middle" x="839" y="-474.95" font-family="Times,serif" font-size="14.00">98</text>
</g>
<!-- 98&#45;&gt;65 -->
<g id="edge67" class="edge">
<title>98&#45;&gt;65</title>
<path fill="none" stroke="black" d="M839,-461.91C839,-450.26 839,-434.55 839,-421.02"/>
<polygon fill="black" stroke="black" points="842.5,-421.36 839,-411.36 835.5,-421.36 842.5,-421.36"/>
</g>
<!-- 3 -->
<g id="node64" class="node">
<title>3</title>
<ellipse fill="none" stroke="green" cx="1501" cy="-657" rx="27" ry="18"/>
<text text-anchor="middle" x="1501" y="-651.95" font-family="Times,serif" font-size="14.00">3</text>
</g>
<!-- 4 -->
<g id="node65" class="node">
<title>4</title>
<ellipse fill="none" stroke="green" cx="1573" cy="-657" rx="27" ry="18"/>
<text text-anchor="middle" x="1573" y="-651.95" font-family="Times,serif" font-size="14.00">4</text>
</g>
<!-- 14 -->
<g id="node66" class="node">
<title>14</title>
<ellipse fill="none" stroke="green" cx="1645" cy="-657" rx="27" ry="18"/>
<text text-anchor="middle" x="1645" y="-651.95" font-family="Times,serif" font-size="14.00">14</text>
</g>
<!-- 19 -->
<g id="node67" class="node">
<title>19</title>
<ellipse fill="none" stroke="green" cx="1717" cy="-657" rx="27" ry="18"/>
<text text-anchor="middle" x="1717" y="-651.95" font-family="Times,serif" font-size="14.00">19</text>
</g>
<!-- 31 -->
<g id="node68" class="node">
<title>31</title>
<ellipse fill="none" stroke="green" cx="1789" cy="-657" rx="27" ry="18"/>
<text text-anchor="middle" x="1789" y="-651.95" font-family="Times,serif" font-size="14.00">31</text>
</g>
<!-- 57 -->
<g id="node69" class="node">
<title>57</title>
<ellipse fill="none" stroke="green" cx="1861" cy="-657" rx="27" ry="18"/>
<text text-anchor="middle" x="1861" y="-651.95" font-family="Times,serif" font-size="14.00">57</text>
</g>
<!-- 85 -->
<g id="node70" class="node">
<title>85</title>
<ellipse fill="none" stroke="green" cx="1933" cy="-657" rx="27" ry="18"/>
<text text-anchor="middle" x="1933" y="-651.95" font-family="Times,serif" font-size="14.00">85</text>
</g>
<!-- 91 -->
<g id="node71" class="node">
<title>91</title>
<ellipse fill="none" stroke="green" cx="2005" cy="-657" rx="27" ry="18"/>
<text text-anchor="middle" x="2005" y="-651.95" font-family="Times,serif" font-size="14.00">91</text>
</g>
</g>
</svg>
