<?xml version="1.0" encoding="UTF-8" standalone="no"?>
<!DOCTYPE svg PUBLIC "-//W3C//DTD SVG 1.1//EN"
 "http://www.w3.org/Graphics/SVG/1.1/DTD/svg11.dtd">
<!-- Generated by graphviz version 11.0.0 (20240428.1522)
 -->
<!-- Pages: 1 -->
<svg width="582pt" height="828pt"
 viewBox="0.00 0.00 582.00 828.00" xmlns="http://www.w3.org/2000/svg" xmlns:xlink="http://www.w3.org/1999/xlink">
<g id="graph0" class="graph" transform="scale(1 1) rotate(0) translate(4 824)">
<polygon fill="white" stroke="none" points="-4,4 -4,-824 578,-824 578,4 -4,4"/>
<!-- 0 -->
<g id="node1" class="node">
<title>0</title>
<ellipse fill="none" stroke="red" cx="115" cy="-802" rx="27" ry="18"/>
<text text-anchor="middle" x="115" y="-796.95" font-family="Times,serif" font-size="14.00">0</text>
</g>
<!-- 1 -->
<g id="node2" class="node">
<title>1</title>
<ellipse fill="none" stroke="red" cx="63" cy="-553" rx="27" ry="18"/>
<text text-anchor="middle" x="63" y="-547.95" font-family="Times,serif" font-size="14.00">1</text>
</g>
<!-- 2 -->
<g id="node3" class="node">
<title>2</title>
<ellipse fill="none" stroke="green" cx="171" cy="-464.5" rx="27" ry="18"/>
<text text-anchor="middle" x="171" y="-459.45" font-family="Times,serif" font-size="14.00">2</text>
</g>
<!-- 1&#45;&gt;2 -->
<g id="edge1" class="edge">
<title>1&#45;&gt;2</title>
<path fill="none" stroke="black" d="M59.28,-535.05C57.89,-524.12 58.14,-510.2 65.5,-500.5 81.17,-479.86 109.44,-471.24 132.77,-467.71"/>
<polygon fill="black" stroke="black" points="133.09,-471.2 142.59,-466.51 132.24,-464.25 133.09,-471.2"/>
<text text-anchor="middle" x="89.25" y="-503.7" font-family="Times,serif" font-size="14.00">is sub of</text>
</g>
<!-- 10 -->
<g id="node4" class="node">
<title>10</title>
<ellipse fill="none" stroke="red" cx="27" cy="-195" rx="27" ry="18"/>
<text text-anchor="middle" x="27" y="-189.95" font-family="Times,serif" font-size="14.00">10</text>
</g>
<!-- 20 -->
<g id="node5" class="node">
<title>20</title>
<ellipse fill="none" stroke="blue" cx="27" cy="-106.5" rx="27" ry="18"/>
<text text-anchor="middle" x="27" y="-101.45" font-family="Times,serif" font-size="14.00">20</text>
</g>
<!-- 10&#45;&gt;20 -->
<g id="edge2" class="edge">
<title>10&#45;&gt;20</title>
<path fill="none" stroke="black" d="M27,-176.91C27,-165.26 27,-149.55 27,-136.02"/>
<polygon fill="black" stroke="black" points="30.5,-136.36 27,-126.36 23.5,-136.36 30.5,-136.36"/>
<text text-anchor="middle" x="55.5" y="-145.7" font-family="Times,serif" font-size="14.00">is super of</text>
</g>
<!-- 13 -->
<g id="node6" class="node">
<title>13</title>
<ellipse fill="none" stroke="green" cx="99" cy="-18" rx="27" ry="18"/>
<text text-anchor="middle" x="99" y="-12.95" font-family="Times,serif" font-size="14.00">13</text>
</g>
<!-- 20&#45;&gt;13 -->
<g id="edge3" class="edge">
<title>20&#45;&gt;13</title>
<path fill="none" stroke="black" d="M39.54,-90.43C50.52,-77.24 66.66,-57.86 79.35,-42.61"/>
<polygon fill="black" stroke="black" points="81.68,-45.27 85.39,-35.35 76.3,-40.79 81.68,-45.27"/>
</g>
<!-- 12 -->
<g id="node7" class="node">
<title>12</title>
<ellipse fill="none" stroke="red" cx="99" cy="-106.5" rx="27" ry="18"/>
<text text-anchor="middle" x="99" y="-101.45" font-family="Times,serif" font-size="14.00">12</text>
</g>
<!-- 12&#45;&gt;13 -->
<g id="edge4" class="edge">
<title>12&#45;&gt;13</title>
<path fill="none" stroke="black" d="M99,-88.41C99,-76.76 99,-61.05 99,-47.52"/>
<polygon fill="black" stroke="black" points="102.5,-47.86 99,-37.86 95.5,-47.86 102.5,-47.86"/>
<text text-anchor="middle" x="122.25" y="-57.2" font-family="Times,serif" font-size="14.00">is sub of</text>
</g>
<!-- 17 -->
<g id="node8" class="node">
<title>17</title>
<ellipse fill="none" stroke="red" cx="171" cy="-195" rx="27" ry="18"/>
<text text-anchor="middle" x="171" y="-189.95" font-family="Times,serif" font-size="14.00">17</text>
</g>
<!-- 15 -->
<g id="node9" class="node">
<title>15</title>
<ellipse fill="none" stroke="blue" cx="171" cy="-106.5" rx="27" ry="18"/>
<text text-anchor="middle" x="171" y="-101.45" font-family="Times,serif" font-size="14.00">15</text>
</g>
<!-- 17&#45;&gt;15 -->
<g id="edge5" class="edge">
<title>17&#45;&gt;15</title>
<path fill="none" stroke="black" d="M171,-176.91C171,-165.26 171,-149.55 171,-136.02"/>
<polygon fill="black" stroke="black" points="174.5,-136.36 171,-126.36 167.5,-136.36 174.5,-136.36"/>
</g>
<!-- 18 -->
<g id="node10" class="node">
<title>18</title>
<ellipse fill="none" stroke="green" cx="343" cy="-106.5" rx="27" ry="18"/>
<text text-anchor="middle" x="343" y="-101.45" font-family="Times,serif" font-size="14.00">18</text>
</g>
<!-- 17&#45;&gt;18 -->
<g id="edge7" class="edge">
<title>17&#45;&gt;18</title>
<path fill="none" stroke="black" d="M185.51,-179.58C197.69,-168.16 216.03,-152.51 234.5,-142.5 257.07,-130.27 284.62,-121.45 306.31,-115.72"/>
<polygon fill="black" stroke="black" points="307.06,-119.14 315.9,-113.3 305.35,-112.35 307.06,-119.14"/>
<text text-anchor="middle" x="258.25" y="-145.7" font-family="Times,serif" font-size="14.00">is sub of</text>
</g>
<!-- 15&#45;&gt;13 -->
<g id="edge6" class="edge">
<title>15&#45;&gt;13</title>
<path fill="none" stroke="black" d="M165.97,-88.48C162.22,-77.79 156.3,-64.16 148,-54 142.63,-47.43 135.75,-41.51 128.84,-36.49"/>
<polygon fill="black" stroke="black" points="131.06,-33.76 120.81,-31.07 127.14,-39.57 131.06,-33.76"/>
</g>
<!-- 23 -->
<g id="node11" class="node">
<title>23</title>
<ellipse fill="none" stroke="red" cx="187" cy="-802" rx="27" ry="18"/>
<text text-anchor="middle" x="187" y="-796.95" font-family="Times,serif" font-size="14.00">23</text>
</g>
<!-- 8 -->
<g id="node12" class="node">
<title>8</title>
<ellipse fill="none" stroke="blue" cx="187" cy="-730" rx="27" ry="18"/>
<text text-anchor="middle" x="187" y="-724.95" font-family="Times,serif" font-size="14.00">8</text>
</g>
<!-- 23&#45;&gt;8 -->
<g id="edge8" class="edge">
<title>23&#45;&gt;8</title>
<path fill="none" stroke="black" d="M187,-783.7C187,-776.41 187,-767.73 187,-759.54"/>
<polygon fill="black" stroke="black" points="190.5,-759.62 187,-749.62 183.5,-759.62 190.5,-759.62"/>
</g>
<!-- 4 -->
<g id="node13" class="node">
<title>4</title>
<ellipse fill="none" stroke="blue" cx="126" cy="-641.5" rx="27" ry="18"/>
<text text-anchor="middle" x="126" y="-636.45" font-family="Times,serif" font-size="14.00">4</text>
</g>
<!-- 8&#45;&gt;4 -->
<g id="edge9" class="edge">
<title>8&#45;&gt;4</title>
<path fill="none" stroke="black" d="M175.81,-713.13C166.78,-700.33 153.92,-682.09 143.53,-667.35"/>
<polygon fill="black" stroke="black" points="146.61,-665.66 137.99,-659.5 140.89,-669.69 146.61,-665.66"/>
</g>
<!-- 21 -->
<g id="node15" class="node">
<title>21</title>
<ellipse fill="none" stroke="green" cx="198" cy="-641.5" rx="27" ry="18"/>
<text text-anchor="middle" x="198" y="-636.45" font-family="Times,serif" font-size="14.00">21</text>
</g>
<!-- 8&#45;&gt;21 -->
<g id="edge13" class="edge">
<title>8&#45;&gt;21</title>
<path fill="none" stroke="black" d="M189.17,-711.91C190.66,-700.26 192.65,-684.55 194.37,-671.02"/>
<polygon fill="black" stroke="black" points="197.81,-671.71 195.6,-661.35 190.87,-670.83 197.81,-671.71"/>
<text text-anchor="middle" x="222.5" y="-680.7" font-family="Times,serif" font-size="14.00">is super of</text>
</g>
<!-- 4&#45;&gt;2 -->
<g id="edge10" class="edge">
<title>4&#45;&gt;2</title>
<path fill="none" stroke="black" d="M125.69,-623.33C125.75,-602.15 127.29,-565.23 136,-535 140.35,-519.89 147.98,-504.15 155.01,-491.48"/>
<polygon fill="black" stroke="black" points="157.97,-493.36 159.93,-482.95 151.9,-489.86 157.97,-493.36"/>
</g>
<!-- 6 -->
<g id="node14" class="node">
<title>6</title>
<ellipse fill="none" stroke="blue" cx="171" cy="-553" rx="27" ry="18"/>
<text text-anchor="middle" x="171" y="-547.95" font-family="Times,serif" font-size="14.00">6</text>
</g>
<!-- 4&#45;&gt;6 -->
<g id="edge11" class="edge">
<title>4&#45;&gt;6</title>
<path fill="none" stroke="black" d="M134.46,-624.23C140.83,-611.98 149.7,-594.93 157.11,-580.7"/>
<polygon fill="black" stroke="black" points="160.21,-582.32 161.72,-571.83 154,-579.09 160.21,-582.32"/>
<text text-anchor="middle" x="181.5" y="-592.2" font-family="Times,serif" font-size="14.00">is super of</text>
</g>
<!-- 6&#45;&gt;2 -->
<g id="edge12" class="edge">
<title>6&#45;&gt;2</title>
<path fill="none" stroke="black" d="M171,-534.91C171,-523.26 171,-507.55 171,-494.02"/>
<polygon fill="black" stroke="black" points="174.5,-494.36 171,-484.36 167.5,-494.36 174.5,-494.36"/>
</g>
<!-- 26 -->
<g id="node16" class="node">
<title>26</title>
<ellipse fill="none" stroke="red" cx="243" cy="-268" rx="27" ry="18"/>
<text text-anchor="middle" x="243" y="-262.95" font-family="Times,serif" font-size="14.00">26</text>
</g>
<!-- 24 -->
<g id="node17" class="node">
<title>24</title>
<ellipse fill="none" stroke="blue" cx="243" cy="-195" rx="27" ry="18"/>
<text text-anchor="middle" x="243" y="-189.95" font-family="Times,serif" font-size="14.00">24</text>
</g>
<!-- 26&#45;&gt;24 -->
<g id="edge14" class="edge">
<title>26&#45;&gt;24</title>
<path fill="none" stroke="black" d="M243,-249.81C243,-242.23 243,-233.1 243,-224.54"/>
<polygon fill="black" stroke="black" points="246.5,-224.54 243,-214.54 239.5,-224.54 246.5,-224.54"/>
</g>
<!-- 24&#45;&gt;18 -->
<g id="edge15" class="edge">
<title>24&#45;&gt;18</title>
<path fill="none" stroke="black" d="M259.07,-180.1C275.1,-166.23 299.96,-144.73 318.46,-128.72"/>
<polygon fill="black" stroke="black" points="320.56,-131.54 325.83,-122.35 315.98,-126.25 320.56,-131.54"/>
</g>
<!-- 32 -->
<g id="node18" class="node">
<title>32</title>
<ellipse fill="none" stroke="red" cx="270" cy="-641.5" rx="27" ry="18"/>
<text text-anchor="middle" x="270" y="-636.45" font-family="Times,serif" font-size="14.00">32</text>
</g>
<!-- 31 -->
<g id="node19" class="node">
<title>31</title>
<ellipse fill="none" stroke="blue" cx="243" cy="-553" rx="27" ry="18"/>
<text text-anchor="middle" x="243" y="-547.95" font-family="Times,serif" font-size="14.00">31</text>
</g>
<!-- 32&#45;&gt;31 -->
<g id="edge16" class="edge">
<title>32&#45;&gt;31</title>
<path fill="none" stroke="black" d="M264.67,-623.41C260.97,-611.56 255.96,-595.52 251.69,-581.84"/>
<polygon fill="black" stroke="black" points="255.09,-581 248.77,-572.5 248.41,-583.09 255.09,-581"/>
</g>
<!-- 31&#45;&gt;2 -->
<g id="edge17" class="edge">
<title>31&#45;&gt;2</title>
<path fill="none" stroke="black" d="M230.46,-536.93C219.48,-523.74 203.34,-504.36 190.65,-489.11"/>
<polygon fill="black" stroke="black" points="193.7,-487.29 184.61,-481.85 188.32,-491.77 193.7,-487.29"/>
</g>
<!-- 35 -->
<g id="node20" class="node">
<title>35</title>
<ellipse fill="none" stroke="red" cx="315" cy="-195" rx="27" ry="18"/>
<text text-anchor="middle" x="315" y="-189.95" font-family="Times,serif" font-size="14.00">35</text>
</g>
<!-- 35&#45;&gt;18 -->
<g id="edge18" class="edge">
<title>35&#45;&gt;18</title>
<path fill="none" stroke="black" d="M320.53,-176.91C324.37,-165.06 329.56,-149.02 333.99,-135.34"/>
<polygon fill="black" stroke="black" points="337.26,-136.59 337.01,-125.99 330.6,-134.43 337.26,-136.59"/>
</g>
<!-- 37 -->
<g id="node21" class="node">
<title>37</title>
<ellipse fill="none" stroke="red" cx="315" cy="-553" rx="27" ry="18"/>
<text text-anchor="middle" x="315" y="-547.95" font-family="Times,serif" font-size="14.00">37</text>
</g>
<!-- 37&#45;&gt;2 -->
<g id="edge19" class="edge">
<title>37&#45;&gt;2</title>
<path fill="none" stroke="black" d="M295.28,-540.15C270.72,-525.4 228.55,-500.07 200.23,-483.06"/>
<polygon fill="black" stroke="black" points="202.15,-480.13 191.78,-477.98 198.55,-486.13 202.15,-480.13"/>
</g>
<!-- 46 -->
<g id="node22" class="node">
<title>46</title>
<ellipse fill="none" stroke="red" cx="392" cy="-802" rx="27" ry="18"/>
<text text-anchor="middle" x="392" y="-796.95" font-family="Times,serif" font-size="14.00">46</text>
</g>
<!-- 45 -->
<g id="node23" class="node">
<title>45</title>
<ellipse fill="none" stroke="blue" cx="392" cy="-730" rx="27" ry="18"/>
<text text-anchor="middle" x="392" y="-724.95" font-family="Times,serif" font-size="14.00">45</text>
</g>
<!-- 46&#45;&gt;45 -->
<g id="edge20" class="edge">
<title>46&#45;&gt;45</title>
<path fill="none" stroke="black" d="M392,-783.7C392,-776.41 392,-767.73 392,-759.54"/>
<polygon fill="black" stroke="black" points="395.5,-759.62 392,-749.62 388.5,-759.62 395.5,-759.62"/>
</g>
<!-- 45&#45;&gt;18 -->
<g id="edge21" class="edge">
<title>45&#45;&gt;18</title>
<path fill="none" stroke="black" d="M385.16,-712.41C378.7,-695.23 370,-667.45 370,-642.5 370,-642.5 370,-642.5 370,-194 370,-173.22 362.81,-150.86 355.86,-134.08"/>
<polygon fill="black" stroke="black" points="359.23,-133.06 352,-125.32 352.82,-135.88 359.23,-133.06"/>
</g>
<!-- 44 -->
<g id="node24" class="node">
<title>44</title>
<ellipse fill="none" stroke="blue" cx="425" cy="-641.5" rx="27" ry="18"/>
<text text-anchor="middle" x="425" y="-636.45" font-family="Times,serif" font-size="14.00">44</text>
</g>
<!-- 45&#45;&gt;44 -->
<g id="edge22" class="edge">
<title>45&#45;&gt;44</title>
<path fill="none" stroke="black" d="M398.36,-712.32C402.94,-700.31 409.23,-683.84 414.54,-669.91"/>
<polygon fill="black" stroke="black" points="417.71,-671.43 418,-660.84 411.17,-668.93 417.71,-671.43"/>
<text text-anchor="middle" x="439.5" y="-680.7" font-family="Times,serif" font-size="14.00">is super of</text>
</g>
<!-- 29 -->
<g id="node25" class="node">
<title>29</title>
<ellipse fill="none" stroke="blue" cx="425" cy="-553" rx="27" ry="18"/>
<text text-anchor="middle" x="425" y="-547.95" font-family="Times,serif" font-size="14.00">29</text>
</g>
<!-- 44&#45;&gt;29 -->
<g id="edge23" class="edge">
<title>44&#45;&gt;29</title>
<path fill="none" stroke="black" d="M425,-623.41C425,-611.76 425,-596.05 425,-582.52"/>
<polygon fill="black" stroke="black" points="428.5,-582.86 425,-572.86 421.5,-582.86 428.5,-582.86"/>
</g>
<!-- 28 -->
<g id="node26" class="node">
<title>28</title>
<ellipse fill="none" stroke="blue" cx="416" cy="-410.5" rx="27" ry="18"/>
<text text-anchor="middle" x="416" y="-405.45" font-family="Times,serif" font-size="14.00">28</text>
</g>
<!-- 29&#45;&gt;28 -->
<g id="edge24" class="edge">
<title>29&#45;&gt;28</title>
<path fill="none" stroke="black" d="M423.9,-534.77C422.38,-511.18 419.65,-468.5 417.83,-440.08"/>
<polygon fill="black" stroke="black" points="421.34,-440.14 417.21,-430.38 414.36,-440.58 421.34,-440.14"/>
</g>
<!-- 42 -->
<g id="node27" class="node">
<title>42</title>
<ellipse fill="none" stroke="blue" cx="471" cy="-464.5" rx="27" ry="18"/>
<text text-anchor="middle" x="471" y="-459.45" font-family="Times,serif" font-size="14.00">42</text>
</g>
<!-- 29&#45;&gt;42 -->
<g id="edge26" class="edge">
<title>29&#45;&gt;42</title>
<path fill="none" stroke="black" d="M433.65,-535.73C440.23,-523.36 449.41,-506.1 457.02,-491.78"/>
<polygon fill="black" stroke="black" points="459.91,-493.8 461.52,-483.33 453.73,-490.51 459.91,-493.8"/>
<text text-anchor="middle" x="480.5" y="-503.7" font-family="Times,serif" font-size="14.00">is super of</text>
</g>
<!-- 28&#45;&gt;18 -->
<g id="edge25" class="edge">
<title>28&#45;&gt;18</title>
<path fill="none" stroke="black" d="M416,-392.11C416,-372.84 416,-340.82 416,-313.25 416,-313.25 416,-313.25 416,-194 416,-165.33 392.29,-141.24 371.9,-125.83"/>
<polygon fill="black" stroke="black" points="373.97,-123.01 363.79,-120.05 369.9,-128.71 373.97,-123.01"/>
</g>
<!-- 36 -->
<g id="node28" class="node">
<title>36</title>
<ellipse fill="none" stroke="blue" cx="471" cy="-356.5" rx="27" ry="18"/>
<text text-anchor="middle" x="471" y="-351.45" font-family="Times,serif" font-size="14.00">36</text>
</g>
<!-- 42&#45;&gt;36 -->
<g id="edge27" class="edge">
<title>42&#45;&gt;36</title>
<path fill="none" stroke="black" d="M471,-446.47C471,-430.26 471,-405.56 471,-386.29"/>
<polygon fill="black" stroke="black" points="474.5,-386.35 471,-376.35 467.5,-386.35 474.5,-386.35"/>
</g>
<!-- 33 -->
<g id="node29" class="node">
<title>33</title>
<ellipse fill="none" stroke="green" cx="461" cy="-268" rx="27" ry="18"/>
<text text-anchor="middle" x="461" y="-262.95" font-family="Times,serif" font-size="14.00">33</text>
</g>
<!-- 36&#45;&gt;33 -->
<g id="edge28" class="edge">
<title>36&#45;&gt;33</title>
<path fill="none" stroke="black" d="M469.02,-338.41C467.68,-326.76 465.86,-311.05 464.3,-297.52"/>
<polygon fill="black" stroke="black" points="467.8,-297.39 463.18,-287.85 460.85,-298.19 467.8,-297.39"/>
</g>
<!-- 40 -->
<g id="node30" class="node">
<title>40</title>
<ellipse fill="none" stroke="blue" cx="533" cy="-268" rx="27" ry="18"/>
<text text-anchor="middle" x="533" y="-262.95" font-family="Times,serif" font-size="14.00">40</text>
</g>
<!-- 36&#45;&gt;40 -->
<g id="edge29" class="edge">
<title>36&#45;&gt;40</title>
<path fill="none" stroke="black" d="M482.08,-340.04C491.28,-327.2 504.54,-308.7 515.22,-293.8"/>
<polygon fill="black" stroke="black" points="517.94,-296.02 520.92,-285.85 512.25,-291.94 517.94,-296.02"/>
<text text-anchor="middle" x="535.5" y="-307.2" font-family="Times,serif" font-size="14.00">is super of</text>
</g>
<!-- 38 -->
<g id="node31" class="node">
<title>38</title>
<ellipse fill="none" stroke="blue" cx="517" cy="-195" rx="27" ry="18"/>
<text text-anchor="middle" x="517" y="-189.95" font-family="Times,serif" font-size="14.00">38</text>
</g>
<!-- 40&#45;&gt;38 -->
<g id="edge30" class="edge">
<title>40&#45;&gt;38</title>
<path fill="none" stroke="black" d="M529.13,-249.81C527.4,-242.14 525.31,-232.89 523.36,-224.24"/>
<polygon fill="black" stroke="black" points="526.78,-223.49 521.17,-214.51 519.95,-225.03 526.78,-223.49"/>
</g>
<!-- 38&#45;&gt;18 -->
<g id="edge31" class="edge">
<title>38&#45;&gt;18</title>
<path fill="none" stroke="black" d="M498.12,-181.69C480.8,-170.67 454.24,-154.46 430,-142.5 412.92,-134.07 393.28,-126.03 376.99,-119.79"/>
<polygon fill="black" stroke="black" points="378.32,-116.56 367.73,-116.31 375.86,-123.11 378.32,-116.56"/>
</g>
<!-- 39 -->
<g id="node32" class="node">
<title>39</title>
<ellipse fill="none" stroke="green" cx="517" cy="-106.5" rx="27" ry="18"/>
<text text-anchor="middle" x="517" y="-101.45" font-family="Times,serif" font-size="14.00">39</text>
</g>
<!-- 38&#45;&gt;39 -->
<g id="edge32" class="edge">
<title>38&#45;&gt;39</title>
<path fill="none" stroke="black" d="M517,-176.91C517,-165.26 517,-149.55 517,-136.02"/>
<polygon fill="black" stroke="black" points="520.5,-136.36 517,-126.36 513.5,-136.36 520.5,-136.36"/>
<text text-anchor="middle" x="545.5" y="-145.7" font-family="Times,serif" font-size="14.00">is super of</text>
</g>
</g>
</svg>
